<svg width="19" height="19" viewBox="0 0 19 19" fill="none" xmlns="http://www.w3.org/2000/svg">
<path d="M9.41713 11.9827L9.40654 11.978L9.39575 11.9738C9.36631 11.9624 9.3393 11.9455 9.31616 11.9241L6.32105 8.92895C6.29755 8.90545 6.27891 8.87755 6.2662 8.84685C6.25348 8.81614 6.24693 8.78323 6.24693 8.75C6.24693 8.71677 6.25348 8.68386 6.2662 8.65315C6.27891 8.62245 6.29755 8.59455 6.32105 8.57105C6.34455 8.54755 6.37245 8.52891 6.40315 8.51619C6.43386 8.50348 6.46676 8.49693 6.5 8.49693C6.53324 8.49693 6.56614 8.50348 6.59685 8.51619C6.62744 8.52887 6.65525 8.54742 6.67869 8.5708C6.67878 8.57089 6.67886 8.57097 6.67895 8.57105L8.39568 10.2953L9.25 11.1533V9.9425V2.75C9.25 2.6837 9.27634 2.62011 9.32322 2.57322C9.37011 2.52634 9.4337 2.5 9.5 2.5C9.5663 2.5 9.62989 2.52634 9.67678 2.57322C9.72366 2.62011 9.75 2.6837 9.75 2.75V9.9425V11.1533L10.6043 10.2953L12.3211 8.57105C12.3212 8.57095 12.3213 8.57084 12.3214 8.57074C12.3688 8.52348 12.433 8.49693 12.5 8.49693C12.5671 8.49693 12.6315 8.52359 12.6789 8.57105C12.7264 8.61851 12.7531 8.68288 12.7531 8.75C12.7531 8.81712 12.7264 8.88149 12.6789 8.92895L9.68384 11.9241C9.6607 11.9455 9.63369 11.9624 9.60425 11.9738L9.59346 11.978L9.58287 11.9827C9.55677 11.9942 9.52854 12.0002 9.5 12.0002C9.47146 12.0002 9.44323 11.9942 9.41713 11.9827ZM16.0732 11.5732C16.1201 11.5263 16.1837 11.5 16.25 11.5C16.3163 11.5 16.3799 11.5263 16.4268 11.5732C16.4737 11.6201 16.5 11.6837 16.5 11.75V14.75C16.5 15.2141 16.3156 15.6592 15.9874 15.9874C15.6592 16.3156 15.2141 16.5 14.75 16.5H4.25C3.78587 16.5 3.34075 16.3156 3.01256 15.9874C2.68437 15.6592 2.5 15.2141 2.5 14.75V11.75C2.5 11.6837 2.52634 11.6201 2.57322 11.5732C2.62011 11.5263 2.6837 11.5 2.75 11.5C2.8163 11.5 2.87989 11.5263 2.92678 11.5732C2.97366 11.6201 3 11.6837 3 11.75V14.75C3 15.0815 3.1317 15.3995 3.36612 15.6339C3.60054 15.8683 3.91848 16 4.25 16H14.75C15.0815 16 15.3995 15.8683 15.6339 15.6339C15.8683 15.3995 16 15.0815 16 14.75V11.75C16 11.6837 16.0263 11.6201 16.0732 11.5732Z" fill="#0A0A0A" stroke="#0A0A0A"/>
</svg>
