<svg  viewBox="0 0 14 14" fill="none" xmlns="http://www.w3.org/2000/svg">
<path d="M12.1917 1.16663H1.80835C1.63817 1.16663 1.47496 1.23423 1.35463 1.35457C1.23429 1.4749 1.16669 1.63811 1.16669 1.80829V12.1916C1.16669 12.2759 1.18328 12.3593 1.21553 12.4372C1.24778 12.515 1.29504 12.5858 1.35463 12.6454C1.41421 12.7049 1.48495 12.7522 1.5628 12.7844C1.64065 12.8167 1.72409 12.8333 1.80835 12.8333H7.39669V8.31246H5.88002V6.56246H7.39669V5.24996C7.36527 4.94182 7.40165 4.63053 7.50327 4.33794C7.60489 4.04535 7.7693 3.77853 7.98496 3.5562C8.20062 3.33387 8.4623 3.16142 8.75167 3.05093C9.04103 2.94045 9.35106 2.89461 9.66002 2.91663C10.114 2.91383 10.5679 2.9372 11.0192 2.98663V4.56163H10.0917C9.35669 4.56163 9.21669 4.91163 9.21669 5.41913V6.54496H10.9667L10.7392 8.29496H9.21669V12.8333H12.1917C12.276 12.8333 12.3594 12.8167 12.4372 12.7844C12.5151 12.7522 12.5858 12.7049 12.6454 12.6454C12.705 12.5858 12.7523 12.515 12.7845 12.4372C12.8168 12.3593 12.8334 12.2759 12.8334 12.1916V1.80829C12.8334 1.72403 12.8168 1.64059 12.7845 1.56274C12.7523 1.48489 12.705 1.41415 12.6454 1.35457C12.5858 1.29498 12.5151 1.24772 12.4372 1.21547C12.3594 1.18322 12.276 1.16663 12.1917 1.16663Z" fill="#FC9D1B"/>
</svg>
