<svg  viewBox="0 0 14 14" fill="none" xmlns="http://www.w3.org/2000/svg">
<path d="M11.9408 1.16671H2.05916C1.94808 1.16516 1.83779 1.18552 1.73457 1.22661C1.63136 1.26769 1.53725 1.32871 1.45763 1.40617C1.378 1.48363 1.31441 1.57602 1.27049 1.67806C1.22657 1.7801 1.20318 1.88979 1.20166 2.00087V11.9992C1.20318 12.1103 1.22657 12.22 1.27049 12.322C1.31441 12.4241 1.378 12.5164 1.45763 12.5939C1.53725 12.6714 1.63136 12.7324 1.73457 12.7735C1.83779 12.8146 1.94808 12.8349 2.05916 12.8334H11.9408C12.0519 12.8349 12.1622 12.8146 12.2654 12.7735C12.3686 12.7324 12.4627 12.6714 12.5424 12.5939C12.622 12.5164 12.6856 12.4241 12.7295 12.322C12.7734 12.22 12.7968 12.1103 12.7983 11.9992V2.00087C12.7968 1.88979 12.7734 1.7801 12.7295 1.67806C12.6856 1.57602 12.622 1.48363 12.5424 1.40617C12.4627 1.32871 12.3686 1.26769 12.2654 1.22661C12.1622 1.18552 12.0519 1.16516 11.9408 1.16671ZM4.71916 10.9317H2.96916V5.68171H4.71916V10.9317ZM3.84416 4.94671C3.60281 4.94671 3.37135 4.85083 3.20069 4.68017C3.03003 4.50952 2.93416 4.27805 2.93416 4.03671C2.93416 3.79536 3.03003 3.5639 3.20069 3.39324C3.37135 3.22258 3.60281 3.12671 3.84416 3.12671C3.97232 3.11217 4.1021 3.12487 4.225 3.16397C4.34791 3.20307 4.46117 3.26769 4.55738 3.3536C4.65358 3.43951 4.73055 3.54477 4.78325 3.66249C4.83595 3.78021 4.8632 3.90773 4.8632 4.03671C4.8632 4.16568 4.83595 4.29321 4.78325 4.41093C4.73055 4.52864 4.65358 4.6339 4.55738 4.71981C4.46117 4.80572 4.34791 4.87034 4.225 4.90944C4.1021 4.94854 3.97232 4.96124 3.84416 4.94671ZM11.0308 10.9317H9.28083V8.11421C9.28083 7.40837 9.02999 6.94754 8.39416 6.94754C8.19738 6.94898 8.00577 7.0107 7.84515 7.12439C7.68453 7.23808 7.56261 7.39827 7.49583 7.58337C7.45018 7.72048 7.4304 7.86488 7.43749 8.00921V10.9259H5.68749C5.68749 10.9259 5.68749 6.15421 5.68749 5.67587H7.43749V6.41671C7.59647 6.14085 7.82769 5.91359 8.10625 5.75941C8.38481 5.60522 8.70016 5.52995 9.01833 5.54171C10.185 5.54171 11.0308 6.29421 11.0308 7.91004V10.9317Z" fill="#FC9D1B"/>
</svg>
