<svg width="101" height="25" viewBox="0 0 101 25" fill="none" xmlns="http://www.w3.org/2000/svg">
<path d="M17.1356 11.9572C17.1356 14.7006 16.3738 16.7694 14.8502 18.1638C13.3414 19.5431 11.2186 20.2326 8.48209 20.2326H4V4H8.97025C10.6271 4 12.0618 4.30312 13.2748 4.90942C14.5026 5.51571 15.4493 6.40991 16.1149 7.59206C16.7955 8.75906 17.1356 10.2141 17.1356 11.9572ZM13.652 12.0481C13.652 10.2445 13.2674 8.92591 12.4982 8.09227C11.7289 7.24355 10.6122 6.81911 9.14771 6.81911H7.35047V17.3908H8.79271C12.0323 17.3908 13.652 15.6099 13.652 12.0481ZM30.1653 14.0033C30.1653 16.0647 29.6329 17.6561 28.5679 18.7776C27.5176 19.8991 26.0828 20.46 24.2634 20.46C23.1391 20.46 22.1332 20.2099 21.2456 19.7097C20.3729 19.2095 19.685 18.4821 19.1821 17.5272C18.6793 16.5572 18.4276 15.3825 18.4276 14.0033C18.4276 11.942 18.9528 10.3582 20.003 9.25176C21.0534 8.14525 22.4956 7.59206 24.33 7.59206C25.4689 7.59206 26.4748 7.84221 27.3476 8.34235C28.2203 8.84249 28.9081 9.57003 29.4111 10.5248C29.914 11.4645 30.1653 12.624 30.1653 14.0033ZM21.8004 14.0033C21.8004 15.231 21.9927 16.1631 22.3772 16.7997C22.7767 17.421 23.4201 17.7318 24.3077 17.7318C25.1805 17.7318 25.809 17.421 26.1937 16.7997C26.5932 16.1631 26.7928 15.231 26.7928 14.0033C26.7928 12.7756 26.5932 11.8587 26.1937 11.2524C25.809 10.631 25.1731 10.3202 24.2854 10.3202C23.4127 10.3202 22.7767 10.631 22.3772 11.2524C21.9927 11.8587 21.8004 12.7756 21.8004 14.0033ZM38.7777 7.59206C40.0795 7.59206 41.1224 7.95587 41.9063 8.68335C42.6903 9.39568 43.0823 10.5476 43.0823 12.139V20.2326H39.7763V12.9802C39.7763 12.086 39.6209 11.4191 39.3103 10.9796C38.9996 10.5248 38.5042 10.2975 37.8236 10.2975C36.8178 10.2975 36.1299 10.6537 35.7601 11.366C35.3902 12.0633 35.2054 13.0712 35.2054 14.3898V20.2326H31.8993V7.81947H34.4287L34.8725 9.4109H35.0501C35.4346 8.77429 35.9597 8.3121 36.6254 8.02408C37.3059 7.73605 38.0234 7.59206 38.7777 7.59206ZM50.4761 7.59206C52.1477 7.59206 53.4715 8.0847 54.4478 9.06983C55.4241 10.0399 55.9122 11.4267 55.9122 13.2303V14.8672H48.1019C48.1316 15.8221 48.4051 16.5723 48.9229 17.118C49.4553 17.6636 50.1876 17.9364 51.1195 17.9364C51.9036 17.9364 52.6136 17.8607 53.2496 17.7091C53.8857 17.5424 54.5441 17.2923 55.2244 16.9588V19.5733C54.6328 19.8764 54.0041 20.0963 53.3384 20.2326C52.6875 20.3843 51.8962 20.46 50.9642 20.46C49.7513 20.46 48.6788 20.2326 47.7469 19.7779C46.815 19.3081 46.0827 18.6032 45.5502 17.6636C45.0177 16.7239 44.7514 15.5417 44.7514 14.117C44.7514 12.6619 44.9881 11.457 45.4615 10.5021C45.9496 9.53208 46.6228 8.8046 47.4806 8.31961C48.3386 7.83462 49.3371 7.59206 50.4761 7.59206ZM50.4982 10.002C49.8622 10.002 49.3298 10.2141 48.9007 10.6385C48.4866 11.0629 48.2425 11.7223 48.1684 12.6165H52.8059C52.7911 11.8587 52.5988 11.2372 52.229 10.7523C51.8592 10.252 51.2823 10.002 50.4982 10.002Z" fill="#01FB58"/>
<path d="M67.4312 15.7956C67.4312 17.2157 66.924 18.352 65.9098 19.2042C64.9103 20.0413 63.4844 20.46 61.6323 20.46C59.9714 20.46 58.4868 20.1386 57.1785 19.4957V16.3338C57.9282 16.6627 58.6999 16.9691 59.4936 17.2532C60.3022 17.5223 61.1032 17.6569 61.897 17.6569C62.7202 17.6569 63.3007 17.4999 63.6387 17.1859C63.9916 16.857 64.1679 16.4459 64.1679 15.9526C64.1679 15.5489 64.0284 15.2051 63.749 14.9209C63.4844 14.6369 63.1243 14.3753 62.6686 14.1361C62.213 13.882 61.6912 13.6129 61.1032 13.3288C60.7358 13.1494 60.3389 12.9401 59.9125 12.7009C59.4863 12.4468 59.0747 12.1402 58.6778 11.7814C58.2957 11.4077 57.9797 10.9591 57.7297 10.436C57.4799 9.91277 57.3549 9.28487 57.3549 8.55227C57.3549 7.11705 57.8326 6.00323 58.7881 5.21094C59.7436 4.40362 61.0445 4 62.6907 4C63.5139 4 64.2929 4.09718 65.0278 4.29155C65.7775 4.48585 66.5566 4.76244 67.365 5.12127L66.2847 7.76742C65.5645 7.46842 64.9176 7.23663 64.3443 7.07224C63.7711 6.90779 63.1832 6.82556 62.5804 6.82556C61.9485 6.82556 61.4634 6.97513 61.1252 7.27406C60.7872 7.57299 60.618 7.96179 60.618 8.44013C60.618 9.0082 60.8681 9.4567 61.3678 9.78567C61.8676 10.1146 62.61 10.5183 63.5947 10.9966C64.4032 11.3853 65.0866 11.7889 65.6452 12.2075C66.2185 12.6262 66.6595 13.1196 66.9681 13.6877C67.2768 14.2557 67.4312 14.9584 67.4312 15.7956ZM74.1072 17.7914C74.4747 17.7914 74.8271 17.754 75.1655 17.6793C75.5037 17.6045 75.8414 17.5149 76.1798 17.4102V19.8993C75.8268 20.0489 75.3861 20.1759 74.857 20.2806C74.3425 20.4001 73.7768 20.46 73.1593 20.46C72.4387 20.46 71.7919 20.3404 71.2189 20.1011C70.6599 19.8619 70.2119 19.4508 69.8742 18.8678C69.5504 18.2697 69.3889 17.4476 69.3889 16.401V10.5033H67.8233V9.0905L69.6316 7.96923L70.5794 5.39035H72.674V7.99164H76.0475V10.5033H72.674V16.401C72.674 16.8645 72.8063 17.2157 73.0708 17.455C73.3354 17.6793 73.6811 17.7914 74.1072 17.7914ZM82.5432 7.74495C84.1598 7.74495 85.3943 8.10378 86.2474 8.82135C87.1143 9.52397 87.548 10.6079 87.548 12.073V20.2357H85.2545L84.6149 18.5763H84.5275C84.0132 19.234 83.4693 19.7125 82.8957 20.0115C82.3229 20.3104 81.5358 20.46 80.5361 20.46C79.4634 20.46 78.5738 20.146 77.8688 19.5181C77.1631 18.8753 76.81 17.8961 76.81 16.5805C76.81 15.2798 77.2588 14.3229 78.1552 13.7101C79.0524 13.0821 80.3971 12.7383 82.1899 12.6785L84.2852 12.6113V12.073C84.2852 11.4301 84.1158 10.9592 83.7777 10.6603C83.4541 10.3613 82.9983 10.2118 82.4103 10.2118C81.823 10.2118 81.2487 10.3014 80.6903 10.4808C80.1319 10.6452 79.5736 10.8546 79.0152 11.1087L77.9349 8.84382C78.5814 8.50002 79.294 8.23087 80.0734 8.0365C80.8673 7.84214 81.6901 7.74495 82.5432 7.74495ZM83.0058 14.607C81.9476 14.6369 81.2122 14.8313 80.8012 15.19C80.3895 15.5489 80.1836 16.0198 80.1836 16.6029C80.1836 17.1112 80.3302 17.4775 80.625 17.7016C80.919 17.9109 81.3011 18.0156 81.7713 18.0156C82.4771 18.0156 83.0727 17.8064 83.5566 17.3877C84.0421 16.9543 84.2852 16.3488 84.2852 15.5713V14.5622L83.0058 14.607ZM94.99 17.7914C95.3569 17.7914 95.7102 17.754 96.0482 17.6793C96.3863 17.6045 96.7236 17.5149 97.0624 17.4102V19.8993C96.7092 20.0489 96.2685 20.1759 95.7398 20.2806C95.2247 20.4001 94.6595 20.46 94.0419 20.46C93.3209 20.46 92.6744 20.3404 92.1016 20.1011C91.5433 19.8619 91.0943 19.4508 90.757 18.8678C90.4326 18.2697 90.2715 17.4476 90.2715 16.401V10.5033H88.7058V9.0905L90.5139 7.96923L91.462 5.39035H93.5564V7.99164H96.9302V10.5033H93.5564V16.401C93.5564 16.8645 93.6886 17.2157 93.953 17.455C94.2181 17.6793 94.5638 17.7914 94.99 17.7914Z" fill="#0B97F8"/>
</svg>
