<svg width="19" height="19" viewBox="0 0 19 19" fill="none" xmlns="http://www.w3.org/2000/svg">
<path d="M4.83333 15.5H14.1667C14.5203 15.5 14.8594 15.3595 15.1095 15.1095C15.3595 14.8594 15.5 14.5203 15.5 14.1667V6.83334C15.5005 6.7456 15.4837 6.65863 15.4505 6.5774C15.4173 6.49618 15.3684 6.4223 15.3067 6.36001L12.64 3.69334C12.5777 3.63156 12.5038 3.58267 12.4226 3.5495C12.3414 3.51632 12.2544 3.4995 12.1667 3.50001H4.83333C4.47971 3.50001 4.14057 3.64049 3.89052 3.89053C3.64048 4.14058 3.5 4.47972 3.5 4.83334V14.1667C3.5 14.5203 3.64048 14.8594 3.89052 15.1095C4.14057 15.3595 4.47971 15.5 4.83333 15.5ZM11.5 14.1667H7.5V10.8333H11.5V14.1667ZM10.1667 6.16668H8.83333V4.83334H10.1667V6.16668ZM4.83333 4.83334H6.16666V7.50001H11.5V4.83334H11.8933L14.1667 7.10667V14.1667H12.8333V10.8333C12.8333 10.4797 12.6928 10.1406 12.4428 9.89053C12.1928 9.64048 11.8536 9.50001 11.5 9.50001H7.5C7.14637 9.50001 6.80724 9.64048 6.55719 9.89053C6.30714 10.1406 6.16666 10.4797 6.16666 10.8333V14.1667H4.83333V4.83334Z" fill="#0A0A0A"/>
</svg>
