<svg  viewBox="0 0 14 14" fill="none" xmlns="http://www.w3.org/2000/svg">
<path d="M12.8334 3.38333C12.3949 3.57356 11.9312 3.6993 11.4567 3.75667C11.9573 3.4576 12.3324 2.98712 12.5125 2.4325C12.0421 2.71254 11.5271 2.90984 10.99 3.01583C10.631 2.6265 10.1529 2.36734 9.63074 2.279C9.10857 2.19065 8.57184 2.27813 8.10473 2.52769C7.63763 2.77726 7.26656 3.17481 7.04974 3.65799C6.83292 4.14117 6.78261 4.68264 6.90669 5.1975C5.95552 5.14939 5.02511 4.90172 4.1759 4.47059C3.32669 4.03945 2.57768 3.43449 1.97752 2.695C1.76702 3.0626 1.65641 3.4789 1.65669 3.9025C1.65594 4.29589 1.75248 4.68336 1.93771 5.03041C2.12294 5.37747 2.39111 5.67333 2.71835 5.89167C2.33801 5.88132 1.96579 5.77926 1.63335 5.59417V5.62333C1.6362 6.17452 1.82935 6.7078 2.18012 7.13298C2.53089 7.55816 3.01775 7.84912 3.55835 7.95667C3.35025 8.02 3.1342 8.05339 2.91669 8.05583C2.76612 8.05407 2.61593 8.04042 2.46752 8.015C2.62147 8.48914 2.91938 8.9035 3.31981 9.20043C3.72024 9.49735 4.20327 9.66207 4.70169 9.67167C3.86006 10.3339 2.82095 10.6953 1.75002 10.6983C1.55503 10.699 1.3602 10.6873 1.16669 10.6633C2.2601 11.3693 3.53433 11.7441 4.83585 11.7425C5.73401 11.7518 6.62502 11.5821 7.45684 11.2432C8.28866 10.9043 9.04462 10.4031 9.68056 9.76879C10.3165 9.13448 10.8197 8.37981 11.1607 7.54886C11.5017 6.71791 11.6737 5.82734 11.6667 4.92917C11.6667 4.83 11.6667 4.725 11.6667 4.62C12.1244 4.27864 12.5192 3.86016 12.8334 3.38333Z" fill="#FC9D1B"/>
</svg>
