<svg  viewBox="0 0 14 14" fill="none" xmlns="http://www.w3.org/2000/svg">
<path d="M10.115 3.18496C9.97657 3.18496 9.84124 3.22601 9.72612 3.30293C9.61101 3.37985 9.52129 3.48917 9.4683 3.61708C9.41532 3.74499 9.40146 3.88574 9.42847 4.02152C9.45548 4.15731 9.52215 4.28204 9.62005 4.37993C9.71794 4.47783 9.84267 4.5445 9.97846 4.57151C10.1142 4.59852 10.255 4.58466 10.3829 4.53167C10.5108 4.47869 10.6201 4.38897 10.697 4.27386C10.774 4.15874 10.815 4.02341 10.815 3.88496C10.815 3.69931 10.7413 3.52126 10.61 3.38998C10.4787 3.25871 10.3007 3.18496 10.115 3.18496ZM12.7984 4.59663C12.787 4.11263 12.6964 3.63378 12.53 3.17913C12.3817 2.79012 12.1508 2.43787 11.8534 2.14663C11.5645 1.84762 11.2114 1.61823 10.8209 1.47579C10.3674 1.30439 9.88801 1.21167 9.40335 1.20163C8.78502 1.16663 8.58669 1.16663 7.00002 1.16663C5.41335 1.16663 5.21502 1.16663 4.59669 1.20163C4.11203 1.21167 3.63264 1.30439 3.17919 1.47579C2.78933 1.61967 2.43657 1.84887 2.14669 2.14663C1.84769 2.43548 1.61829 2.78855 1.47585 3.17913C1.30445 3.63258 1.21173 4.11196 1.20169 4.59663C1.16669 5.21496 1.16669 5.41329 1.16669 6.99996C1.16669 8.58663 1.16669 8.78496 1.20169 9.40329C1.21173 9.88795 1.30445 10.3673 1.47585 10.8208C1.61829 11.2114 1.84769 11.5644 2.14669 11.8533C2.43657 12.151 2.78933 12.3802 3.17919 12.5241C3.63264 12.6955 4.11203 12.7883 4.59669 12.7983C5.21502 12.8333 5.41335 12.8333 7.00002 12.8333C8.58669 12.8333 8.78502 12.8333 9.40335 12.7983C9.88801 12.7883 10.3674 12.6955 10.8209 12.5241C11.2114 12.3817 11.5645 12.1523 11.8534 11.8533C12.1522 11.5631 12.3832 11.2106 12.53 10.8208C12.6964 10.3661 12.787 9.88729 12.7984 9.40329C12.7984 8.78496 12.8334 8.58663 12.8334 6.99996C12.8334 5.41329 12.8334 5.21496 12.7984 4.59663ZM11.7484 9.33329C11.7441 9.70358 11.677 10.0705 11.55 10.4183C11.4569 10.6722 11.3073 10.9015 11.1125 11.0891C10.9233 11.2819 10.6944 11.4312 10.4417 11.5266C10.0938 11.6536 9.72697 11.7207 9.35669 11.725C8.77335 11.7541 8.55752 11.76 7.02335 11.76C5.48919 11.76 5.27335 11.76 4.69002 11.725C4.30554 11.7322 3.9227 11.673 3.55835 11.55C3.31673 11.4497 3.09831 11.3008 2.91669 11.1125C2.72307 10.9251 2.57535 10.6955 2.48502 10.4416C2.3426 10.0888 2.26361 9.71359 2.25169 9.33329C2.25169 8.74996 2.21669 8.53413 2.21669 6.99996C2.21669 5.46579 2.21669 5.24996 2.25169 4.66663C2.2543 4.28807 2.32341 3.91293 2.45585 3.55829C2.55855 3.31207 2.71617 3.09259 2.91669 2.91663C3.09391 2.71606 3.31294 2.55677 3.55835 2.44996C3.91392 2.32165 4.28869 2.25459 4.66669 2.25163C5.25002 2.25163 5.46585 2.21663 7.00002 2.21663C8.53419 2.21663 8.75002 2.21663 9.33335 2.25163C9.70364 2.25587 10.0705 2.32294 10.4184 2.44996C10.6834 2.54834 10.9214 2.70829 11.1125 2.91663C11.3037 3.09581 11.453 3.31489 11.55 3.55829C11.6797 3.9135 11.7468 4.2885 11.7484 4.66663C11.7775 5.24996 11.7834 5.46579 11.7834 6.99996C11.7834 8.53413 11.7775 8.74996 11.7484 9.33329ZM7.00002 4.00746C6.40841 4.00861 5.83041 4.1851 5.33907 4.51462C4.84772 4.84414 4.46507 5.31191 4.23947 5.85882C4.01387 6.40572 3.95544 7.00723 4.07157 7.58733C4.18769 8.16744 4.47316 8.7001 4.8919 9.11803C5.31064 9.53596 5.84386 9.82038 6.42419 9.93538C7.00452 10.0504 7.60591 9.99077 8.15238 9.76411C8.69884 9.53744 9.16587 9.15388 9.49443 8.6619C9.82299 8.16991 9.99835 7.59157 9.99835 6.99996C9.99912 6.60627 9.92206 6.21631 9.77158 5.85252C9.6211 5.48872 9.40018 5.15826 9.12153 4.88016C8.84288 4.60205 8.51199 4.38177 8.1479 4.232C7.78381 4.08223 7.39371 4.00592 7.00002 4.00746ZM7.00002 8.94246C6.61583 8.94246 6.24027 8.82853 5.92083 8.61509C5.60138 8.40164 5.35241 8.09827 5.20538 7.74332C5.05836 7.38838 5.01989 6.9978 5.09484 6.621C5.1698 6.24419 5.3548 5.89807 5.62647 5.6264C5.89813 5.35474 6.24425 5.16974 6.62106 5.09478C6.99787 5.01983 7.38844 5.0583 7.74338 5.20532C8.09833 5.35235 8.40171 5.60132 8.61515 5.92076C8.82859 6.24021 8.94252 6.61577 8.94252 6.99996C8.94252 7.25505 8.89228 7.50765 8.79466 7.74332C8.69704 7.979 8.55395 8.19314 8.37358 8.37351C8.1932 8.55389 7.97906 8.69698 7.74338 8.7946C7.50771 8.89221 7.25511 8.94246 7.00002 8.94246Z" fill="#FC9D1B"/>
</svg>
