<svg width="19" height="19" viewBox="0 0 19 19" fill="none" xmlns="http://www.w3.org/2000/svg">
<path d="M11.5505 12.4127L11.7857 12.5211L11.9489 12.32C12.197 12.0141 12.5098 11.767 12.8649 11.5964C13.2196 11.4259 13.6076 11.3361 14.0012 11.3333C14.5282 11.3336 15.0433 11.4899 15.4815 11.7827C15.92 12.0758 16.2618 12.4922 16.4637 12.9795C16.6655 13.4668 16.7183 14.003 16.6154 14.5202C16.5125 15.0375 16.2585 15.5127 15.8856 15.8856C15.5127 16.2586 15.0375 16.5125 14.5202 16.6154C14.0029 16.7183 13.4668 16.6655 12.9795 16.4637C12.4922 16.2618 12.0758 15.92 11.7827 15.4815C11.4901 15.0436 11.3337 14.5288 11.3333 14.0021C11.3355 13.8432 11.3511 13.6847 11.3802 13.5285L11.4277 13.2732L11.1918 13.1647L7.23185 11.3422L7.02347 11.2463L6.85945 11.4067C6.48417 11.7736 6.00895 12.0217 5.49332 12.1197C4.97769 12.2178 4.4446 12.1615 3.96082 11.9579C3.47704 11.7543 3.06409 11.4125 2.77372 10.9753C2.48334 10.5381 2.32845 10.0249 2.32845 9.49999C2.32845 8.97513 2.48334 8.46193 2.77372 8.0247C3.06409 7.58747 3.47704 7.24566 3.96082 7.04208C4.4446 6.83851 4.97769 6.78222 5.49332 6.88028C6.00895 6.97834 6.48417 7.22638 6.85945 7.59333L7.02347 7.7537L7.23185 7.6578L11.1918 5.8353L11.4277 5.72676L11.3802 5.47153C11.3511 5.31486 11.3354 5.15599 11.3333 4.99665C11.3284 4.36833 11.5455 3.75844 11.9463 3.27456C12.3473 2.79051 12.9064 2.46367 13.5249 2.35172C14.1435 2.23976 14.7816 2.3499 15.3269 2.66268C15.8721 2.97546 16.2893 3.47079 16.5048 4.06124C16.7204 4.65169 16.7205 5.29931 16.505 5.88979C16.2896 6.48028 15.8724 6.97569 15.3273 7.28857C14.7821 7.60145 14.144 7.7117 13.5254 7.59986C12.9069 7.48802 12.3477 7.16128 11.9466 6.6773L11.7832 6.48004L11.5505 6.58725L7.72549 8.34975L7.45602 8.47393L7.54813 8.75597C7.70601 9.23942 7.70601 9.76056 7.54813 10.244L7.45602 10.5261L7.72549 10.6502L11.5505 12.4127ZM15.0185 3.47563C14.717 3.27418 14.3626 3.16666 14 3.16666C13.5138 3.16666 13.0474 3.35982 12.7036 3.70363C12.3598 4.04745 12.1667 4.51376 12.1667 4.99999C12.1667 5.36259 12.2742 5.71705 12.4756 6.01854C12.6771 6.32003 12.9634 6.55501 13.2984 6.69377C13.6334 6.83253 14.002 6.86884 14.3577 6.7981C14.7133 6.72736 15.04 6.55275 15.2964 6.29636C15.5527 6.03996 15.7274 5.71329 15.7981 5.35766C15.8688 5.00203 15.8325 4.63341 15.6938 4.29841C15.555 3.96341 15.32 3.67708 15.0185 3.47563ZM3.98144 11.0244C4.28294 11.2258 4.63739 11.3333 4.99999 11.3333C5.48622 11.3333 5.95254 11.1402 6.29635 10.7964C6.64017 10.4525 6.83332 9.98622 6.83332 9.49999C6.83332 9.1374 6.7258 8.78294 6.52435 8.48145C6.3229 8.17996 6.03657 7.94498 5.70158 7.80622C5.36658 7.66745 4.99796 7.63115 4.64232 7.70189C4.28669 7.77263 3.96002 7.94724 3.70363 8.20363C3.44723 8.46003 3.27262 8.7867 3.20188 9.14233C3.13114 9.49796 3.16745 9.86658 3.30621 10.2016C3.44497 10.5366 3.67996 10.8229 3.98144 11.0244ZM12.9814 15.5244C13.2829 15.7258 13.6374 15.8333 14 15.8333C14.4862 15.8333 14.9525 15.6402 15.2964 15.2964C15.6402 14.9525 15.8333 14.4862 15.8333 14C15.8333 13.6374 15.7258 13.2829 15.5244 12.9814C15.3229 12.68 15.0366 12.445 14.7016 12.3062C14.3666 12.1675 13.998 12.1311 13.6423 12.2019C13.2867 12.2726 12.96 12.4472 12.7036 12.7036C12.4472 12.96 12.2726 13.2867 12.2019 13.6423C12.1311 13.998 12.1675 14.3666 12.3062 14.7016C12.445 15.0366 12.68 15.3229 12.9814 15.5244Z" fill="#0A0A0A" stroke="#0A0A0A" stroke-width="0.666667"/>
</svg>
