<svg  viewBox="0 0 24 24" fill="none" xmlns="http://www.w3.org/2000/svg">
<path d="M21.5097 10.0019L21.5 10.0504V10.0999C21.5 10.1178 21.4953 10.1316 21.4909 10.1394C21.4888 10.1429 21.4869 10.1452 21.4853 10.1468C21.4847 10.1474 21.4838 10.1481 21.4827 10.149C21.4812 10.1501 21.4792 10.1513 21.4764 10.1527L21.4067 10.1876L21.3508 10.242L17.2508 14.242L17.0619 14.4264L17.1075 14.6863L18.1068 20.3821C18.1069 20.3828 18.107 20.3834 18.1071 20.384C18.1571 20.6899 17.9688 20.9331 17.7413 20.9999H17.741H17.7406H17.7403H17.7399H17.7395H17.7392H17.7388H17.7384H17.7381H17.7377H17.7374H17.737H17.7367H17.7363H17.736H17.7356H17.7353H17.7349H17.7346H17.7342H17.7339H17.7335H17.7332H17.7328H17.7325H17.7321H17.7318H17.7315H17.7311H17.7308H17.7304H17.7301H17.7298H17.7294H17.7291H17.7288H17.7284H17.7281H17.7278H17.7275H17.7271H17.7268H17.7265H17.7261H17.7258H17.7255H17.7252H17.7248H17.7245H17.7242H17.7239H17.7236H17.7232H17.7229H17.7226H17.7223H17.722H17.7216H17.7213H17.721H17.7207H17.7204H17.7201H17.7198H17.7195H17.7191H17.7188H17.7185H17.7182H17.7179H17.7176H17.7173H17.717H17.7167H17.7164H17.7161H17.7157H17.7154H17.7151H17.7148H17.7145H17.7142H17.7139H17.7136H17.7133H17.713H17.7127H17.7124H17.7121H17.7118H17.7115H17.7112H17.7109H17.7106H17.7103H17.71H17.7097H17.7094H17.7091H17.7088H17.7085H17.7082H17.7079H17.7076H17.7073H17.7071H17.7068H17.7065H17.7062H17.7059H17.7056H17.7053H17.705H17.7047H17.7044H17.7041H17.7038H17.7035H17.7032H17.7029H17.7026H17.7023H17.7021H17.7018H17.7015H17.7012H17.7009H17.7006H17.7003H17.7H17.6997H17.6994H17.6991H17.6988H17.6985H17.6982H17.6979H17.6977H17.6974H17.6971H17.6968H17.6965H17.6962H17.6959H17.6956H17.6953H17.695H17.6947H17.6944H17.6941H17.6938H17.6935H17.6932H17.6929H17.6927H17.6924H17.6921H17.6918H17.6915H17.6912H17.6909H17.6906H17.6903H17.69H17.6897H17.6894H17.6891H17.6888H17.6885H17.6882H17.6879H17.6876H17.6873H17.687H17.6867H17.6864H17.6861H17.6858H17.6855H17.6852H17.6849H17.6846H17.6843H17.6839H17.6836H17.6833H17.683H17.6827H17.6824H17.6821H17.6818H17.6815H17.6812H17.6809H17.6805H17.6802H17.6799H17.6796H17.6793H17.679H17.6787H17.6784H17.678H17.6777H17.6774H17.6771H17.6768H17.6764H17.6761H17.6758H17.6755H17.6752H17.6748H17.6745H17.6742H17.6739H17.6735H17.6732H17.6729H17.6725H17.6722H17.6719H17.6716H17.6712H17.6709H17.6706H17.6702H17.6699H17.6695H17.6692H17.6689H17.6685H17.6682H17.6679H17.6675H17.6672H17.6668H17.6665H17.6661H17.6658H17.6654H17.6651H17.6647H17.6644H17.664H17.6637H17.6633H17.663H17.6626H17.6623H17.6619H17.6616H17.6612H17.6608H17.6605H17.6601H17.6597H17.6594H17.659H17.6586H17.6583H17.6579H17.6575H17.6572H17.6568H17.6564H17.656H17.6557H17.6553H17.6549H17.6545H17.6541H17.6537H17.6534H17.653H17.6526H17.6522H17.6518H17.6514H17.651H17.6506H17.6502H17.6498H17.6494H17.649H17.6486H17.6482H17.6478H17.6474H17.647H17.6466H17.6462H17.6458H17.6454H17.645H17.6446H17.6441H17.6437H17.6433H17.6429H17.6425H17.642H17.6416H17.6412H17.6407H17.6403H17.6399H17.6394H17.639H17.6386H17.6381H17.6377H17.6373H17.6368H17.6364H17.6359H17.6355H17.635H17.6346H17.6341H17.6337H17.6332H17.6327H17.6323H17.6318H17.6314H17.6309H17.6304H17.63H17.6295H17.629H17.6285H17.6281H17.6276H17.6271H17.6266H17.6261H17.6257H17.6252H17.6247H17.6242H17.6237H17.6232H17.6227H17.6222H17.6217H17.6212H17.6207H17.6202H17.6197H17.6192H17.6187H17.6181H17.6176H17.6171H17.6166H17.6161H17.6155H17.615H17.6145H17.614H17.6134H17.6129H17.6124H17.6118H17.6113H17.6107H17.6102H17.6096H17.6091H17.6085H17.608H17.6074H17.6069H17.6063H17.6057H17.6052H17.6046H17.604H17.6035H17.6029H17.6023H17.6017H17.6012H17.6006H17.6C17.5485 20.9999 17.5067 20.9999 17.4677 20.9986C17.4403 20.9978 17.4188 20.9964 17.4019 20.9947L17.4004 20.9932L17.3339 20.958L12.2339 18.258L12 18.1342L11.7661 18.258L6.66606 20.958L6.65423 20.9643L6.64275 20.9712C6.42077 21.1044 6.12198 21.0468 5.93977 20.7605C5.90888 20.6906 5.90111 20.6115 5.90012 20.4428L6.89248 14.7863L6.93809 14.5264L6.74916 14.342L2.65169 10.3445C2.44882 10.1399 2.44944 9.85761 2.65355 9.65349L2.71093 9.59612L2.74721 9.52355C2.74738 9.52321 2.74754 9.5229 2.74768 9.52262C2.74796 9.52248 2.74827 9.52232 2.74861 9.52215C2.75963 9.51664 2.80232 9.49994 2.9 9.49994H2.93492L2.96949 9.49509L8.66949 8.69509L8.93462 8.65787L9.05063 8.41659L11.5394 3.23992C11.7216 2.95318 12.0206 2.89541 12.2428 3.02868L12.2592 3.03856L12.2764 3.04715C12.3462 3.08207 12.3714 3.10345 12.3839 3.11599C12.3965 3.12853 12.4179 3.1537 12.4528 3.22355L15.0528 8.42355L15.1703 8.65856L15.4305 8.69509L21.1305 9.49509L21.1651 9.49994H21.2C21.2421 9.49994 21.3306 9.529 21.4165 9.65078C21.5019 9.77176 21.5282 9.90931 21.5097 10.0019Z" fill="#FC9D1B" stroke="black"  />
</svg>
