<svg id="Layer_1" data-name="Layer 1" xmlns="http://www.w3.org/2000/svg" viewBox="0 0 338.57 43.4"><defs><style>.cls-1{fill:#4170b6;}</style></defs><title>ardevora_aw_June2017</title><path class="cls-1" d="M198.89,381.65h13.19a18.15,18.15,0,0,1,6.69,1.08,12.93,12.93,0,0,1,4.43,2.79,10.37,10.37,0,0,1,2.48,3.87,13.6,13.6,0,0,1-1.08,11.39,11.1,11.1,0,0,1-5.76,4.52l9.66,17.64H221.8L212.95,406h-8.29v16.9h-5.76ZM212.57,401q3.9,0,5.85-1.92a6.89,6.89,0,0,0,2-5.14,6.74,6.74,0,0,0-2.11-5.29,8.4,8.4,0,0,0-5.82-1.89h-7.8V401Z" transform="translate(-150.69 -380.6)"/><path class="cls-1" d="M238.86,381.65h13.8a32,32,0,0,1,9,1.21,18.77,18.77,0,0,1,7.09,3.78,17.52,17.52,0,0,1,4.64,6.47,23.49,23.49,0,0,1,1.67,9.29,22.75,22.75,0,0,1-1.67,9.07,17.6,17.6,0,0,1-4.64,6.44,19.1,19.1,0,0,1-7.12,3.81,31.46,31.46,0,0,1-9,1.24H238.86Zm13.62,36q7.74,0,12-3.81t4.3-11.3q0-7.55-4.15-11.55t-12.38-4h-7.49v30.64Z" transform="translate(-150.69 -380.6)"/><polygon class="cls-1" points="134.69 1.05 160.69 1.05 160.69 6.32 140.63 6.32 140.63 18.32 155.74 18.32 155.74 23.65 140.63 23.65 140.63 37.02 162.17 37.02 162.17 42.34 134.69 42.34 134.69 1.05"/><path class="cls-1" d="M382.24,424a20.25,20.25,0,0,1-8.29-1.7,21.14,21.14,0,0,1-6.69-4.64,21.36,21.36,0,0,1-4.46-6.9,22.38,22.38,0,0,1-1.61-8.48,22.13,22.13,0,0,1,1.61-8.45,21.72,21.72,0,0,1,4.43-6.87,21,21,0,0,1,23.34-4.64,21,21,0,0,1,6.72,4.64,21.45,21.45,0,0,1,4.46,6.87,22.08,22.08,0,0,1,1.61,8.45,22.34,22.34,0,0,1-1.61,8.48,21.35,21.35,0,0,1-4.46,6.9,21,21,0,0,1-6.72,4.64,20.47,20.47,0,0,1-8.33,1.7m0-5.57a14.09,14.09,0,0,0,10.86-4.83,15.91,15.91,0,0,0,3-5.17,18.32,18.32,0,0,0,1.05-6.22,18.52,18.52,0,0,0-1.05-6.28,15.94,15.94,0,0,0-3-5.17,13.9,13.9,0,0,0-4.7-3.5,14.55,14.55,0,0,0-6.16-1.27,14.35,14.35,0,0,0-6.13,1.27,14,14,0,0,0-4.67,3.5,15.94,15.94,0,0,0-3,5.17,18.58,18.58,0,0,0-1.05,6.28,18.38,18.38,0,0,0,1.05,6.22,15.91,15.91,0,0,0,3,5.17,14.32,14.32,0,0,0,4.67,3.53,14,14,0,0,0,6.13,1.3" transform="translate(-150.69 -380.6)"/><path class="cls-1" d="M413.83,381.65H427a18.14,18.14,0,0,1,6.68,1.08,12.9,12.9,0,0,1,4.43,2.79,10.34,10.34,0,0,1,2.48,3.87,13.6,13.6,0,0,1-1.08,11.39,11.08,11.08,0,0,1-5.76,4.52l9.66,17.64h-6.69L427.88,406h-8.29v16.9h-5.76ZM427.51,401q3.9,0,5.85-1.92a6.88,6.88,0,0,0,2-5.14,6.74,6.74,0,0,0-2.11-5.29,8.4,8.4,0,0,0-5.82-1.89h-7.8V401Z" transform="translate(-150.69 -380.6)"/><path class="cls-1" d="M150.69,423.17l19.6-42.51,19.77,42.28h-6.42l-.11-.23c-.12-.26-11-23.58-13.22-28.35l-1.09,2.31c-2,4.32-5.71,12.18-8.21,17.73l11.75-3.6,2.21,5.42Z" transform="translate(-150.69 -380.6)"/><path class="cls-1" d="M357.94,381.65l-19.51,42.28-19.77-42.28h6.42l.11.23c.12.26,11,23.58,13.22,28.35l1.09-2.31c2-4.32,9.73-20.82,12.19-26.26Z" transform="translate(-150.69 -380.6)"/><path class="cls-1" d="M465,416.23l2.21-5.42,11.75,3.6c-2.5-5.55-6.19-13.41-8.21-17.73l-1.09-2.31c-2.21,4.77-13.1,28.1-13.22,28.35l-.11.23h-6.41l19.77-42.28,19.6,42.51Z" transform="translate(-150.69 -380.6)"/></svg>