<svg width="30" height="30" viewBox="0 0 30 30" fill="none" xmlns="http://www.w3.org/2000/svg">
<rect width="30" height="30" rx="15" fill="black"/>
<path d="M15.9156 14.795C15.9156 16.4482 15.4565 17.6949 14.5384 18.5352C13.6292 19.3663 12.35 19.7819 10.7009 19.7819H8V10H10.9951C11.9935 10 12.8581 10.1827 13.589 10.548C14.3289 10.9134 14.8994 11.4522 15.3005 12.1646C15.7106 12.8678 15.9156 13.7446 15.9156 14.795ZM13.8164 14.8498C13.8164 13.763 13.5846 12.9684 13.121 12.466C12.6575 11.9546 11.9845 11.6988 11.1021 11.6988H10.019V18.0694H10.8881C12.8403 18.0694 13.8164 16.9962 13.8164 14.8498Z" fill="#01FB58"/>
<path d="M22.7506 17.1081C22.7506 17.9639 22.445 18.6486 21.8338 19.1621C21.2315 19.6666 20.3723 19.9189 19.2562 19.9189C18.2553 19.9189 17.3607 19.7252 16.5723 19.3378V17.4324C17.024 17.6306 17.4891 17.8152 17.9674 17.9864C18.4546 18.1486 18.9373 18.2297 19.4156 18.2297C19.9117 18.2297 20.2616 18.1351 20.4652 17.9459C20.6779 17.7477 20.7841 17.4999 20.7841 17.2027C20.7841 16.9594 20.7 16.7522 20.5317 16.581C20.3723 16.4098 20.1553 16.2523 19.8807 16.1081C19.6061 15.9549 19.2916 15.7928 18.9373 15.6216C18.7159 15.5135 18.4767 15.3874 18.2198 15.2432C17.963 15.0901 17.7149 14.9054 17.4758 14.6891C17.2455 14.4639 17.0551 14.1936 16.9044 13.8784C16.7539 13.5631 16.6786 13.1847 16.6786 12.7432C16.6786 11.8784 16.9665 11.2072 17.5422 10.7297C18.118 10.2432 18.9019 10 19.8939 10C20.39 10 20.8594 10.0586 21.3023 10.1757C21.7541 10.2928 22.2236 10.4595 22.7107 10.6757L22.0597 12.2703C21.6257 12.0901 21.2359 11.9504 20.8904 11.8514C20.545 11.7523 20.1907 11.7027 19.8275 11.7027C19.4467 11.7027 19.1544 11.7928 18.9506 11.973C18.7469 12.1531 18.645 12.3874 18.645 12.6756C18.645 13.018 18.7956 13.2882 19.0967 13.4865C19.3979 13.6847 19.8453 13.9279 20.4387 14.2162C20.9259 14.4504 21.3378 14.6936 21.6744 14.9459C22.0198 15.1982 22.2856 15.4955 22.4715 15.8378C22.6576 16.1801 22.7506 16.6036 22.7506 17.1081Z" fill="#0B97F8"/>
</svg>
