<?xml version="1.0" encoding="utf-8"?>
<!-- Generator: Adobe Illustrator 26.0.3, SVG Export Plug-In . SVG Version: 6.00 Build 0)  -->
<svg version="1.1" id="Layer_1" xmlns="http://www.w3.org/2000/svg" xmlns:xlink="http://www.w3.org/1999/xlink" x="0px" y="0px"
	 viewBox="0 0 511 570" style="enable-background:new 0 0 511 570;" xml:space="preserve">
<style type="text/css">
	.st0{fill:#F4F4F4;}
	.st1{fill:#437CE2;}
	.st2{fill:none;stroke:#FFFFFF;stroke-width:2.25;stroke-miterlimit:10;}
	.st3{fill:#021530;}
	.st4{fill:none;stroke:#021530;stroke-miterlimit:10;}
	.st5{fill:none;stroke:#021530;stroke-width:2.25;stroke-miterlimit:10;}
	.st6{fill:#FFFFFF;stroke:#F4F4F4;stroke-width:1.04;stroke-miterlimit:10;}
	.st7{fill:none;stroke:#021530;stroke-width:1.52;stroke-miterlimit:10;}
	.st8{fill:none;stroke:#FFFFFF;stroke-width:2;stroke-miterlimit:10;}
	.st9{fill:#437CE2;stroke:#FFFFFF;stroke-width:2;stroke-miterlimit:10;}
</style>
<path class="st0" d="M433.5,157H1v412.2h432.5V157z"/>
<path class="st1" d="M47.9,184.5H20.3V212h27.5V184.5z"/>
<path class="st2" d="M25.5,199.4l5.1,5.1l11.9-11.9"/>
<path class="st3" d="M84.6,194.9c-0.1-0.3-0.2-0.6-0.3-0.9c-0.2-0.3-0.4-0.6-0.6-0.9c-0.3-0.3-0.6-0.5-1-0.6c-0.8-0.3-1.8-0.3-2.6,0
	c-0.3,0.1-0.7,0.3-1,0.6c-0.3,0.2-0.5,0.5-0.7,0.8c-0.2,0.3-0.2,0.7-0.2,1c0,0.6,0.2,1.1,0.6,1.5c0.4,0.4,1,0.7,1.6,0.8l2.2,0.5
	c1.1,0.2,2.1,0.7,2.8,1.4c0.3,0.4,0.6,0.8,0.8,1.2c0.2,0.5,0.3,0.9,0.2,1.4c0,0.6-0.1,1.1-0.4,1.6c-0.2,0.5-0.6,1-1,1.4
	c-0.5,0.4-1,0.7-1.6,0.9c-1.4,0.5-3,0.5-4.4,0c-0.6-0.2-1.2-0.6-1.6-1c-0.4-0.4-0.8-0.9-1.1-1.4c-0.2-0.5-0.4-1-0.5-1.6l1.7-0.5
	c0,0.4,0.2,0.9,0.3,1.3c0.2,0.4,0.4,0.8,0.7,1.1c0.3,0.3,0.7,0.6,1.2,0.7c0.5,0.2,1,0.3,1.6,0.3c0.9,0.1,1.8-0.2,2.4-0.7
	c0.3-0.2,0.5-0.5,0.6-0.8c0.1-0.3,0.2-0.7,0.2-1c0-0.6-0.2-1.2-0.6-1.6c-0.5-0.5-1.1-0.8-1.8-0.9L80,199c-0.5-0.1-1-0.3-1.4-0.5
	c-0.4-0.2-0.8-0.5-1.2-0.8c-0.3-0.3-0.6-0.7-0.7-1.2c-0.2-0.5-0.3-1-0.3-1.5c0-0.6,0.1-1.1,0.4-1.7c0.2-0.5,0.6-1,1-1.4
	c0.4-0.4,1-0.7,1.5-0.9c0.6-0.2,1.2-0.4,1.9-0.3c0.7,0,1.4,0.1,2.1,0.3c0.5,0.2,1,0.5,1.5,0.9c0.4,0.3,0.7,0.7,0.9,1.2
	c0.2,0.4,0.4,0.9,0.5,1.3L84.6,194.9z"/>
<path class="st3" d="M89.3,205.8V191h8.9v1.6H91v5h6.5v1.6H91v5h7.1v1.6H89.3z"/>
<path class="st3" d="M107.2,206.1c-0.9,0-1.9-0.2-2.7-0.5c-0.9-0.3-1.7-0.9-2.4-1.6c-0.7-0.7-1.2-1.5-1.6-2.4
	c-0.4-1-0.6-2.2-0.6-3.3c0-1.1,0.2-2.3,0.6-3.3c0.4-0.9,0.9-1.7,1.7-2.4c0.7-0.6,1.5-1.2,2.3-1.5c0.9-0.3,1.8-0.5,2.7-0.5
	c0.8,0,1.6,0.1,2.3,0.3c0.7,0.2,1.3,0.5,1.9,1c0.6,0.4,1,1,1.4,1.6c0.4,0.6,0.7,1.2,0.8,1.9l-1.6,0.6c-0.2-1.1-0.8-2-1.7-2.7
	c-0.9-0.7-2-1-3.2-1c-0.7,0-1.4,0.1-2.1,0.4c-0.7,0.3-1.3,0.7-1.8,1.2c-0.5,0.5-1,1.2-1.2,1.9c-0.3,0.8-0.5,1.7-0.5,2.7
	c0,0.9,0.1,1.8,0.5,2.7c0.3,0.7,0.7,1.4,1.2,1.9c0.5,0.5,1.1,0.9,1.8,1.2c0.7,0.3,1.4,0.4,2.1,0.4c0.6,0,1.2-0.1,1.8-0.3
	c1-0.4,1.9-1,2.5-2c0.3-0.5,0.5-1,0.7-1.5l1.5,0.6c-0.2,0.7-0.5,1.3-0.9,1.9c-0.4,0.6-0.9,1.1-1.4,1.5c-0.6,0.4-1.2,0.8-1.9,1
	C108.8,206,108,206.1,107.2,206.1z"/>
<path class="st3" d="M121.9,205.8V191h8.9v1.6h-7.1v5.2h6.5v1.6h-6.5v6.4H121.9z"/>
<path class="st3" d="M132.9,191.8c0-0.2,0-0.3,0.1-0.5c0.1-0.2,0.2-0.3,0.3-0.4c0.1-0.1,0.3-0.2,0.4-0.3s0.3-0.1,0.5-0.1
	c0.3,0,0.7,0.1,0.9,0.4s0.4,0.6,0.4,0.9c0,0.2,0,0.3-0.1,0.5c-0.1,0.2-0.2,0.3-0.3,0.4c-0.1,0.1-0.3,0.2-0.4,0.3
	c-0.2,0.1-0.3,0.1-0.5,0.1c-0.2,0-0.3,0-0.5-0.1c-0.2-0.1-0.3-0.2-0.4-0.3c-0.1-0.1-0.2-0.3-0.3-0.4
	C132.9,192.1,132.9,192,132.9,191.8z M133.3,205.8v-10h1.7v10L133.3,205.8z"/>
<path class="st3" d="M138.1,205.8v-15.1h1.7v15.1H138.1z"/>
<path class="st3" d="M142.4,191.8c0-0.2,0-0.3,0.1-0.5c0.1-0.2,0.2-0.3,0.3-0.4c0.1-0.1,0.3-0.2,0.4-0.3c0.2-0.1,0.3-0.1,0.5-0.1
	c0.3,0,0.6,0.1,0.9,0.4s0.4,0.6,0.4,0.9c0,0.2,0,0.3-0.1,0.5c-0.1,0.2-0.2,0.3-0.3,0.4c-0.1,0.1-0.2,0.2-0.4,0.3
	c-0.2,0.1-0.3,0.1-0.5,0.1c-0.2,0-0.3,0-0.5-0.1c-0.2-0.1-0.3-0.2-0.4-0.3c-0.1-0.1-0.2-0.3-0.3-0.4
	C142.4,192.1,142.4,192,142.4,191.8z M142.8,205.8v-10h1.7v10L142.8,205.8z"/>
<path class="st3" d="M149.3,205.8h-1.7v-10h1.7v1.5c0.3-0.6,0.7-1,1.3-1.3c0.6-0.3,1.2-0.5,1.8-0.5c0.5,0,1,0.1,1.5,0.3
	c0.4,0.2,0.8,0.5,1.2,0.8c0.3,0.4,0.5,0.8,0.7,1.2c0.1,0.5,0.2,1,0.2,1.5v6.4h-1.7v-6.2c0-0.4,0-0.7-0.1-1c-0.1-0.3-0.2-0.6-0.4-0.8
	c-0.2-0.2-0.5-0.4-0.8-0.6c-0.4-0.1-0.8-0.2-1.2-0.2c-0.4,0-0.7,0.1-1.1,0.2c-0.3,0.1-0.6,0.4-0.8,0.6c-0.2,0.3-0.4,0.6-0.5,0.9
	c-0.1,0.4-0.2,0.8-0.2,1.2L149.3,205.8z"/>
<path class="st3" d="M159.9,206c0.1,0.7,0.4,1.4,0.9,1.8c0.3,0.3,0.6,0.4,0.9,0.6c0.3,0.1,0.7,0.2,1.1,0.2c0.5,0,1-0.1,1.5-0.2
	c0.4-0.2,0.7-0.4,1-0.7c0.3-0.3,0.5-0.7,0.6-1.1c0.1-0.5,0.2-0.9,0.2-1.4v-1.6c-0.3,0.5-0.7,1-1.2,1.3c-0.6,0.4-1.3,0.6-2,0.6
	c-0.6,0-1.3-0.1-1.8-0.4c-0.5-0.2-1-0.6-1.4-1c-0.4-0.5-0.7-1-0.9-1.6c-0.2-0.6-0.3-1.3-0.3-1.9c0-0.7,0.1-1.3,0.3-2
	c0.2-0.6,0.5-1.1,0.9-1.6c0.4-0.4,0.9-0.8,1.4-1c0.6-0.3,1.2-0.4,1.9-0.4c0.7,0,1.4,0.1,2,0.5c0.5,0.3,0.9,0.7,1.2,1.2v-1.4h1.7v9.3
	c0,0.6-0.1,1.2-0.2,1.8c-0.1,0.6-0.4,1.1-0.8,1.6c-0.4,0.5-0.9,0.9-1.5,1.2c-0.7,0.3-1.5,0.5-2.3,0.4c-0.6,0-1.2-0.1-1.7-0.3
	c-0.5-0.2-1-0.4-1.4-0.8c-0.4-0.3-0.7-0.7-1-1.2c-0.3-0.5-0.4-1-0.5-1.5L159.9,206z M166.1,200.4c0-0.9-0.3-1.8-0.8-2.5
	c-0.3-0.3-0.6-0.5-1-0.7c-0.4-0.2-0.8-0.2-1.2-0.2c-0.4,0-0.8,0.1-1.2,0.2c-0.4,0.2-0.7,0.4-1,0.7c-0.5,0.7-0.8,1.6-0.8,2.5
	c0,0.9,0.3,1.8,0.8,2.5c0.3,0.3,0.6,0.5,1,0.7c0.4,0.2,0.8,0.2,1.2,0.2c0.4,0,0.8-0.1,1.2-0.2c0.4-0.2,0.7-0.4,1-0.7
	C165.8,202.2,166.1,201.4,166.1,200.4L166.1,200.4z"/>
<path class="st3" d="M171.6,202.6c0.1,0.6,0.3,1.1,0.7,1.5c0.5,0.4,1.1,0.6,1.8,0.6c0.5,0,1-0.1,1.4-0.4c0.2-0.1,0.3-0.3,0.4-0.5
	c0.1-0.2,0.1-0.4,0.1-0.6c0-0.2,0-0.4-0.1-0.5c-0.1-0.2-0.2-0.3-0.3-0.4c-0.3-0.3-0.7-0.5-1.1-0.5l-1.6-0.4c-0.7-0.1-1.3-0.5-1.8-1
	c-0.5-0.5-0.7-1.1-0.7-1.8c0-0.4,0.1-0.8,0.3-1.2c0.2-0.4,0.4-0.7,0.8-1c0.3-0.3,0.7-0.5,1.1-0.7c0.4-0.2,0.9-0.2,1.3-0.2
	c0.6,0,1.1,0.1,1.6,0.3c0.4,0.1,0.8,0.4,1.2,0.7c0.3,0.3,0.5,0.6,0.7,0.9c0.1,0.3,0.2,0.5,0.3,0.8l-1.5,0.5c0-0.2-0.1-0.4-0.2-0.6
	c-0.1-0.2-0.2-0.4-0.4-0.6c-0.2-0.2-0.5-0.4-0.8-0.5c-0.3-0.1-0.6-0.2-0.9-0.2c-0.5,0-1,0.1-1.3,0.4c-0.2,0.1-0.3,0.3-0.4,0.5
	c-0.1,0.2-0.1,0.4-0.1,0.6c0,0.7,0.4,1.2,1.3,1.4l1.6,0.4c0.8,0.1,1.5,0.5,2,1c0.5,0.5,0.7,1.2,0.7,1.9c0,0.4-0.1,0.7-0.2,1.1
	c-0.2,0.4-0.4,0.7-0.7,1c-0.3,0.3-0.7,0.5-1.2,0.7c-0.5,0.2-1,0.3-1.6,0.3c-0.6,0-1.2-0.1-1.7-0.3c-0.4-0.2-0.9-0.4-1.2-0.7
	c-0.6-0.5-1-1.2-1.1-1.9L171.6,202.6z"/>
<path class="st4" d="M47.9,229H20.3v27.5h27.5V229z"/>
<path class="st5" d="M25.5,244l5.1,5.1l11.9-11.9"/>
<path class="st3" d="M82.2,237.1v13.2h-1.7v-13.2h-5.1v-1.6h11.9v1.6H82.2z"/>
<path class="st3" d="M92.8,242.1c-0.1,0-0.3-0.1-0.4-0.1h-0.5c-0.4,0-0.7,0-1.1,0.2c-0.3,0.1-0.7,0.3-0.9,0.6
	c-0.3,0.3-0.5,0.7-0.6,1.2c-0.1,0.4-0.2,0.9-0.1,1.3v5.2h-1.7v-10h1.6v1.8c0.1-0.3,0.3-0.7,0.6-0.9c0.2-0.2,0.5-0.4,0.8-0.6
	c0.3-0.1,0.5-0.3,0.8-0.3c0.3-0.1,0.6-0.1,0.8-0.1h0.4c0.1,0,0.2,0,0.3,0.1V242.1z"/>
<path class="st3" d="M94.1,247.7c0-0.4,0-0.8,0.2-1.1c0.1-0.4,0.4-0.7,0.6-0.9c0.6-0.5,1.4-0.8,2.2-0.9l2.7-0.4
	c0.3,0,0.5-0.1,0.7-0.3c0.1-0.2,0.2-0.4,0.2-0.6c0-0.3,0-0.5-0.1-0.8c-0.1-0.2-0.2-0.5-0.4-0.7c-0.2-0.2-0.5-0.4-0.8-0.5
	c-0.3-0.1-0.6-0.1-0.9-0.1c-0.3,0-0.6,0-0.9,0.1c-0.3,0.1-0.6,0.2-0.8,0.4c-0.2,0.2-0.4,0.4-0.6,0.7c-0.1,0.3-0.2,0.6-0.2,0.9
	l-1.6-0.4c0-0.5,0.2-0.9,0.4-1.3c0.2-0.4,0.5-0.7,0.9-1c0.4-0.3,0.8-0.5,1.2-0.7c0.5-0.2,1-0.2,1.5-0.2c0.6,0,1.2,0.1,1.8,0.3
	c0.5,0.2,0.9,0.4,1.3,0.8c0.3,0.3,0.6,0.7,0.7,1.2c0.2,0.4,0.2,0.9,0.2,1.4v5.1c0,0.4,0,0.8,0,1c0,0.3,0.1,0.5,0.1,0.6h-1.6
	c0-0.2-0.1-0.4-0.1-0.5c0-0.3,0-0.6,0-1c-0.1,0.2-0.3,0.4-0.5,0.6c-0.2,0.2-0.4,0.4-0.7,0.6c-0.7,0.4-1.4,0.6-2.2,0.6
	c-0.5,0-1-0.1-1.4-0.2c-0.4-0.2-0.7-0.4-1-0.7c-0.3-0.3-0.5-0.6-0.6-0.9C94.2,248.5,94.1,248.1,94.1,247.7L94.1,247.7z M97.6,249.3
	c0.4,0,0.8-0.1,1.2-0.2c0.4-0.1,0.7-0.3,1-0.6c0.3-0.3,0.5-0.6,0.6-1c0.2-0.4,0.2-0.9,0.2-1.4v-0.7l-3.3,0.5
	c-0.4,0.1-0.8,0.2-1.2,0.5c-0.2,0.1-0.3,0.3-0.4,0.5c-0.1,0.2-0.1,0.4-0.1,0.6c0,0.2,0,0.4,0.1,0.6c0.1,0.2,0.2,0.4,0.4,0.5
	c0.2,0.2,0.4,0.3,0.7,0.4C97.2,249.3,97.4,249.3,97.6,249.3L97.6,249.3z"/>
<path class="st3" d="M107.1,250.4h-1.7v-10h1.6v1.5c0.3-0.6,0.8-1,1.3-1.3c0.6-0.3,1.2-0.5,1.8-0.5c0.5,0,1.1,0.1,1.6,0.3
	c0.4,0.2,0.8,0.5,1.2,0.8c0.3,0.4,0.5,0.8,0.7,1.2c0.2,0.5,0.2,1,0.2,1.5v6.4h-1.7v-6.2c0-0.3,0-0.7-0.1-1c-0.1-0.3-0.2-0.6-0.4-0.8
	c-0.2-0.2-0.5-0.4-0.8-0.6c-0.4-0.1-0.8-0.2-1.2-0.2c-0.4,0-0.7,0.1-1.1,0.2c-0.3,0.1-0.6,0.4-0.8,0.6c-0.2,0.3-0.4,0.6-0.5,0.9
	c-0.1,0.4-0.2,0.8-0.2,1.2L107.1,250.4z"/>
<path class="st3" d="M117.5,247.2c0.1,0.6,0.3,1.1,0.7,1.5c0.5,0.4,1.1,0.6,1.8,0.6c0.5,0,1-0.1,1.4-0.4c0.2-0.1,0.3-0.3,0.4-0.5
	c0.1-0.2,0.1-0.4,0.1-0.6c0-0.2,0-0.4-0.1-0.5c-0.1-0.2-0.2-0.3-0.3-0.4c-0.3-0.3-0.7-0.5-1.2-0.5l-1.6-0.4c-0.7-0.1-1.3-0.5-1.8-1
	c-0.2-0.2-0.4-0.5-0.5-0.8c-0.1-0.3-0.2-0.6-0.2-1c0-0.4,0.1-0.8,0.3-1.2c0.2-0.4,0.4-0.7,0.8-1c0.3-0.3,0.7-0.5,1.2-0.7
	c0.4-0.2,0.9-0.2,1.3-0.2c0.6,0,1.1,0.1,1.6,0.3c0.4,0.1,0.8,0.4,1.2,0.7c0.3,0.2,0.5,0.5,0.7,0.9c0.1,0.3,0.2,0.6,0.3,0.8l-1.5,0.5
	c0-0.2-0.1-0.4-0.2-0.6c-0.1-0.2-0.2-0.4-0.4-0.6c-0.2-0.2-0.4-0.4-0.7-0.5c-0.3-0.1-0.7-0.2-1-0.2c-0.5,0-1,0.1-1.3,0.4
	c-0.2,0.1-0.3,0.3-0.4,0.5c-0.1,0.2-0.1,0.4-0.1,0.6c0,0.7,0.4,1.2,1.3,1.4l1.6,0.4c0.8,0.1,1.5,0.5,2,1c0.5,0.5,0.7,1.2,0.7,1.9
	c0,0.4-0.1,0.7-0.2,1.1c-0.2,0.4-0.4,0.7-0.7,1c-0.3,0.3-0.7,0.5-1.2,0.7c-0.5,0.2-1,0.3-1.6,0.3c-0.6,0-1.2-0.1-1.7-0.3
	c-0.4-0.2-0.8-0.4-1.2-0.7c-0.3-0.3-0.6-0.6-0.7-0.9c-0.2-0.3-0.3-0.7-0.3-1L117.5,247.2z"/>
<path class="st3" d="M130.4,241.6c-0.4,0-0.9,0.1-1.3,0.3c-0.4,0.2-0.8,0.4-1,0.7c-0.3,0.3-0.6,0.7-0.7,1.2c-0.3,1.1-0.3,2.2,0,3.2
	c0.2,0.4,0.4,0.8,0.7,1.2c0.3,0.3,0.7,0.6,1.1,0.7c0.4,0.2,0.8,0.3,1.3,0.3c0.4,0,0.8-0.1,1.2-0.2c0.3-0.1,0.6-0.3,0.9-0.6
	c0.2-0.2,0.4-0.5,0.6-0.7c0.1-0.2,0.2-0.5,0.3-0.7l1.5,0.7c-0.1,0.4-0.3,0.8-0.5,1.2c-0.2,0.4-0.6,0.7-0.9,1
	c-0.4,0.3-0.8,0.6-1.3,0.7c-0.6,0.2-1.1,0.3-1.7,0.3c-0.7,0-1.3-0.1-1.9-0.4c-0.6-0.3-1.2-0.6-1.6-1.1c-0.5-0.5-0.8-1.1-1-1.7
	c-0.5-1.4-0.5-2.9,0-4.3c0.2-0.6,0.6-1.2,1-1.7c0.4-0.5,1-0.8,1.6-1.1c1.2-0.5,2.5-0.5,3.7-0.1c0.5,0.2,0.9,0.4,1.3,0.7
	c0.4,0.3,0.7,0.6,0.9,1c0.2,0.4,0.4,0.8,0.5,1.2l-1.5,0.6c-0.1-0.3-0.2-0.5-0.3-0.8c-0.1-0.3-0.3-0.5-0.6-0.7
	c-0.2-0.2-0.5-0.4-0.8-0.5C131.1,241.6,130.7,241.6,130.4,241.6z"/>
<path class="st3" d="M142.5,242.1c-0.1,0-0.3-0.1-0.4-0.1h-0.4c-0.4,0-0.8,0-1.1,0.2c-0.4,0.1-0.7,0.3-0.9,0.6
	c-0.3,0.3-0.5,0.7-0.6,1.2c-0.1,0.4-0.2,0.9-0.1,1.3v5.2h-1.7v-10h1.7v1.8c0.1-0.3,0.3-0.7,0.6-0.9c0.2-0.2,0.5-0.4,0.8-0.6
	c0.3-0.1,0.5-0.3,0.8-0.3c0.3-0.1,0.6-0.1,0.8-0.1h0.4c0.1,0,0.2,0,0.3,0.1L142.5,242.1z"/>
<path class="st3" d="M144,236.4c0-0.2,0-0.3,0.1-0.5c0.1-0.2,0.2-0.3,0.3-0.4c0.1-0.1,0.3-0.2,0.4-0.3c0.2-0.1,0.3-0.1,0.5-0.1
	c0.2,0,0.3,0,0.5,0.1c0.2,0.1,0.3,0.2,0.4,0.3c0.1,0.1,0.2,0.3,0.3,0.4c0.1,0.2,0.1,0.3,0.1,0.5c0,0.2,0,0.3-0.1,0.5
	c-0.1,0.2-0.2,0.3-0.3,0.4c-0.1,0.1-0.3,0.2-0.4,0.3c-0.2,0.1-0.3,0.1-0.5,0.1c-0.3,0-0.6-0.1-0.9-0.4
	C144.1,237.1,144,236.7,144,236.4z M144.4,250.4v-10h1.7v10H144.4z"/>
<path class="st3" d="M149.1,254.4v-14h1.6v1.7c0.3-0.6,0.7-1,1.3-1.4c0.7-0.4,1.4-0.6,2.2-0.6c0.7,0,1.3,0.1,2,0.4
	c0.6,0.3,1.1,0.7,1.4,1.2c0.4,0.5,0.7,1.1,0.9,1.7c0.2,0.7,0.3,1.4,0.3,2.1c0,0.7-0.1,1.4-0.3,2.1c-0.2,0.6-0.5,1.2-0.9,1.7
	c-0.4,0.5-0.9,0.9-1.4,1.2c-0.6,0.3-1.3,0.4-1.9,0.4c-0.7,0-1.4-0.1-1.9-0.4c-0.6-0.3-1.1-0.8-1.4-1.4v5.5L149.1,254.4z M154,249.2
	c0.5,0,0.9-0.1,1.3-0.3c0.4-0.2,0.7-0.4,1-0.7c0.3-0.3,0.5-0.7,0.6-1.2c0.2-0.5,0.2-1,0.2-1.5c0-0.5-0.1-1-0.2-1.5
	c-0.1-0.4-0.4-0.8-0.6-1.2c-0.3-0.3-0.6-0.6-1-0.8c-0.4-0.2-0.9-0.3-1.3-0.3c-0.5,0-0.9,0.1-1.3,0.3c-0.4,0.2-0.7,0.4-1,0.8
	c-0.3,0.3-0.5,0.7-0.6,1.2c-0.1,0.5-0.2,1-0.2,1.5c0,0.5,0.1,1,0.2,1.5c0.1,0.4,0.4,0.8,0.6,1.2c0.3,0.3,0.6,0.6,1,0.8
	C153,249.1,153.5,249.2,154,249.2L154,249.2z"/>
<path class="st3" d="M163.7,240.4h2.3v1.5h-2.3v5.5c0,0.4,0.1,0.8,0.4,1.2c0.2,0.1,0.3,0.2,0.5,0.3c0.2,0.1,0.4,0.1,0.6,0.1
	c0.2,0,0.3,0,0.5,0c0.1,0,0.2,0,0.4-0.1v1.4l-0.5,0.1c-0.3,0-0.5,0.1-0.8,0.1c-0.4,0-0.7,0-1.1-0.2c-0.3-0.1-0.7-0.3-0.9-0.6
	c-0.3-0.3-0.5-0.6-0.6-1c-0.1-0.4-0.2-0.7-0.2-1.1v-5.8h-2v-1.5h0.7c0.2,0,0.4,0,0.6-0.1c0.2-0.1,0.4-0.2,0.5-0.3
	c0.3-0.3,0.4-0.7,0.3-1.2v-1.7h1.6L163.7,240.4z"/>
<path class="st3" d="M169.1,247.2c0.1,0.6,0.3,1.1,0.7,1.5c0.5,0.4,1.1,0.6,1.8,0.6c0.5,0,1-0.1,1.4-0.4c0.2-0.1,0.3-0.3,0.4-0.5
	c0.1-0.2,0.1-0.4,0.1-0.6c0-0.2,0-0.4-0.1-0.5c-0.1-0.2-0.2-0.3-0.3-0.4c-0.3-0.3-0.7-0.4-1.1-0.5l-1.6-0.4c-0.7-0.1-1.3-0.5-1.8-1
	c-0.5-0.5-0.7-1.1-0.7-1.8c0-0.4,0.1-0.8,0.3-1.2c0.2-0.4,0.4-0.7,0.8-1c0.3-0.3,0.7-0.5,1.1-0.7c0.4-0.2,0.9-0.3,1.4-0.3
	c0.6,0,1.1,0.1,1.6,0.3c0.4,0.2,0.8,0.4,1.2,0.7c0.5,0.5,0.8,1.1,1,1.7l-1.5,0.5c0-0.2-0.1-0.4-0.2-0.6c-0.1-0.2-0.2-0.4-0.4-0.6
	c-0.2-0.2-0.4-0.4-0.7-0.5c-0.3-0.1-0.7-0.2-1-0.2c-0.5,0-1,0.1-1.3,0.4c-0.2,0.1-0.3,0.3-0.4,0.5c-0.1,0.2-0.1,0.4-0.1,0.6
	c0,0.7,0.4,1.2,1.3,1.4l1.6,0.4c0.8,0.1,1.5,0.5,2,1c0.2,0.2,0.4,0.5,0.5,0.9c0.1,0.3,0.2,0.7,0.2,1c0,0.4-0.1,0.7-0.2,1.1
	c-0.2,0.4-0.4,0.7-0.7,1c-0.3,0.3-0.7,0.5-1.2,0.7c-0.5,0.2-1,0.3-1.6,0.3c-0.6,0-1.2-0.1-1.7-0.3c-0.4-0.2-0.8-0.4-1.2-0.7
	c-0.3-0.3-0.6-0.6-0.7-0.9c-0.2-0.3-0.3-0.7-0.3-1L169.1,247.2z"/>
<path class="st1" d="M47.9,273.6H20.3v27.5h27.5V273.6z"/>
<path class="st2" d="M25.5,288.5l5.1,5.1l11.9-11.9"/>
<path class="st3" d="M78.8,288.8v6.2H77v-14.9h5.2c0.6,0,1.3,0.1,1.9,0.3c0.5,0.2,1,0.5,1.4,0.9c0.4,0.4,0.7,0.9,0.9,1.4
	c0.2,0.5,0.3,1.1,0.3,1.7c0,0.6-0.1,1.2-0.3,1.7c-0.2,0.5-0.5,1-0.9,1.4c-0.4,0.4-0.9,0.7-1.4,0.9c-0.6,0.2-1.2,0.3-1.9,0.3H78.8z
	 M81.9,287.2c0.8,0.1,1.6-0.2,2.3-0.7c0.3-0.3,0.5-0.6,0.6-0.9c0.1-0.3,0.2-0.7,0.2-1.1c0-0.4,0-0.8-0.2-1.1s-0.4-0.7-0.6-0.9
	c-0.6-0.5-1.4-0.8-2.3-0.8h-3.1v5.5H81.9z"/>
<path class="st3" d="M94.2,286.6c-0.1,0-0.3-0.1-0.4-0.1h-0.4c-0.4,0-0.7,0-1.1,0.2c-0.4,0.1-0.7,0.3-0.9,0.6
	c-0.3,0.3-0.5,0.7-0.6,1.1c-0.1,0.4-0.2,0.9-0.1,1.3v5.2h-1.7v-10h1.6v1.8c0.2-0.3,0.4-0.6,0.6-0.9c0.2-0.2,0.5-0.4,0.8-0.6
	c0.3-0.1,0.5-0.3,0.8-0.3c0.3-0.1,0.6-0.1,0.8-0.1c0.1,0,0.3,0,0.4,0c0.1,0,0.2,0,0.3,0.1V286.6z"/>
<path class="st3" d="M104.8,292.1c-0.1,0.4-0.3,0.8-0.6,1.2c-0.3,0.4-0.6,0.7-1,1c-0.4,0.3-0.8,0.5-1.3,0.7
	c-0.5,0.2-1.1,0.3-1.6,0.3c-0.7,0-1.3-0.1-1.9-0.4c-0.6-0.2-1.1-0.6-1.6-1c-0.5-0.5-0.8-1.1-1.1-1.7c-0.5-1.4-0.5-3,0-4.4
	c0.2-0.6,0.6-1.2,1-1.7c0.4-0.5,0.9-0.8,1.5-1.1c0.6-0.3,1.2-0.4,1.8-0.4c0.7,0,1.4,0.1,2,0.4c0.6,0.2,1.1,0.6,1.5,1
	c0.4,0.5,0.7,1,0.9,1.6c0.2,0.7,0.3,1.4,0.3,2.1v0.3c0,0.1,0,0.2,0,0.3h-7.8v0.1c0,0.4,0.1,0.9,0.2,1.3c0.2,0.4,0.4,0.7,0.7,1
	c0.3,0.3,0.6,0.5,1,0.7c0.4,0.2,0.8,0.2,1.3,0.2c0.7,0,1.4-0.2,2-0.6c0.5-0.4,0.8-0.9,1-1.5L104.8,292.1z M103.2,289
	c0-0.7-0.3-1.5-0.8-2c-0.3-0.3-0.6-0.5-1-0.7c-0.4-0.1-0.8-0.2-1.2-0.2c-0.4,0-0.8,0.1-1.2,0.2c-0.3,0.2-0.7,0.4-0.9,0.6
	c-0.3,0.3-0.5,0.6-0.6,0.9c-0.2,0.3-0.3,0.7-0.3,1.1H103.2z"/>
<path class="st3" d="M108.1,291.8c0.1,0.6,0.3,1.1,0.7,1.5c0.5,0.4,1.1,0.6,1.8,0.6c0.5,0,1-0.1,1.4-0.4c0.2-0.1,0.3-0.3,0.4-0.5
	c0.1-0.2,0.1-0.4,0.1-0.6c0-0.2,0-0.4-0.1-0.5c-0.1-0.2-0.2-0.3-0.3-0.4c-0.3-0.3-0.7-0.4-1.1-0.5l-1.6-0.4c-0.7-0.1-1.3-0.5-1.8-1
	c-0.4-0.5-0.7-1.1-0.7-1.8c0-0.4,0.1-0.8,0.3-1.2c0.2-0.4,0.4-0.7,0.8-1c0.3-0.3,0.7-0.5,1.2-0.7c0.4-0.2,0.9-0.2,1.3-0.2
	c0.6,0,1.1,0.1,1.6,0.3c0.4,0.1,0.8,0.4,1.2,0.7c0.3,0.3,0.5,0.6,0.7,0.9c0.1,0.3,0.2,0.6,0.3,0.8l-1.5,0.5c0-0.2-0.1-0.4-0.2-0.6
	c-0.1-0.2-0.2-0.4-0.4-0.6c-0.2-0.2-0.4-0.3-0.7-0.5c-0.3-0.1-0.6-0.2-1-0.2c-0.5,0-1,0.1-1.3,0.4c-0.2,0.1-0.3,0.3-0.4,0.5
	c-0.1,0.2-0.1,0.4-0.1,0.6c0,0.7,0.4,1.2,1.3,1.4l1.6,0.4c0.8,0.1,1.5,0.5,2,1c0.4,0.4,0.6,0.9,0.7,1.4c0.1,0.5,0,1.1-0.2,1.5
	c-0.2,0.4-0.4,0.7-0.7,1c-0.3,0.3-0.7,0.5-1.2,0.7c-0.5,0.2-1,0.3-1.6,0.3c-0.6,0-1.2-0.1-1.7-0.3c-0.4-0.2-0.8-0.4-1.2-0.7
	c-0.3-0.3-0.6-0.6-0.7-0.9c-0.2-0.3-0.3-0.6-0.3-1L108.1,291.8z"/>
<path class="st3" d="M125.5,292.1c-0.1,0.4-0.3,0.8-0.6,1.2c-0.3,0.4-0.6,0.7-1,1c-0.4,0.3-0.8,0.5-1.3,0.7
	c-0.5,0.2-1.1,0.3-1.6,0.3c-0.7,0-1.3-0.1-1.9-0.4c-0.6-0.2-1.1-0.6-1.6-1c-0.5-0.5-0.8-1.1-1.1-1.7c-0.3-0.7-0.4-1.5-0.4-2.2
	c0-0.7,0.1-1.5,0.4-2.2c0.2-0.6,0.6-1.2,1-1.7c0.4-0.5,0.9-0.8,1.5-1.1c0.6-0.2,1.2-0.4,1.8-0.4c0.7,0,1.4,0.1,2,0.4
	c0.6,0.2,1.1,0.6,1.5,1c0.4,0.5,0.7,1,0.9,1.6c0.2,0.7,0.3,1.4,0.3,2.1c0,0.1,0,0.2,0,0.3c0,0.1,0,0.2,0,0.3h-7.8v0.1
	c0,0.4,0.1,0.9,0.2,1.3c0.2,0.4,0.4,0.7,0.7,1c0.3,0.3,0.6,0.5,1,0.7c0.4,0.2,0.8,0.2,1.3,0.2c0.7,0,1.4-0.2,2-0.6
	c0.5-0.4,0.8-0.9,1-1.5L125.5,292.1z M123.8,289c0-0.7-0.3-1.5-0.8-2c-0.3-0.3-0.6-0.5-1-0.6c-0.4-0.1-0.8-0.2-1.2-0.2
	c-0.4,0-0.8,0.1-1.2,0.2c-0.3,0.2-0.7,0.4-0.9,0.6c-0.3,0.3-0.5,0.6-0.6,0.9c-0.2,0.3-0.2,0.7-0.3,1.1H123.8z"/>
<path class="st3" d="M129.7,295H128v-10h1.6v1.5c0.3-0.6,0.7-1,1.3-1.3c0.6-0.3,1.2-0.5,1.8-0.5c0.5,0,1.1,0.1,1.6,0.3
	c0.4,0.2,0.8,0.5,1.2,0.8c0.3,0.4,0.5,0.8,0.7,1.2c0.1,0.5,0.2,1,0.2,1.5v6.4h-1.7v-6.2c0-0.4,0-0.7-0.1-1c-0.1-0.3-0.2-0.6-0.4-0.8
	c-0.2-0.2-0.5-0.4-0.8-0.6c-0.4-0.2-0.8-0.2-1.2-0.2c-0.4,0-0.7,0.1-1.1,0.2c-0.3,0.1-0.6,0.4-0.8,0.6c-0.2,0.3-0.4,0.6-0.5,0.9
	c-0.1,0.4-0.2,0.8-0.2,1.2L129.7,295z"/>
<path class="st3" d="M141.7,284.9h2.3v1.5h-2.3v5.5c0,0.4,0.1,0.8,0.4,1.2c0.2,0.1,0.3,0.2,0.5,0.3c0.2,0.1,0.4,0.1,0.6,0.1h0.5
	c0.1,0,0.2,0,0.4-0.1v1.4c-0.2,0-0.3,0.1-0.5,0.1c-0.3,0.1-0.5,0.1-0.8,0.1c-0.4,0-0.7,0-1.1-0.2c-0.3-0.1-0.7-0.3-0.9-0.6
	c-0.3-0.3-0.5-0.6-0.6-1c-0.1-0.4-0.2-0.7-0.2-1.1v-5.8h-2v-1.5h0.7c0.2,0,0.4,0,0.6-0.1c0.2-0.1,0.4-0.2,0.5-0.3
	c0.3-0.3,0.4-0.7,0.3-1.2v-1.7h1.6L141.7,284.9z"/>
<path class="st3" d="M145.8,292.4c0-0.4,0-0.8,0.2-1.1c0.1-0.4,0.4-0.7,0.7-0.9c0.6-0.5,1.4-0.8,2.2-0.9l2.7-0.4
	c0.3,0,0.5-0.1,0.7-0.3c0.1-0.2,0.2-0.3,0.2-0.5c0-0.3,0-0.5-0.1-0.8s-0.2-0.5-0.4-0.7c-0.2-0.2-0.5-0.4-0.8-0.5
	c-0.3-0.1-0.6-0.1-0.9-0.1c-0.6,0-1.3,0.2-1.7,0.6c-0.4,0.4-0.7,1-0.7,1.6l-1.6-0.4c0.1-0.5,0.2-0.9,0.4-1.3c0.2-0.4,0.5-0.7,0.9-1
	c0.4-0.3,0.8-0.5,1.2-0.7c0.5-0.2,1-0.2,1.5-0.2c0.6,0,1.2,0.1,1.8,0.3c0.5,0.2,0.9,0.4,1.3,0.8c0.3,0.3,0.6,0.7,0.7,1.2
	c0.2,0.4,0.2,0.9,0.2,1.4v5.1c0,0.3,0,0.7,0,1c0,0.2,0,0.4,0.1,0.6h-1.6c0-0.2-0.1-0.4-0.1-0.5c0-0.3,0-0.6,0-1
	c-0.1,0.2-0.3,0.4-0.5,0.6c-0.2,0.2-0.4,0.4-0.7,0.6c-0.3,0.2-0.6,0.3-1,0.4c-0.4,0.1-0.8,0.2-1.2,0.2c-0.5,0-0.9-0.1-1.4-0.3
	c-0.4-0.1-0.7-0.4-1-0.7c-0.3-0.3-0.5-0.6-0.6-0.9C145.9,293.1,145.8,292.8,145.8,292.4z M149.3,293.9c0.4,0,0.8-0.1,1.2-0.2
	c0.4-0.1,0.7-0.3,1-0.6c0.3-0.3,0.5-0.6,0.6-0.9c0.2-0.4,0.3-0.9,0.2-1.4V290l-3.3,0.5c-0.4,0.1-0.8,0.2-1.2,0.5
	c-0.2,0.1-0.3,0.3-0.4,0.5c-0.1,0.2-0.1,0.4-0.1,0.6c0,0.2,0,0.4,0.1,0.6c0.1,0.2,0.2,0.4,0.4,0.5c0.2,0.2,0.4,0.3,0.6,0.4
	C148.8,293.8,149,293.9,149.3,293.9L149.3,293.9z"/>
<path class="st3" d="M159.4,284.9h2.3v1.5h-2.3v5.5c0,0.4,0.1,0.8,0.4,1.2c0.2,0.1,0.3,0.2,0.5,0.3c0.2,0.1,0.4,0.1,0.6,0.1
	c0.2,0,0.3,0,0.5,0c0.1,0,0.2,0,0.4-0.1v1.4c-0.2,0-0.3,0.1-0.5,0.1c-0.3,0.1-0.5,0.1-0.8,0.1c-0.4,0-0.7,0-1.1-0.2
	c-0.3-0.1-0.7-0.3-0.9-0.6c-0.3-0.3-0.5-0.6-0.6-1c-0.1-0.4-0.2-0.7-0.2-1.1v-5.8h-2v-1.5h0.7c0.2,0,0.4,0,0.6-0.1
	c0.2-0.1,0.4-0.2,0.5-0.3c0.3-0.3,0.4-0.7,0.3-1.2v-1.7h1.6L159.4,284.9z"/>
<path class="st3" d="M163.4,281c0-0.2,0-0.3,0.1-0.5c0.1-0.2,0.2-0.3,0.3-0.4c0.1-0.1,0.3-0.2,0.4-0.3c0.2-0.1,0.3-0.1,0.5-0.1
	c0.3,0,0.6,0.1,0.9,0.4c0.2,0.2,0.4,0.6,0.4,0.9c0,0.2,0,0.3-0.1,0.5c-0.1,0.2-0.2,0.3-0.3,0.4c-0.1,0.1-0.3,0.2-0.4,0.3
	c-0.2,0.1-0.3,0.1-0.5,0.1c-0.2,0-0.3,0-0.5-0.1c-0.2-0.1-0.3-0.2-0.4-0.3c-0.1-0.1-0.2-0.3-0.3-0.4
	C163.4,281.3,163.4,281.1,163.4,281z M163.8,294.9v-10h1.7v10H163.8z"/>
<path class="st3" d="M173,284.6c0.7,0,1.4,0.1,2,0.4c0.6,0.3,1.1,0.7,1.6,1.2c0.5,0.5,0.8,1,1,1.7c0.5,1.4,0.5,2.9,0,4.3
	c-0.2,0.6-0.6,1.2-1,1.7c-0.4,0.5-1,0.9-1.6,1.2c-1.3,0.5-2.7,0.5-4,0c-0.6-0.3-1.1-0.7-1.6-1.2c-0.5-0.5-0.8-1.1-1-1.7
	c-0.5-1.4-0.5-2.9,0-4.3c0.2-0.6,0.6-1.2,1-1.7c0.4-0.5,1-0.9,1.6-1.2C171.6,284.8,172.3,284.6,173,284.6z M173,286.1
	c-0.4,0-0.9,0.1-1.3,0.2c-0.4,0.2-0.8,0.4-1.1,0.7c-0.3,0.3-0.6,0.7-0.7,1.2c-0.2,0.5-0.3,1.1-0.3,1.6c0,0.6,0.1,1.1,0.3,1.6
	c0.2,0.4,0.4,0.8,0.7,1.2c0.3,0.3,0.7,0.6,1.1,0.7c0.4,0.2,0.8,0.3,1.3,0.2c0.4,0,0.9-0.1,1.3-0.2c0.4-0.2,0.8-0.4,1.1-0.7
	c0.3-0.3,0.6-0.7,0.7-1.2c0.2-0.5,0.3-1.1,0.3-1.6c0-0.6-0.1-1.1-0.3-1.6c-0.2-0.4-0.4-0.8-0.7-1.2c-0.3-0.3-0.7-0.6-1.1-0.7
	C173.8,286.2,173.4,286.1,173,286.1z"/>
<path class="st3" d="M182.1,295h-1.7v-10h1.6v1.5c0.3-0.6,0.7-1,1.3-1.3c0.6-0.3,1.2-0.5,1.8-0.5c0.5,0,1.1,0.1,1.6,0.3
	c0.4,0.2,0.8,0.5,1.2,0.8c0.3,0.4,0.5,0.8,0.7,1.2c0.1,0.5,0.2,1,0.2,1.5v6.4h-1.7v-6.2c0-0.4,0-0.7-0.1-1c-0.1-0.3-0.2-0.6-0.4-0.8
	c-0.2-0.2-0.5-0.4-0.8-0.6c-0.4-0.2-0.8-0.2-1.2-0.2c-0.4,0-0.7,0.1-1.1,0.2c-0.3,0.1-0.6,0.4-0.8,0.6c-0.2,0.3-0.4,0.6-0.5,0.9
	c-0.1,0.4-0.2,0.8-0.2,1.2L182.1,295z"/>
<path class="st3" d="M192.6,291.8c0.1,0.6,0.3,1.1,0.7,1.5c0.5,0.4,1.1,0.6,1.8,0.6c0.5,0,1-0.1,1.4-0.4c0.1-0.1,0.3-0.3,0.3-0.5
	c0.1-0.2,0.1-0.4,0.1-0.6c0-0.2,0-0.4-0.1-0.5c-0.1-0.2-0.2-0.3-0.3-0.4c-0.3-0.3-0.7-0.5-1.2-0.5l-1.6-0.4c-0.7-0.1-1.3-0.5-1.8-1
	c-0.2-0.2-0.4-0.5-0.5-0.8c-0.1-0.3-0.2-0.6-0.2-1c0-0.4,0.1-0.8,0.3-1.2c0.2-0.4,0.4-0.7,0.8-1c0.3-0.3,0.7-0.5,1.2-0.7
	c0.4-0.2,0.9-0.2,1.3-0.2c0.6,0,1.1,0.1,1.6,0.3c0.4,0.1,0.8,0.4,1.2,0.7c0.3,0.3,0.5,0.6,0.7,0.9c0.1,0.3,0.2,0.6,0.3,0.8l-1.5,0.5
	c0-0.2-0.1-0.4-0.2-0.6c-0.1-0.2-0.2-0.4-0.4-0.6c-0.2-0.2-0.4-0.3-0.7-0.5c-0.3-0.1-0.6-0.2-1-0.2c-0.5,0-1,0.1-1.4,0.4
	c-0.2,0.1-0.3,0.3-0.4,0.5c-0.1,0.2-0.1,0.4-0.1,0.6c0,0.7,0.4,1.2,1.3,1.4l1.6,0.4c0.8,0.1,1.5,0.5,2,1c0.4,0.4,0.6,0.9,0.7,1.4
	c0.1,0.5,0,1.1-0.2,1.5c-0.2,0.4-0.4,0.7-0.7,1c-0.3,0.3-0.7,0.5-1.2,0.7c-0.5,0.2-1,0.3-1.6,0.3c-0.6,0-1.2-0.1-1.7-0.3
	c-0.4-0.2-0.8-0.4-1.2-0.7c-0.3-0.3-0.6-0.6-0.7-0.9c-0.2-0.3-0.3-0.6-0.3-1L192.6,291.8z"/>
<path class="st1" d="M47.9,318.2H20.3v27.5h27.5V318.2z"/>
<path class="st2" d="M25.5,333.1l5.1,5.1l11.9-11.9"/>
<path class="st3" d="M87.2,339.5L78.8,327v12.6H77v-14.8h2.3l7.9,11.9v-11.9h1.8v14.8H87.2z"/>
<path class="st3" d="M96.9,329.2c0.7,0,1.4,0.1,2,0.4c0.6,0.3,1.1,0.6,1.6,1.1c0.4,0.5,0.8,1.1,1,1.7c0.3,0.7,0.4,1.4,0.4,2.1
	c0,0.7-0.1,1.5-0.4,2.2c-0.2,0.6-0.6,1.2-1,1.7c-0.5,0.5-1,0.8-1.6,1.1c-0.6,0.3-1.3,0.4-2,0.4c-0.7,0-1.4-0.1-2-0.4
	c-0.6-0.3-1.1-0.6-1.6-1.1c-0.5-0.5-0.8-1.1-1-1.7c-0.3-0.7-0.4-1.4-0.4-2.2c0-0.7,0.1-1.5,0.4-2.1c0.3-0.6,0.7-1.2,1.2-1.6
	c0.5-0.5,1-0.8,1.6-1.1C95.6,329.4,96.3,329.2,96.9,329.2z M96.9,330.7c-0.4,0-0.9,0.1-1.3,0.3c-0.4,0.2-0.8,0.4-1.1,0.7
	c-0.3,0.3-0.6,0.7-0.7,1.2c-0.4,1.1-0.4,2.2,0,3.3c0.2,0.4,0.4,0.8,0.7,1.2c0.3,0.3,0.7,0.6,1.1,0.7c0.4,0.2,0.8,0.3,1.3,0.3
	c0.4,0,0.9-0.1,1.3-0.3c0.4-0.2,0.8-0.4,1.1-0.7c0.3-0.3,0.6-0.7,0.7-1.2c0.4-1.1,0.4-2.2,0-3.3c-0.2-0.4-0.4-0.8-0.7-1.2
	c-0.3-0.3-0.7-0.6-1.1-0.7C97.8,330.8,97.4,330.7,96.9,330.7z"/>
<path class="st3" d="M106.8,329.5h2.3v1.5h-2.3v5.5c0,0.4,0.1,0.8,0.4,1.2c0.2,0.1,0.3,0.2,0.5,0.3c0.2,0.1,0.4,0.1,0.6,0.1
	c0.2,0,0.3,0,0.5,0c0.1,0,0.3,0,0.4-0.1v1.4l-0.5,0.1c-0.3,0.1-0.5,0.1-0.8,0.1c-0.4,0-0.7,0-1.1-0.2c-0.3-0.1-0.7-0.3-0.9-0.6
	c-0.3-0.3-0.5-0.6-0.6-1c-0.1-0.4-0.2-0.8-0.2-1.1V331h-2v-1.5h0.6c0.2,0,0.4,0,0.6-0.1c0.2-0.1,0.4-0.2,0.5-0.3
	c0.2-0.3,0.4-0.7,0.3-1.2v-1.6h1.6L106.8,329.5z"/>
<path class="st3" d="M119.9,336.7c-0.1,0.4-0.3,0.9-0.6,1.2c-0.3,0.4-0.6,0.7-1,1c-0.4,0.3-0.8,0.5-1.3,0.7
	c-0.5,0.2-1.1,0.2-1.6,0.2c-0.7,0-1.3-0.1-1.9-0.3c-0.6-0.2-1.1-0.6-1.6-1c-0.5-0.5-0.8-1.1-1.1-1.7c-0.3-0.7-0.4-1.5-0.4-2.3
	c0-0.7,0.1-1.5,0.4-2.2c0.2-0.6,0.6-1.2,1-1.7c0.4-0.5,0.9-0.8,1.5-1.1c0.6-0.2,1.2-0.4,1.8-0.4c0.7,0,1.4,0.1,2,0.4
	c0.6,0.2,1.1,0.6,1.5,1.1c0.4,0.5,0.7,1,0.9,1.6c0.2,0.7,0.3,1.4,0.3,2.1c0,0.1,0,0.2,0,0.3c0,0.1,0,0.2,0,0.3h-7.8v0.1
	c0,0.9,0.3,1.7,0.9,2.3c0.3,0.3,0.6,0.5,1,0.7c0.4,0.2,0.8,0.2,1.3,0.2c0.7,0,1.4-0.2,2-0.6c0.5-0.4,0.8-0.9,1-1.5L119.9,336.7z
	 M118.2,333.5c0-0.7-0.3-1.5-0.8-2c-0.3-0.3-0.6-0.5-1-0.7c-0.4-0.1-0.8-0.2-1.2-0.2c-0.4,0-0.8,0.1-1.2,0.2
	c-0.3,0.2-0.7,0.4-0.9,0.6c-0.3,0.3-0.5,0.6-0.6,0.9c-0.2,0.3-0.2,0.7-0.3,1.1H118.2z"/>
<path class="st3" d="M123.2,336.4c0.1,0.6,0.3,1.1,0.7,1.5c0.5,0.4,1.1,0.6,1.8,0.6c0.5,0,1-0.1,1.4-0.4c0.2-0.1,0.3-0.3,0.4-0.5
	c0.1-0.2,0.1-0.4,0.1-0.6c0-0.2,0-0.4-0.1-0.5c-0.1-0.2-0.2-0.3-0.3-0.4c-0.3-0.3-0.7-0.5-1.2-0.5l-1.6-0.4c-0.7-0.1-1.3-0.5-1.8-1
	c-0.5-0.5-0.7-1.1-0.7-1.8c0-0.4,0.1-0.8,0.3-1.2c0.2-0.4,0.4-0.7,0.8-1c0.3-0.3,0.7-0.5,1.2-0.7c0.4-0.2,0.9-0.2,1.3-0.2
	c0.6,0,1.1,0.1,1.6,0.3c0.4,0.2,0.8,0.4,1.2,0.7c0.5,0.5,0.8,1.1,1,1.7l-1.5,0.5c0-0.2-0.1-0.4-0.2-0.6c-0.1-0.2-0.2-0.4-0.4-0.6
	c-0.2-0.2-0.4-0.4-0.7-0.5c-0.3-0.1-0.7-0.2-1-0.2c-0.5,0-1,0.1-1.3,0.4c-0.2,0.1-0.3,0.3-0.4,0.5c-0.1,0.2-0.1,0.4-0.1,0.6
	c0,0.7,0.4,1.2,1.3,1.4l1.6,0.4c0.8,0.1,1.5,0.5,2,1c0.5,0.5,0.7,1.2,0.7,1.9c0,0.4-0.1,0.7-0.2,1.1c-0.2,0.4-0.4,0.7-0.7,1
	c-0.3,0.3-0.7,0.5-1.2,0.7c-0.5,0.2-1,0.3-1.6,0.3c-0.6,0-1.2-0.1-1.7-0.3c-0.4-0.2-0.8-0.4-1.2-0.7c-0.3-0.3-0.6-0.6-0.7-0.9
	c-0.2-0.3-0.3-0.7-0.3-1L123.2,336.4z"/>
<path class="st1" d="M47.9,362.8H20.3v27.5h27.5V362.8z"/>
<path class="st2" d="M25.5,377.7l5.1,5.1l11.9-11.9"/>
<path class="st3" d="M78.8,378v6.2H77v-14.8h5.2c0.6,0,1.3,0.1,1.9,0.3c0.5,0.2,1,0.5,1.4,0.9c0.4,0.4,0.7,0.9,0.9,1.4
	c0.2,0.5,0.3,1.1,0.3,1.7c0,0.6-0.1,1.2-0.3,1.7c-0.2,0.5-0.5,1-0.9,1.4c-0.4,0.4-0.9,0.7-1.4,0.9c-0.6,0.2-1.2,0.3-1.9,0.3H78.8z
	 M81.9,376.4c0.8,0,1.6-0.2,2.3-0.8c0.3-0.3,0.5-0.6,0.6-0.9c0.1-0.3,0.2-0.7,0.2-1.1c0-0.4,0-0.8-0.2-1.1c-0.1-0.4-0.4-0.7-0.6-0.9
	c-0.6-0.5-1.4-0.8-2.3-0.8h-3.1v5.6H81.9z"/>
<path class="st3" d="M94.2,375.8c-0.1,0-0.3-0.1-0.4-0.1h-0.4c-0.4,0-0.7,0-1.1,0.2s-0.7,0.3-0.9,0.6c-0.3,0.3-0.5,0.7-0.6,1.1
	c-0.1,0.4-0.2,0.9-0.1,1.3v5.2h-1.7v-10h1.6v1.8c0.2-0.3,0.4-0.7,0.6-1c0.2-0.2,0.5-0.4,0.8-0.6c0.3-0.1,0.5-0.3,0.8-0.3
	c0.3-0.1,0.6-0.1,0.8-0.1c0.1,0,0.3,0,0.4,0c0.1,0,0.2,0,0.3,0L94.2,375.8z"/>
<path class="st3" d="M104.8,381.3c-0.1,0.4-0.3,0.8-0.6,1.2c-0.3,0.4-0.6,0.7-1,1c-0.4,0.3-0.8,0.5-1.3,0.7
	c-0.5,0.2-1.1,0.3-1.6,0.3c-0.7,0-1.3-0.1-1.9-0.4c-0.6-0.2-1.1-0.6-1.6-1c-0.5-0.5-0.8-1.1-1.1-1.7c-0.3-0.7-0.4-1.5-0.4-2.2
	c0-0.7,0.1-1.5,0.4-2.2c0.2-0.6,0.6-1.2,1-1.7c0.4-0.5,0.9-0.8,1.5-1.1c0.6-0.3,1.2-0.4,1.8-0.4c0.7,0,1.4,0.1,2,0.4
	c0.6,0.2,1.1,0.6,1.5,1.1c0.4,0.5,0.7,1,0.9,1.6c0.2,0.7,0.3,1.4,0.3,2.1v0.3c0,0.1,0,0.2,0,0.3h-7.8v0.1c0,0.4,0.1,0.9,0.2,1.3
	c0.2,0.4,0.4,0.7,0.7,1c0.3,0.3,0.6,0.5,1,0.7c0.4,0.2,0.8,0.2,1.3,0.2c0.7,0,1.4-0.2,2-0.6c0.5-0.4,0.8-0.9,1-1.5L104.8,381.3z
	 M103.2,378.1c0-0.7-0.3-1.5-0.8-2c-0.3-0.3-0.6-0.5-1-0.7c-0.4-0.1-0.8-0.2-1.2-0.2c-0.4,0-0.8,0.1-1.2,0.2
	c-0.3,0.2-0.7,0.4-0.9,0.6c-0.3,0.3-0.5,0.6-0.6,0.9c-0.2,0.3-0.2,0.7-0.3,1.1H103.2z"/>
<path class="st3" d="M108.1,381c0.1,0.6,0.3,1.1,0.7,1.5c0.5,0.4,1.1,0.6,1.8,0.6c0.5,0,1-0.1,1.4-0.4c0.2-0.1,0.3-0.3,0.4-0.5
	c0.1-0.2,0.1-0.4,0.1-0.6c0-0.2,0-0.4-0.1-0.5c-0.1-0.2-0.2-0.3-0.3-0.4c-0.3-0.3-0.7-0.4-1.1-0.5l-1.6-0.4c-0.7-0.1-1.3-0.5-1.8-1
	c-0.2-0.2-0.4-0.5-0.5-0.8c-0.1-0.3-0.2-0.6-0.2-1c0-0.4,0.1-0.8,0.3-1.2c0.2-0.4,0.4-0.7,0.8-1c0.3-0.3,0.7-0.5,1.2-0.7
	c0.4-0.2,0.9-0.2,1.3-0.2c0.6,0,1.1,0.1,1.6,0.3c0.4,0.1,0.8,0.4,1.2,0.7c0.3,0.3,0.5,0.6,0.7,0.9c0.1,0.3,0.2,0.6,0.3,0.9l-1.5,0.5
	c0-0.2-0.1-0.4-0.2-0.6c-0.1-0.2-0.2-0.4-0.4-0.6c-0.2-0.2-0.4-0.4-0.7-0.5c-0.3-0.1-0.6-0.2-1-0.2c-0.5,0-1,0.1-1.3,0.4
	c-0.2,0.1-0.3,0.3-0.4,0.5c-0.1,0.2-0.1,0.4-0.1,0.6c0,0.7,0.4,1.2,1.3,1.4l1.6,0.4c0.8,0.1,1.5,0.5,2,1c0.5,0.5,0.7,1.2,0.7,1.9
	c0,0.4-0.1,0.8-0.2,1.1c-0.2,0.4-0.4,0.7-0.7,1c-0.3,0.3-0.7,0.5-1.2,0.7c-0.5,0.2-1,0.3-1.6,0.3c-0.6,0-1.2-0.1-1.7-0.3
	c-0.4-0.2-0.8-0.4-1.2-0.7c-0.3-0.3-0.6-0.6-0.7-0.9c-0.2-0.3-0.3-0.6-0.3-1L108.1,381z"/>
<path class="st3" d="M117.5,381c0.1,0.6,0.3,1.1,0.7,1.5c0.5,0.4,1.1,0.6,1.8,0.6c0.5,0,1-0.1,1.4-0.4c0.2-0.1,0.3-0.3,0.4-0.5
	c0.1-0.2,0.1-0.4,0.1-0.6c0-0.2,0-0.4-0.1-0.5c-0.1-0.2-0.2-0.3-0.3-0.4c-0.3-0.3-0.7-0.5-1.2-0.5l-1.6-0.4c-0.7-0.1-1.3-0.5-1.8-1
	c-0.2-0.2-0.4-0.5-0.5-0.8c-0.1-0.3-0.2-0.6-0.2-1c0-0.4,0.1-0.8,0.3-1.2c0.2-0.4,0.4-0.7,0.8-1c0.3-0.3,0.7-0.5,1.2-0.7
	c0.4-0.2,0.9-0.2,1.4-0.2c0.6,0,1.1,0.1,1.6,0.3c0.4,0.1,0.8,0.4,1.2,0.7c0.3,0.3,0.5,0.6,0.7,0.9c0.1,0.3,0.2,0.6,0.3,0.8l-1.5,0.5
	c0-0.2-0.1-0.4-0.2-0.6c-0.1-0.2-0.2-0.4-0.4-0.6c-0.2-0.2-0.4-0.4-0.7-0.5c-0.3-0.1-0.6-0.2-1-0.2c-0.5,0-1,0.1-1.3,0.4
	c-0.2,0.1-0.3,0.3-0.4,0.5c-0.1,0.2-0.1,0.4-0.1,0.6c0,0.7,0.4,1.2,1.3,1.4l1.6,0.4c0.8,0.1,1.5,0.5,2,1c0.5,0.5,0.7,1.2,0.7,1.9
	c0,0.4-0.1,0.7-0.2,1.1c-0.2,0.4-0.4,0.7-0.7,1c-0.3,0.3-0.7,0.5-1.2,0.7c-0.5,0.2-1,0.3-1.6,0.3c-0.6,0-1.2-0.1-1.7-0.3
	c-0.4-0.2-0.8-0.4-1.2-0.7c-0.3-0.3-0.6-0.6-0.7-0.9c-0.2-0.3-0.3-0.6-0.3-1L117.5,381z"/>
<path class="st3" d="M136.3,377.9h-2.6v6.2H132v-14.8h5.4c0.6,0,1.3,0.1,1.8,0.3c0.5,0.2,1,0.5,1.4,0.9c0.4,0.4,0.7,0.9,0.9,1.4
	c0.2,0.5,0.3,1.1,0.3,1.7c0,1-0.3,2-1,2.8c-0.7,0.8-1.6,1.3-2.7,1.4l3.6,6.4h-2.1L136.3,377.9z M137.1,376.3c0.8,0,1.6-0.2,2.2-0.7
	c0.3-0.3,0.5-0.6,0.6-0.9c0.1-0.3,0.2-0.7,0.2-1.1c0-0.4,0-0.7-0.2-1.1c-0.1-0.3-0.4-0.7-0.6-0.9c-0.6-0.5-1.4-0.8-2.2-0.8h-3.4v5.5
	H137.1z"/>
<path class="st3" d="M152.9,381.3c-0.1,0.4-0.4,0.8-0.6,1.2c-0.3,0.4-0.6,0.7-1,1c-0.4,0.3-0.8,0.5-1.3,0.7
	c-0.5,0.2-1.1,0.3-1.6,0.3c-0.7,0-1.3-0.1-1.9-0.4c-0.6-0.2-1.1-0.6-1.6-1c-0.5-0.5-0.8-1.1-1.1-1.7c-0.3-0.7-0.4-1.5-0.4-2.2
	c0-0.7,0.1-1.5,0.4-2.2c0.2-0.6,0.6-1.2,1-1.7c0.4-0.5,0.9-0.8,1.5-1.1c0.6-0.2,1.2-0.4,1.8-0.4c0.7,0,1.4,0.1,2,0.4
	c0.6,0.2,1.1,0.6,1.5,1.1c0.4,0.5,0.7,1,0.9,1.6c0.2,0.7,0.3,1.4,0.3,2.1c0,0.1,0,0.2,0,0.3c0,0.1,0,0.2,0,0.3h-7.7v0
	c0,0.4,0.1,0.9,0.3,1.3c0.2,0.4,0.4,0.7,0.7,1c0.3,0.3,0.6,0.5,1,0.7c0.4,0.2,0.8,0.2,1.3,0.2c0.7,0,1.4-0.2,2-0.6
	c0.5-0.4,0.8-0.9,1-1.5L152.9,381.3z M151.3,378.1c0-0.8-0.3-1.5-0.8-2c-0.3-0.3-0.6-0.5-1-0.7c-0.4-0.1-0.8-0.2-1.2-0.2
	c-0.4,0-0.8,0.1-1.2,0.2c-0.3,0.2-0.7,0.4-0.9,0.6c-0.3,0.3-0.5,0.6-0.6,0.9c-0.2,0.3-0.2,0.7-0.3,1.1H151.3z"/>
<path class="st3" d="M155.5,384.1V369h1.7v15.1H155.5z"/>
<path class="st3" d="M169.1,381.3c-0.1,0.4-0.4,0.8-0.6,1.2c-0.3,0.4-0.6,0.7-1,1c-0.4,0.3-0.8,0.5-1.3,0.7
	c-0.5,0.2-1.1,0.3-1.6,0.3c-0.7,0-1.3-0.1-1.9-0.4c-0.6-0.2-1.1-0.6-1.6-1c-0.5-0.5-0.8-1.1-1.1-1.7c-0.3-0.7-0.4-1.5-0.4-2.2
	c0-0.7,0.1-1.5,0.4-2.2c0.2-0.6,0.6-1.2,1-1.7c0.4-0.5,0.9-0.8,1.5-1.1c0.6-0.3,1.2-0.4,1.8-0.4c0.7,0,1.4,0.1,2,0.4
	c0.6,0.2,1.1,0.6,1.5,1.1c0.4,0.5,0.7,1,0.9,1.6c0.2,0.7,0.3,1.4,0.3,2.1c0,0.1,0,0.2,0,0.3c0,0.1,0,0.2,0,0.3h-7.7v0.1
	c0,0.4,0.1,0.9,0.3,1.3c0.2,0.4,0.4,0.7,0.7,1c0.3,0.3,0.6,0.5,1,0.7c0.4,0.2,0.8,0.2,1.3,0.2c0.7,0,1.4-0.2,2-0.6
	c0.5-0.4,0.8-0.9,1-1.5L169.1,381.3z M167.4,378.1c0-0.7-0.3-1.5-0.8-2c-0.3-0.3-0.6-0.5-1-0.7c-0.4-0.1-0.8-0.2-1.2-0.2
	c-0.4,0-0.8,0.1-1.2,0.2c-0.3,0.2-0.7,0.4-0.9,0.6c-0.3,0.3-0.5,0.6-0.6,0.9c-0.2,0.3-0.2,0.7-0.3,1.1H167.4z"/>
<path class="st3" d="M171,381.5c0-0.4,0-0.8,0.2-1.1c0.1-0.4,0.4-0.7,0.6-0.9c0.6-0.5,1.4-0.9,2.2-0.9l2.7-0.4
	c0.3,0,0.5-0.1,0.7-0.3c0.1-0.2,0.2-0.3,0.2-0.5c0-0.3,0-0.5-0.1-0.8c-0.1-0.2-0.2-0.5-0.4-0.7c-0.2-0.2-0.5-0.4-0.8-0.5
	c-0.3-0.1-0.6-0.1-0.9-0.1c-0.6,0-1.3,0.2-1.7,0.6c-0.4,0.4-0.7,1-0.7,1.6l-1.6-0.4c0.1-0.5,0.2-0.9,0.4-1.3c0.2-0.4,0.5-0.7,0.9-1
	c0.4-0.3,0.8-0.5,1.2-0.7c0.5-0.2,1-0.2,1.5-0.2c0.6,0,1.2,0.1,1.8,0.3c0.5,0.2,0.9,0.4,1.3,0.8c0.3,0.3,0.6,0.7,0.7,1.2
	c0.2,0.4,0.2,0.9,0.2,1.4v5.1c0,0.4,0,0.8,0,1c0,0.3,0,0.5,0.1,0.6h-1.6c0-0.2-0.1-0.4-0.1-0.5c0-0.3,0-0.6,0-1
	c-0.1,0.2-0.3,0.4-0.4,0.6c-0.2,0.2-0.4,0.4-0.7,0.6c-0.3,0.2-0.6,0.3-1,0.4c-0.4,0.1-0.8,0.2-1.2,0.2c-0.5,0-1-0.1-1.4-0.3
	c-0.4-0.1-0.7-0.4-1-0.7c-0.3-0.3-0.5-0.6-0.7-0.9C171.1,382.2,171,381.9,171,381.5z M174.5,383c0.4,0,0.8-0.1,1.2-0.2
	c0.4-0.1,0.7-0.3,1-0.6c0.3-0.3,0.5-0.6,0.7-1c0.2-0.4,0.3-0.9,0.2-1.4v-0.7l-3.3,0.5c-0.4,0.1-0.8,0.2-1.2,0.5
	c-0.2,0.1-0.3,0.3-0.4,0.5c-0.1,0.2-0.1,0.4-0.1,0.6c0,0.2,0,0.4,0.1,0.6c0.1,0.2,0.2,0.4,0.4,0.5c0.2,0.2,0.4,0.3,0.6,0.4
	C174,383,174.3,383,174.5,383L174.5,383z"/>
<path class="st3" d="M183,381c0.1,0.6,0.3,1.1,0.7,1.5c0.5,0.4,1.1,0.6,1.8,0.6c0.5,0,1-0.1,1.4-0.4c0.2-0.1,0.3-0.3,0.4-0.5
	c0.1-0.2,0.1-0.4,0.1-0.6c0-0.2,0-0.4-0.1-0.5c-0.1-0.2-0.2-0.3-0.3-0.4c-0.3-0.3-0.7-0.5-1.2-0.5l-1.6-0.4c-0.7-0.1-1.3-0.5-1.8-1
	c-0.2-0.2-0.4-0.5-0.5-0.8c-0.1-0.3-0.2-0.6-0.2-1c0-0.4,0.1-0.8,0.3-1.2c0.2-0.4,0.4-0.7,0.8-1c0.3-0.3,0.7-0.5,1.2-0.7
	c0.4-0.2,0.9-0.3,1.4-0.3c0.6,0,1.1,0.1,1.6,0.3c0.4,0.1,0.8,0.4,1.2,0.7c0.3,0.3,0.5,0.6,0.7,0.9c0.1,0.3,0.2,0.6,0.3,0.9l-1.5,0.5
	c0-0.2-0.1-0.4-0.2-0.6c-0.1-0.2-0.2-0.4-0.4-0.6c-0.2-0.2-0.4-0.4-0.7-0.5c-0.3-0.1-0.6-0.2-1-0.2c-0.5,0-1,0.1-1.3,0.4
	c-0.2,0.1-0.3,0.3-0.4,0.5c-0.1,0.2-0.1,0.4-0.1,0.6c0,0.7,0.4,1.2,1.3,1.4l1.6,0.4c0.8,0.1,1.5,0.5,2,1c0.5,0.5,0.7,1.2,0.7,1.9
	c0,0.4-0.1,0.8-0.2,1.1c-0.2,0.4-0.4,0.7-0.7,1c-0.3,0.3-0.7,0.5-1.2,0.7c-0.5,0.2-1,0.3-1.6,0.3c-0.6,0-1.2-0.1-1.7-0.3
	c-0.4-0.2-0.8-0.4-1.2-0.7c-0.3-0.3-0.6-0.6-0.7-0.9c-0.2-0.3-0.3-0.6-0.3-1L183,381z"/>
<path class="st3" d="M200.4,381.3c-0.1,0.4-0.3,0.8-0.6,1.2c-0.3,0.4-0.6,0.7-1,1c-0.4,0.3-0.8,0.5-1.3,0.7
	c-0.5,0.2-1.1,0.3-1.6,0.3c-0.7,0-1.3-0.1-1.9-0.4c-0.6-0.2-1.1-0.6-1.6-1c-0.5-0.5-0.8-1.1-1.1-1.7c-0.3-0.7-0.4-1.5-0.4-2.2
	c0-0.7,0.1-1.5,0.4-2.2c0.2-0.6,0.6-1.2,1-1.7c0.4-0.5,0.9-0.8,1.5-1.1c0.6-0.3,1.2-0.4,1.8-0.4c0.7,0,1.4,0.1,2,0.4
	c0.6,0.2,1.1,0.6,1.5,1.1c0.4,0.5,0.7,1,0.9,1.6c0.2,0.7,0.3,1.4,0.3,2.1c0,0.1,0,0.2,0,0.3c0,0.1,0,0.2,0,0.3h-7.7v0
	c0,0.4,0.1,0.9,0.3,1.3c0.2,0.4,0.4,0.7,0.7,1c0.3,0.3,0.6,0.5,1,0.7c0.4,0.2,0.8,0.2,1.3,0.2c0.7,0,1.4-0.2,2-0.6
	c0.5-0.4,0.8-0.9,1-1.5L200.4,381.3z M198.7,378.1c0-0.7-0.3-1.5-0.8-2c-0.3-0.3-0.6-0.5-1-0.7c-0.4-0.1-0.8-0.2-1.2-0.2
	c-0.4,0-0.8,0.1-1.2,0.2c-0.3,0.2-0.7,0.4-0.9,0.6c-0.3,0.3-0.5,0.6-0.6,0.9c-0.2,0.3-0.2,0.7-0.3,1.1H198.7z"/>
<path class="st3" d="M203.7,381c0.1,0.6,0.3,1.1,0.7,1.5c0.5,0.4,1.1,0.6,1.8,0.6c0.5,0,1-0.1,1.4-0.4c0.2-0.1,0.3-0.3,0.4-0.5
	c0.1-0.2,0.1-0.4,0.1-0.6c0-0.2,0-0.4-0.1-0.5c-0.1-0.2-0.2-0.3-0.3-0.4c-0.3-0.3-0.7-0.4-1.1-0.5l-1.6-0.4c-0.7-0.1-1.3-0.5-1.8-1
	c-0.5-0.5-0.7-1.1-0.7-1.8c0-0.4,0.1-0.8,0.3-1.2c0.2-0.4,0.4-0.7,0.7-1c0.3-0.3,0.7-0.5,1.2-0.7c0.4-0.2,0.9-0.2,1.3-0.2
	c0.6,0,1.1,0.1,1.6,0.3c0.4,0.1,0.8,0.4,1.2,0.7c0.3,0.3,0.5,0.6,0.7,0.9c0.1,0.3,0.2,0.6,0.3,0.8l-1.5,0.5c0-0.2-0.1-0.4-0.2-0.6
	c-0.1-0.2-0.2-0.4-0.4-0.6c-0.2-0.2-0.4-0.4-0.7-0.5c-0.3-0.1-0.6-0.2-1-0.2c-0.5,0-0.9,0.1-1.3,0.4c-0.2,0.1-0.3,0.3-0.4,0.5
	s-0.1,0.4-0.1,0.6c0,0.7,0.4,1.2,1.3,1.4l1.6,0.4c0.8,0.1,1.5,0.5,2,1c0.5,0.5,0.7,1.2,0.7,1.9c0,0.4-0.1,0.7-0.2,1.1
	c-0.2,0.4-0.4,0.7-0.7,1c-0.3,0.3-0.7,0.5-1.2,0.7c-0.5,0.2-1,0.3-1.6,0.3c-0.6,0-1.2-0.1-1.7-0.3c-0.4-0.2-0.8-0.4-1.2-0.7
	c-0.3-0.3-0.6-0.6-0.7-0.9c-0.2-0.3-0.3-0.6-0.3-1L203.7,381z"/>
<path class="st1" d="M47.9,409H20.3v27.5h27.5V409z"/>
<path class="st2" d="M25.5,424l5.1,5.1l11.9-11.9"/>
<path class="st3" d="M88.4,430.4l-0.2-2.4c-0.4,0.8-1,1.4-1.7,1.8c-1,0.6-2.2,0.9-3.3,0.9c-0.9,0-1.8-0.2-2.6-0.5
	c-0.9-0.3-1.7-0.8-2.3-1.5c-0.7-0.7-1.2-1.5-1.6-2.4c-0.4-1.1-0.6-2.2-0.6-3.3c0-1.1,0.2-2.3,0.6-3.3c0.4-0.9,1-1.7,1.7-2.4
	c0.7-0.6,1.5-1.1,2.3-1.5c0.9-0.3,1.8-0.5,2.7-0.5c0.8,0,1.5,0.1,2.2,0.3c0.7,0.2,1.3,0.5,1.9,0.9c0.6,0.4,1,0.9,1.5,1.4
	c0.4,0.6,0.7,1.2,0.9,1.8l-1.6,0.7c-0.3-1-0.9-2-1.8-2.6c-0.9-0.6-2-1-3.1-0.9c-0.7,0-1.4,0.1-2,0.4c-0.7,0.3-1.3,0.7-1.8,1.2
	c-0.5,0.5-0.9,1.2-1.2,1.9c-0.3,0.8-0.5,1.8-0.5,2.7c0,0.9,0.1,1.8,0.5,2.7c0.3,0.7,0.7,1.4,1.2,1.9c0.5,0.5,1.1,0.9,1.7,1.2
	c0.6,0.3,1.3,0.4,2,0.4c0.8,0,1.5-0.1,2.2-0.4c0.6-0.3,1.1-0.6,1.5-1.1c0.4-0.4,0.7-0.9,0.8-1.4c0.2-0.4,0.3-0.9,0.3-1.4h-5.3v-1.6
	h7v7.2L88.4,430.4z"/>
<path class="st3" d="M92.8,430.4v-15.1h1.7v15.1H92.8z"/>
<path class="st3" d="M102,420.1c0.7,0,1.4,0.1,2,0.4c0.6,0.3,1.1,0.6,1.6,1.1c0.5,0.5,0.8,1.1,1,1.7c0.5,1.4,0.5,2.9,0,4.3
	c-0.2,0.6-0.6,1.2-1,1.7c-0.4,0.5-1,0.9-1.6,1.1c-0.6,0.3-1.3,0.4-2,0.4c-0.7,0-1.4-0.1-2-0.4c-0.6-0.3-1.1-0.6-1.6-1.1
	c-0.5-0.5-0.8-1-1-1.7c-0.5-1.4-0.5-2.9,0-4.3c0.2-0.6,0.6-1.2,1-1.7c0.5-0.5,1-0.8,1.6-1.1C100.7,420.2,101.3,420.1,102,420.1z
	 M102,421.6c-0.4,0-0.9,0.1-1.3,0.3c-0.4,0.2-0.8,0.4-1.1,0.7c-0.3,0.3-0.6,0.7-0.7,1.2c-0.4,1-0.4,2.2,0,3.2
	c0.2,0.4,0.4,0.8,0.7,1.2c0.3,0.3,0.7,0.6,1.1,0.7c0.4,0.2,0.8,0.3,1.3,0.3c0.4,0,0.9-0.1,1.3-0.3c0.4-0.2,0.8-0.4,1.1-0.7
	c0.3-0.3,0.6-0.7,0.7-1.2c0.3-1,0.3-2.1,0-3.2c-0.2-0.4-0.4-0.8-0.7-1.2c-0.3-0.3-0.7-0.6-1.1-0.7
	C102.9,421.7,102.5,421.6,102,421.6z"/>
<path class="st3" d="M109.5,430.4v-15.1h1.7v6.7c0.1-0.3,0.3-0.5,0.5-0.7c0.2-0.2,0.5-0.5,0.7-0.6c0.3-0.2,0.6-0.3,1-0.4
	c0.4-0.1,0.8-0.2,1.2-0.2c0.7,0,1.4,0.1,2,0.4c0.6,0.3,1.1,0.7,1.4,1.2c0.4,0.5,0.7,1.1,0.9,1.7c0.2,0.7,0.3,1.4,0.3,2.1
	c0,0.7-0.1,1.4-0.3,2.1c-0.2,0.6-0.5,1.2-0.9,1.7c-0.4,0.5-0.9,0.9-1.4,1.2c-0.6,0.3-1.3,0.4-1.9,0.4c-0.7,0-1.4-0.1-2-0.5
	c-0.6-0.3-1.1-0.9-1.5-1.5v1.7L109.5,430.4z M114.3,429.2c0.5,0,0.9-0.1,1.3-0.3c0.4-0.2,0.7-0.4,1-0.8c0.3-0.3,0.5-0.7,0.6-1.2
	c0.2-0.5,0.2-1,0.2-1.5c0-0.5-0.1-1-0.2-1.5c-0.1-0.4-0.4-0.8-0.6-1.2c-0.3-0.3-0.6-0.6-1-0.8c-0.4-0.2-0.9-0.3-1.3-0.3
	c-0.5,0-0.9,0.1-1.3,0.3c-0.4,0.1-0.7,0.4-1,0.7c-0.3,0.3-0.5,0.7-0.6,1.2c-0.1,0.5-0.2,1-0.2,1.5c0,0.5,0.1,1,0.2,1.5
	c0.1,0.4,0.4,0.8,0.6,1.2c0.3,0.3,0.6,0.6,1,0.8C113.5,429,113.9,429.1,114.3,429.2L114.3,429.2z"/>
<path class="st3" d="M121,427.7c0-0.4,0-0.8,0.2-1.1c0.1-0.4,0.4-0.7,0.6-0.9c0.6-0.5,1.4-0.8,2.2-0.9l2.7-0.4
	c0.3,0,0.5-0.1,0.7-0.3c0.1-0.2,0.2-0.4,0.2-0.6c0-0.3,0-0.5-0.1-0.8c-0.1-0.2-0.2-0.5-0.4-0.6c-0.2-0.2-0.5-0.4-0.8-0.5
	s-0.6-0.1-0.9-0.1c-0.6,0-1.3,0.2-1.7,0.6c-0.4,0.4-0.7,1-0.7,1.6l-1.6-0.4c0.1-0.5,0.2-0.9,0.4-1.3c0.2-0.4,0.5-0.7,0.9-1
	c0.4-0.3,0.8-0.5,1.2-0.6c0.5-0.2,1-0.2,1.5-0.2c0.6,0,1.2,0.1,1.8,0.3c0.5,0.2,0.9,0.4,1.3,0.8c0.3,0.3,0.6,0.7,0.7,1.2
	c0.2,0.4,0.2,0.9,0.2,1.4v5.1c0,0.3,0,0.7,0,1c0,0.2,0,0.4,0.1,0.6h-1.6c0-0.2-0.1-0.4-0.1-0.5c0-0.2,0-0.6,0-1
	c-0.1,0.2-0.3,0.4-0.5,0.6c-0.2,0.2-0.4,0.4-0.7,0.6c-0.3,0.2-0.6,0.3-1,0.4c-0.4,0.1-0.8,0.2-1.2,0.2c-0.5,0-0.9-0.1-1.4-0.2
	c-0.4-0.2-0.7-0.4-1-0.7c-0.3-0.3-0.5-0.6-0.7-0.9C121.1,428.5,121,428.1,121,427.7z M124.5,429.3c0.4,0,0.8-0.1,1.2-0.2
	c0.4-0.1,0.7-0.3,1-0.6c0.3-0.3,0.5-0.6,0.6-1c0.2-0.4,0.3-0.9,0.2-1.4v-0.7l-3.3,0.5c-0.4,0.1-0.8,0.2-1.2,0.5
	c-0.2,0.1-0.3,0.3-0.4,0.5c-0.1,0.2-0.1,0.4-0.1,0.6c0,0.2,0,0.4,0.1,0.6s0.2,0.4,0.4,0.5c0.2,0.2,0.4,0.3,0.7,0.4
	C124,429.3,124.3,429.3,124.5,429.3L124.5,429.3z"/>
<path class="st3" d="M132.3,430.4v-15.1h1.7v15.1H132.3z"/>
<path class="st3" d="M143,430.4v-14.8h8.9v1.6h-7.2v5.2h6.5v1.6h-6.5v6.4H143z"/>
<path class="st3" d="M153.9,416.4c0-0.2,0-0.3,0.1-0.5c0.1-0.2,0.2-0.3,0.3-0.4c0.1-0.1,0.3-0.2,0.4-0.3c0.2-0.1,0.3-0.1,0.5-0.1
	c0.2,0,0.3,0,0.5,0.1c0.2,0.1,0.3,0.2,0.4,0.3c0.1,0.1,0.2,0.3,0.3,0.4c0.1,0.2,0.1,0.3,0.1,0.5c0,0.3-0.1,0.6-0.4,0.9
	c-0.2,0.2-0.6,0.4-0.9,0.4c-0.2,0-0.3,0-0.5-0.1c-0.2-0.1-0.3-0.2-0.4-0.3c-0.1-0.1-0.2-0.3-0.3-0.4
	C154,416.7,153.9,416.6,153.9,416.4z M154.4,430.4v-10h1.7v10L154.4,430.4z"/>
<path class="st3" d="M159.2,430.4v-15.1h1.7v15.1H159.2z"/>
<path class="st3" d="M163.5,416.4c0-0.2,0-0.3,0.1-0.5c0.1-0.2,0.2-0.3,0.3-0.4c0.1-0.1,0.3-0.2,0.4-0.3c0.2-0.1,0.3-0.1,0.5-0.1
	c0.2,0,0.3,0,0.5,0.1c0.2,0.1,0.3,0.2,0.4,0.3c0.1,0.1,0.2,0.3,0.3,0.4s0.1,0.3,0.1,0.5c0,0.3-0.1,0.6-0.4,0.9
	c-0.2,0.2-0.6,0.4-0.9,0.4c-0.2,0-0.3,0-0.5-0.1c-0.2-0.1-0.3-0.2-0.4-0.3c-0.1-0.1-0.2-0.3-0.3-0.4
	C163.5,416.7,163.5,416.6,163.5,416.4z M163.9,430.4v-10h1.6v10L163.9,430.4z"/>
<path class="st3" d="M170.4,430.4h-1.7v-10.1h1.6v1.5c0.3-0.6,0.8-1,1.3-1.3c0.6-0.3,1.2-0.5,1.8-0.5c0.5,0,1.1,0.1,1.6,0.3
	c0.4,0.2,0.8,0.5,1.2,0.8c0.3,0.4,0.5,0.8,0.7,1.2c0.1,0.5,0.2,1,0.2,1.5v6.4h-1.7v-6.2c0-0.3,0-0.7-0.1-1c-0.1-0.3-0.2-0.6-0.4-0.8
	c-0.2-0.2-0.5-0.4-0.8-0.6c-0.4-0.1-0.8-0.2-1.2-0.2c-0.4,0-0.7,0.1-1.1,0.2c-0.3,0.1-0.6,0.4-0.8,0.6c-0.2,0.3-0.4,0.6-0.5,0.9
	c-0.1,0.4-0.2,0.8-0.2,1.2L170.4,430.4z"/>
<path class="st3" d="M181,430.5c0.1,0.7,0.4,1.4,0.9,1.9c0.3,0.3,0.6,0.4,0.9,0.6c0.3,0.1,0.7,0.2,1.1,0.2c0.5,0,1-0.1,1.5-0.3
	c0.4-0.2,0.7-0.4,1-0.7c0.3-0.3,0.5-0.7,0.6-1.1c0.1-0.5,0.2-0.9,0.2-1.4v-1.6c-0.3,0.6-0.8,1.1-1.3,1.4c-0.6,0.3-1.2,0.5-1.9,0.5
	c-0.6,0-1.3-0.1-1.8-0.4c-0.5-0.2-1-0.6-1.4-1c-0.4-0.5-0.7-1-0.9-1.6c-0.4-1.3-0.4-2.6,0-3.9c0.2-0.6,0.5-1.1,1-1.6
	c0.4-0.4,0.9-0.8,1.4-1c0.6-0.3,1.2-0.4,1.9-0.4c0.7,0,1.4,0.1,2,0.5c0.5,0.3,0.9,0.7,1.2,1.2v-1.5h1.7v9.3c0,0.6-0.1,1.2-0.2,1.8
	c-0.1,0.6-0.4,1.1-0.8,1.6c-0.4,0.5-0.9,0.9-1.5,1.2c-0.7,0.3-1.5,0.5-2.3,0.4c-0.6,0-1.2-0.1-1.7-0.3c-0.5-0.2-1-0.4-1.4-0.8
	c-0.4-0.3-0.7-0.7-1-1.2c-0.2-0.5-0.4-1-0.5-1.5L181,430.5z M187.2,425c0-0.9-0.3-1.8-0.8-2.5c-0.3-0.3-0.6-0.5-1-0.7
	c-0.4-0.2-0.8-0.2-1.2-0.2c-0.4,0-0.8,0.1-1.2,0.2c-0.4,0.2-0.7,0.4-1,0.7c-0.5,0.7-0.8,1.6-0.8,2.5c0,0.9,0.3,1.8,0.8,2.5
	c0.3,0.3,0.6,0.5,1,0.7c0.4,0.2,0.8,0.2,1.2,0.2c0.4,0,0.8-0.1,1.2-0.2c0.4-0.2,0.7-0.4,1-0.7C186.9,426.8,187.2,425.9,187.2,425
	L187.2,425z"/>
<path class="st3" d="M192.7,427.2c0.1,0.6,0.3,1.1,0.7,1.5c0.5,0.4,1.1,0.6,1.8,0.6c0.5,0,1-0.1,1.4-0.4c0.2-0.1,0.3-0.3,0.4-0.5
	c0.1-0.2,0.1-0.4,0.1-0.6c0-0.2,0-0.4-0.1-0.5c-0.1-0.2-0.2-0.3-0.3-0.4c-0.3-0.3-0.7-0.5-1.2-0.5l-1.6-0.4c-0.7-0.1-1.3-0.5-1.8-1
	c-0.5-0.5-0.7-1.1-0.7-1.8c0-0.4,0.1-0.8,0.3-1.2c0.2-0.4,0.4-0.7,0.8-1c0.3-0.3,0.7-0.5,1.2-0.7c0.4-0.2,0.9-0.2,1.3-0.2
	c0.6,0,1.1,0.1,1.6,0.3c0.4,0.1,0.8,0.4,1.2,0.7c0.3,0.3,0.5,0.6,0.7,0.9c0.1,0.3,0.3,0.6,0.3,0.8l-1.5,0.5c0-0.2-0.1-0.4-0.2-0.6
	c-0.1-0.2-0.2-0.4-0.4-0.6c-0.2-0.2-0.4-0.4-0.7-0.5c-0.3-0.1-0.6-0.2-1-0.2c-0.5,0-1,0.1-1.3,0.4c-0.2,0.1-0.3,0.3-0.4,0.5
	c-0.1,0.2-0.1,0.4-0.1,0.6c0,0.7,0.4,1.2,1.3,1.4l1.6,0.4c0.8,0.1,1.5,0.5,2,1c0.5,0.5,0.7,1.2,0.7,1.9c0,0.4-0.1,0.7-0.2,1.1
	c-0.2,0.4-0.4,0.7-0.7,1c-0.3,0.3-0.7,0.5-1.2,0.7c-0.5,0.2-1,0.3-1.6,0.3c-0.6,0-1.2-0.1-1.7-0.3c-0.4-0.2-0.9-0.4-1.2-0.7
	c-0.3-0.3-0.6-0.6-0.7-0.9c-0.2-0.3-0.3-0.7-0.3-1L192.7,427.2z"/>
<path class="st1" d="M47.9,455.4H20.3V483h27.5V455.4z"/>
<path class="st2" d="M25.5,470.4l5.1,5.1l11.9-11.9"/>
<path class="st3" d="M81.4,470.6h-2.6v6.2H77v-14.8h5.4c0.6,0,1.3,0.1,1.9,0.3c0.5,0.2,1,0.5,1.4,0.9c0.4,0.4,0.7,0.9,0.9,1.4
	c0.2,0.5,0.3,1.1,0.3,1.7c0,1-0.3,2-1,2.8c-0.7,0.8-1.6,1.3-2.7,1.4l3.6,6.4h-2.1L81.4,470.6z M82.2,469c0.8,0,1.6-0.2,2.2-0.7
	c0.3-0.3,0.5-0.6,0.6-0.9c0.1-0.3,0.2-0.7,0.2-1.1c0-0.4,0-0.7-0.2-1.1c-0.1-0.3-0.4-0.7-0.6-0.9c-0.6-0.5-1.4-0.8-2.2-0.7h-3.4v5.5
	H82.2z"/>
<path class="st3" d="M98,473.9c-0.1,0.4-0.4,0.8-0.6,1.2c-0.3,0.4-0.6,0.7-1,1c-0.8,0.6-1.9,0.9-2.9,0.9c-0.6,0-1.3-0.1-1.9-0.4
	c-0.6-0.2-1.1-0.6-1.6-1c-0.5-0.5-0.8-1.1-1.1-1.7c-0.3-0.7-0.4-1.5-0.4-2.2c0-0.7,0.1-1.5,0.4-2.2c0.2-0.6,0.6-1.2,1-1.7
	c0.4-0.5,0.9-0.8,1.5-1.1c0.6-0.2,1.2-0.4,1.8-0.4c0.7,0,1.4,0.1,2,0.4c0.6,0.2,1.1,0.6,1.5,1.1c0.4,0.5,0.7,1,0.9,1.6
	c0.2,0.7,0.3,1.4,0.3,2.1c0,0.1,0,0.2,0,0.3c0,0.1,0,0.2,0,0.3h-7.8v0.1c0,0.4,0.1,0.9,0.3,1.3c0.2,0.4,0.4,0.7,0.7,1
	c0.3,0.3,0.7,0.5,1,0.7c0.4,0.2,0.8,0.2,1.3,0.2c0.7,0,1.4-0.2,2-0.6c0.5-0.4,0.8-0.9,1-1.5L98,473.9z M96.3,470.8
	c0-0.7-0.3-1.5-0.8-2c-0.3-0.3-0.6-0.5-1-0.7c-0.4-0.1-0.8-0.2-1.2-0.2c-0.4,0-0.8,0.1-1.2,0.2c-0.3,0.1-0.7,0.4-0.9,0.6
	c-0.3,0.3-0.5,0.6-0.6,0.9c-0.2,0.3-0.2,0.7-0.3,1.1H96.3z"/>
<path class="st3" d="M101.3,473.6c0.1,0.6,0.3,1.1,0.7,1.5c0.5,0.4,1.1,0.6,1.8,0.6c0.5,0,1-0.1,1.4-0.4c0.2-0.1,0.3-0.3,0.4-0.5
	c0.1-0.2,0.1-0.4,0.1-0.6c0-0.2,0-0.4-0.1-0.5c-0.1-0.2-0.2-0.3-0.3-0.4c-0.3-0.3-0.7-0.5-1.2-0.5l-1.6-0.4c-0.7-0.1-1.3-0.5-1.8-1
	c-0.4-0.5-0.7-1.1-0.7-1.8c0-0.4,0.1-0.8,0.3-1.2c0.2-0.4,0.4-0.7,0.8-1c0.3-0.3,0.7-0.5,1.2-0.7c0.4-0.2,0.9-0.2,1.3-0.2
	c0.6,0,1.1,0.1,1.7,0.3c0.4,0.1,0.8,0.4,1.2,0.7c0.3,0.3,0.5,0.6,0.7,0.9c0.1,0.3,0.2,0.6,0.3,0.8l-1.5,0.5c0-0.2-0.1-0.4-0.2-0.6
	c-0.1-0.2-0.2-0.4-0.4-0.6c-0.2-0.2-0.4-0.4-0.7-0.5c-0.3-0.1-0.7-0.2-1-0.2c-0.5,0-0.9,0.1-1.3,0.4c-0.2,0.1-0.3,0.3-0.4,0.5
	c-0.1,0.2-0.1,0.4-0.1,0.6c0,0.7,0.4,1.2,1.3,1.4l1.6,0.4c0.8,0.1,1.5,0.5,2,1c0.5,0.5,0.7,1.2,0.7,1.9c0,0.4-0.1,0.7-0.2,1.1
	c-0.2,0.4-0.4,0.7-0.7,1c-0.3,0.3-0.7,0.5-1.2,0.7c-0.5,0.2-1,0.3-1.6,0.3c-0.6,0-1.2-0.1-1.7-0.3c-0.4-0.2-0.8-0.4-1.2-0.7
	c-0.3-0.3-0.6-0.6-0.7-0.9c-0.2-0.3-0.3-0.6-0.3-1L101.3,473.6z"/>
<path class="st3" d="M118.6,473.9c-0.1,0.4-0.3,0.8-0.6,1.2c-0.3,0.4-0.6,0.7-1,1c-0.4,0.3-0.8,0.5-1.3,0.7
	c-0.5,0.2-1.1,0.3-1.6,0.3c-0.7,0-1.3-0.1-1.9-0.4c-0.6-0.2-1.1-0.6-1.6-1c-0.5-0.5-0.8-1.1-1.1-1.7c-0.3-0.7-0.4-1.5-0.4-2.2
	c0-0.7,0.1-1.5,0.4-2.2c0.2-0.6,0.6-1.2,1-1.7c0.4-0.5,0.9-0.8,1.5-1.1c0.6-0.3,1.2-0.4,1.8-0.4c0.7,0,1.4,0.1,2,0.4
	c0.6,0.2,1.1,0.6,1.5,1.1c0.4,0.5,0.7,1,0.9,1.6c0.2,0.7,0.3,1.4,0.3,2.1c0,0.1,0,0.2,0,0.3c0,0.1,0,0.2,0,0.3h-7.8v0.1
	c0,0.4,0.1,0.9,0.2,1.3c0.2,0.4,0.4,0.7,0.7,1c0.3,0.3,0.6,0.5,1,0.7c0.4,0.2,0.8,0.2,1.3,0.2c0.7,0,1.4-0.2,2-0.6
	c0.5-0.4,0.8-0.9,1-1.5L118.6,473.9z M116.9,470.8c0-0.7-0.3-1.5-0.8-2c-0.3-0.3-0.6-0.5-1-0.6c-0.4-0.1-0.8-0.2-1.2-0.2
	c-0.4,0-0.8,0.1-1.2,0.2c-0.3,0.2-0.7,0.4-0.9,0.6c-0.3,0.3-0.5,0.6-0.6,0.9c-0.2,0.3-0.2,0.7-0.3,1.1H116.9z"/>
<path class="st3" d="M120.5,474.1c0-0.4,0-0.8,0.2-1.1c0.1-0.4,0.4-0.7,0.6-0.9c0.6-0.5,1.4-0.8,2.2-0.9l2.7-0.4
	c0.3,0,0.5-0.1,0.7-0.3c0.1-0.2,0.2-0.4,0.2-0.6c0-0.3,0-0.5-0.1-0.8c-0.1-0.2-0.2-0.5-0.4-0.7c-0.5-0.4-1.1-0.6-1.8-0.6
	c-0.6,0-1.3,0.2-1.7,0.6c-0.4,0.4-0.7,1-0.7,1.6l-1.6-0.4c0-0.5,0.2-0.9,0.4-1.3c0.2-0.4,0.5-0.7,0.9-1c0.4-0.3,0.8-0.5,1.2-0.7
	c0.5-0.2,1-0.2,1.5-0.2c0.6,0,1.2,0.1,1.8,0.3c0.5,0.2,0.9,0.4,1.3,0.8c0.3,0.3,0.6,0.7,0.7,1.2c0.2,0.4,0.2,0.9,0.2,1.4v5.1
	c0,0.4,0,0.8,0,1s0,0.5,0.1,0.6h-1.6c0-0.2-0.1-0.4-0.1-0.5c0-0.3,0-0.6,0-1c-0.1,0.2-0.3,0.4-0.5,0.6c-0.2,0.2-0.4,0.4-0.7,0.6
	c-0.7,0.4-1.4,0.6-2.2,0.6c-0.5,0-1-0.1-1.4-0.3c-0.4-0.1-0.7-0.4-1-0.7c-0.3-0.3-0.5-0.6-0.7-0.9
	C120.6,474.9,120.5,474.5,120.5,474.1z M124,475.7c0.4,0,0.8-0.1,1.2-0.2c0.4-0.1,0.7-0.3,1-0.6c0.3-0.3,0.5-0.6,0.7-1
	c0.2-0.4,0.2-0.9,0.2-1.4v-0.7l-3.3,0.5c-0.4,0.1-0.8,0.2-1.2,0.5c-0.2,0.1-0.3,0.3-0.4,0.5c-0.1,0.2-0.1,0.4-0.1,0.6
	c0,0.2,0,0.4,0.1,0.6c0.1,0.2,0.2,0.4,0.4,0.5c0.2,0.2,0.4,0.3,0.6,0.4C123.6,475.6,123.8,475.7,124,475.7L124,475.7z"/>
<path class="st3" d="M137.2,468.5c-0.1,0-0.3-0.1-0.4-0.1h-0.4c-0.4,0-0.8,0-1.1,0.2c-0.4,0.1-0.7,0.3-0.9,0.6
	c-0.3,0.3-0.5,0.7-0.6,1.1c-0.1,0.4-0.2,0.9-0.1,1.3v5.2h-1.7v-10h1.6v1.8c0.1-0.3,0.3-0.6,0.6-0.9c0.2-0.2,0.5-0.4,0.8-0.6
	c0.3-0.2,0.5-0.3,0.8-0.3c0.3-0.1,0.6-0.1,0.8-0.1h0.4c0.1,0,0.2,0,0.3,0.1L137.2,468.5z"/>
<path class="st3" d="M143.3,468c-0.4,0-0.9,0.1-1.3,0.2c-0.4,0.2-0.7,0.4-1,0.7c-0.3,0.3-0.6,0.7-0.7,1.2c-0.2,0.5-0.3,1.1-0.3,1.6
	c0,0.5,0.1,1.1,0.3,1.6c0.2,0.4,0.4,0.8,0.7,1.2c0.3,0.3,0.7,0.6,1.1,0.7c0.4,0.2,0.8,0.3,1.3,0.3c0.4,0,0.8-0.1,1.2-0.2
	c0.3-0.1,0.6-0.3,0.9-0.6c0.2-0.2,0.4-0.5,0.6-0.7c0.1-0.2,0.2-0.5,0.3-0.7l1.5,0.7c-0.1,0.4-0.3,0.8-0.5,1.2
	c-0.2,0.4-0.6,0.7-0.9,1c-0.4,0.3-0.8,0.6-1.3,0.7c-0.6,0.2-1.1,0.3-1.7,0.3c-0.7,0-1.4-0.1-2-0.4c-0.6-0.3-1.1-0.7-1.6-1.2
	c-0.4-0.5-0.8-1.1-1-1.7c-0.3-0.7-0.4-1.4-0.4-2.1c0-0.7,0.1-1.5,0.4-2.2c0.2-0.6,0.6-1.2,1-1.7c0.4-0.5,1-0.8,1.6-1.1
	c0.6-0.3,1.3-0.4,2-0.4c0.6,0,1.2,0.1,1.7,0.3c0.5,0.2,0.9,0.4,1.3,0.7c0.4,0.3,0.6,0.6,0.9,1c0.2,0.4,0.4,0.8,0.5,1.2l-1.5,0.7
	c-0.1-0.3-0.2-0.5-0.3-0.8c-0.1-0.3-0.3-0.5-0.6-0.7c-0.2-0.2-0.5-0.4-0.8-0.5C144.1,468,143.7,468,143.3,468z"/>
<path class="st3" d="M151.7,476.8h-1.7v-15.1h1.7v6.5c0.3-0.5,0.8-0.9,1.3-1.2c0.6-0.3,1.2-0.4,1.8-0.4c0.5,0,1.1,0.1,1.6,0.3
	c0.4,0.2,0.8,0.5,1.2,0.8c0.3,0.4,0.5,0.8,0.7,1.2c0.2,0.5,0.2,1,0.2,1.5v6.4h-1.7v-6.2c0-0.4,0-0.7-0.1-1c-0.1-0.3-0.2-0.6-0.4-0.8
	c-0.2-0.3-0.5-0.4-0.8-0.6c-0.4-0.2-0.8-0.2-1.2-0.2c-0.4,0-0.7,0.1-1,0.2c-0.3,0.1-0.6,0.4-0.8,0.6c-0.2,0.3-0.4,0.6-0.5,0.9
	c-0.1,0.4-0.2,0.7-0.2,1.1L151.7,476.8z"/>
<path class="st3" d="M171.6,470.6h-2.6v6.2h-1.7v-14.8h5.4c0.6,0,1.3,0.1,1.9,0.3c0.5,0.2,1,0.5,1.4,0.9c0.4,0.4,0.7,0.9,0.9,1.4
	c0.2,0.5,0.3,1.1,0.3,1.7c0,1-0.3,2-1,2.8c-0.7,0.8-1.6,1.3-2.7,1.4l3.6,6.4h-2.1L171.6,470.6z M172.4,469c0.8,0,1.6-0.2,2.2-0.7
	c0.3-0.3,0.5-0.6,0.6-0.9c0.1-0.3,0.2-0.7,0.2-1.1c0-0.4,0-0.7-0.2-1.1c-0.1-0.3-0.4-0.7-0.6-0.9c-0.6-0.5-1.4-0.8-2.2-0.7h-3.4v5.5
	H172.4z"/>
<path class="st3" d="M188.3,473.9c-0.1,0.4-0.4,0.8-0.6,1.2c-0.3,0.4-0.6,0.7-1,1c-0.4,0.3-0.8,0.5-1.3,0.7
	c-0.5,0.2-1.1,0.3-1.6,0.3c-0.6,0-1.3-0.1-1.9-0.4c-0.6-0.2-1.1-0.6-1.6-1c-0.5-0.5-0.8-1.1-1.1-1.7c-0.3-0.7-0.4-1.5-0.4-2.2
	c0-0.7,0.1-1.5,0.4-2.2c0.2-0.6,0.6-1.2,1-1.7c0.4-0.5,0.9-0.8,1.5-1.1c0.6-0.2,1.2-0.4,1.8-0.4c0.7,0,1.4,0.1,2,0.4
	c0.6,0.2,1.1,0.6,1.5,1.1c0.4,0.5,0.7,1,0.9,1.6c0.2,0.7,0.3,1.4,0.3,2.1c0,0.1,0,0.2,0,0.3c0,0.1,0,0.2,0,0.3h-7.7v0.1
	c0,0.4,0.1,0.9,0.3,1.3c0.2,0.4,0.4,0.7,0.7,1c0.3,0.3,0.7,0.5,1,0.7c0.4,0.2,0.8,0.2,1.3,0.2c0.7,0,1.4-0.2,2-0.6
	c0.5-0.4,0.8-0.9,1-1.5L188.3,473.9z M186.6,470.8c0-0.7-0.3-1.5-0.8-2c-0.3-0.3-0.6-0.5-1-0.7c-0.4-0.1-0.8-0.2-1.2-0.2
	c-0.4,0-0.8,0.1-1.2,0.2c-0.3,0.1-0.7,0.4-0.9,0.6c-0.3,0.3-0.5,0.6-0.6,0.9c-0.2,0.3-0.2,0.7-0.3,1.1H186.6z"/>
<path class="st3" d="M190.8,480.8v-14.1h1.6v1.7c0.3-0.6,0.7-1,1.3-1.4c0.7-0.4,1.4-0.6,2.2-0.6c0.7,0,1.3,0.1,2,0.4
	c0.6,0.3,1.1,0.7,1.4,1.2c0.4,0.5,0.7,1.1,0.9,1.7c0.2,0.7,0.3,1.4,0.3,2.1c0,0.7-0.1,1.4-0.3,2.1c-0.2,0.6-0.5,1.2-0.9,1.7
	c-0.4,0.5-0.9,0.9-1.4,1.2c-0.6,0.3-1.3,0.4-1.9,0.4c-0.7,0-1.4-0.1-2-0.5c-0.6-0.3-1.1-0.8-1.4-1.4v5.5H190.8z M195.6,475.6
	c0.5,0,0.9-0.1,1.3-0.3c0.4-0.2,0.7-0.4,1-0.8c0.3-0.3,0.5-0.7,0.6-1.2c0.2-0.5,0.2-1,0.2-1.5c0-0.5-0.1-1-0.2-1.5
	c-0.1-0.4-0.4-0.8-0.6-1.2c-0.3-0.3-0.6-0.6-1-0.8c-0.4-0.2-0.9-0.3-1.3-0.3c-0.5,0-0.9,0.1-1.3,0.3c-0.4,0.2-0.7,0.5-1,0.8
	c-0.3,0.3-0.5,0.7-0.6,1.2c-0.1,0.5-0.2,1-0.2,1.5c0,0.5,0.1,1,0.2,1.5c0.1,0.4,0.4,0.8,0.6,1.2c0.3,0.3,0.6,0.6,1,0.8
	C194.7,475.5,195.2,475.6,195.6,475.6L195.6,475.6z"/>
<path class="st3" d="M207.4,466.5c0.7,0,1.4,0.1,2,0.4c0.6,0.3,1.1,0.6,1.6,1.1c0.5,0.5,0.8,1.1,1.1,1.7c0.5,1.4,0.5,2.9,0,4.3
	c-0.2,0.6-0.6,1.2-1.1,1.7c-0.4,0.5-1,0.9-1.6,1.1c-1.3,0.5-2.7,0.5-4,0c-0.6-0.3-1.1-0.6-1.6-1.1c-0.5-0.5-0.8-1.1-1-1.7
	c-0.5-1.4-0.5-2.9,0-4.3c0.2-0.6,0.6-1.2,1-1.7c0.5-0.5,1-0.8,1.6-1.1C206.1,466.6,206.7,466.4,207.4,466.5z M207.4,468
	c-0.4,0-0.9,0.1-1.3,0.2c-0.4,0.2-0.8,0.4-1.1,0.7c-0.3,0.3-0.6,0.7-0.7,1.2c-0.4,1.1-0.4,2.2,0,3.2c0.2,0.4,0.4,0.8,0.7,1.2
	c0.3,0.3,0.7,0.6,1.1,0.7c0.8,0.3,1.7,0.3,2.6,0c0.4-0.2,0.8-0.4,1.1-0.7c0.3-0.3,0.6-0.7,0.7-1.2c0.4-1.1,0.4-2.2,0-3.2
	c-0.2-0.4-0.4-0.8-0.7-1.2c-0.3-0.3-0.7-0.6-1.1-0.7C208.3,468.1,207.9,468,207.4,468L207.4,468z"/>
<path class="st3" d="M220.3,468.5c-0.1,0-0.3-0.1-0.4-0.1h-0.4c-0.4,0-0.8,0-1.1,0.2c-0.4,0.1-0.7,0.3-0.9,0.6
	c-0.3,0.3-0.5,0.7-0.6,1.1c-0.1,0.4-0.2,0.9-0.1,1.3v5.2h-1.7v-10h1.6v1.8c0.1-0.3,0.3-0.6,0.6-0.9c0.2-0.2,0.5-0.4,0.8-0.6
	c0.3-0.2,0.5-0.3,0.8-0.3c0.3-0.1,0.6-0.1,0.8-0.1h0.4c0.1,0,0.2,0,0.3,0.1V468.5z"/>
<path class="st3" d="M225.3,466.7h2.3v1.5h-2.3v5.6c0,0.4,0.1,0.8,0.4,1.2c0.2,0.1,0.3,0.2,0.5,0.3c0.2,0.1,0.4,0.1,0.6,0.1
	c0.2,0,0.3,0,0.5,0c0.1,0,0.3,0,0.4-0.1v1.4l-0.5,0.1c-0.3,0.1-0.5,0.1-0.8,0.1c-0.4,0-0.7,0-1.1-0.2s-0.7-0.3-0.9-0.6
	c-0.3-0.3-0.5-0.6-0.6-1c-0.1-0.4-0.2-0.7-0.2-1.1v-5.8h-2v-1.5h0.6c0.2,0,0.4,0,0.6-0.1c0.2-0.1,0.4-0.2,0.5-0.3
	c0.3-0.3,0.4-0.7,0.3-1.2v-1.7h1.6L225.3,466.7z"/>
<path class="st3" d="M230.7,473.6c0.1,0.6,0.3,1.1,0.7,1.5c0.5,0.4,1.1,0.6,1.8,0.6c0.5,0,1-0.1,1.4-0.4c0.2-0.1,0.3-0.3,0.4-0.5
	c0.1-0.2,0.1-0.4,0.1-0.6c0-0.2,0-0.4-0.1-0.5c-0.1-0.2-0.2-0.3-0.3-0.4c-0.3-0.3-0.7-0.4-1.1-0.5l-1.6-0.4c-0.7-0.1-1.3-0.5-1.8-1
	c-0.2-0.2-0.4-0.5-0.5-0.8c-0.1-0.3-0.2-0.6-0.2-1c0-0.4,0.1-0.8,0.3-1.2c0.2-0.4,0.4-0.7,0.8-1c0.3-0.3,0.7-0.5,1.2-0.7
	c0.4-0.2,0.9-0.2,1.3-0.2c0.6,0,1.1,0.1,1.6,0.3c0.4,0.1,0.8,0.4,1.1,0.7c0.3,0.3,0.5,0.6,0.7,0.9c0.1,0.3,0.2,0.6,0.3,0.8l-1.5,0.5
	c0-0.2-0.1-0.4-0.2-0.6c-0.1-0.2-0.2-0.4-0.4-0.6c-0.2-0.2-0.4-0.4-0.7-0.5c-0.3-0.1-0.6-0.2-1-0.2c-0.5,0-1,0.1-1.3,0.4
	c-0.2,0.1-0.3,0.3-0.4,0.5c-0.1,0.2-0.1,0.4-0.1,0.6c0,0.7,0.4,1.2,1.3,1.4l1.6,0.4c0.8,0.1,1.5,0.5,2,1c0.5,0.5,0.7,1.2,0.7,1.9
	c0,0.4-0.1,0.7-0.2,1.1c-0.2,0.4-0.4,0.7-0.7,1c-0.3,0.3-0.7,0.5-1.2,0.7c-0.5,0.2-1,0.3-1.6,0.3c-0.6,0-1.2-0.1-1.7-0.3
	c-0.4-0.2-0.8-0.4-1.2-0.7c-0.3-0.3-0.6-0.6-0.7-0.9c-0.2-0.3-0.3-0.6-0.3-1L230.7,473.6z"/>
<path class="st1" d="M47.9,502.8H20.3v27.5h27.5V502.8z"/>
<path class="st2" d="M25.5,517.7l5.1,5.1l11.9-11.9"/>
<path class="st3" d="M87.2,524.2l-8.4-12.6v12.6H77v-14.8h2.3l8,11.9v-11.9h1.8v14.8H87.2z"/>
<path class="st3" d="M101.4,521.3c-0.1,0.4-0.3,0.8-0.6,1.2c-0.3,0.4-0.6,0.7-1,1c-0.4,0.3-0.8,0.5-1.3,0.7
	c-0.5,0.2-1.1,0.3-1.6,0.3c-0.7,0-1.3-0.1-1.9-0.4c-0.6-0.2-1.1-0.6-1.6-1c-0.5-0.5-0.8-1.1-1.1-1.7c-0.3-0.7-0.4-1.5-0.4-2.2
	c0-0.7,0.1-1.5,0.4-2.2c0.2-0.6,0.6-1.2,1-1.7c0.4-0.5,0.9-0.8,1.5-1.1s1.2-0.4,1.8-0.4c0.7,0,1.4,0.1,2,0.4
	c0.6,0.2,1.1,0.6,1.5,1.1c0.4,0.5,0.7,1,0.9,1.6c0.2,0.7,0.3,1.4,0.3,2.1c0,0.1,0,0.2,0,0.3c0,0.1,0,0.2,0,0.3h-7.8v0.1
	c0,0.5,0.1,0.9,0.3,1.3c0.2,0.4,0.4,0.7,0.7,1c0.3,0.3,0.6,0.5,1,0.7c0.4,0.2,0.8,0.2,1.3,0.2c0.7,0,1.4-0.2,2-0.6
	c0.5-0.4,0.8-0.9,1-1.5L101.4,521.3z M99.7,518.2c0-0.7-0.3-1.5-0.8-2c-0.3-0.3-0.6-0.5-1-0.7c-0.4-0.1-0.8-0.2-1.2-0.2
	c-0.8,0-1.6,0.3-2.1,0.9c-0.3,0.3-0.5,0.6-0.6,0.9c-0.2,0.3-0.2,0.7-0.3,1.1H99.7z"/>
<path class="st3" d="M111.3,514.1l2.8,7.9l2.3-7.9h1.8l-3.3,10h-1.7l-2.8-8l-2.8,8h-1.8l-3.3-10h1.8l2.5,7.9l2.8-7.9H111.3z"/>
<path class="st3" d="M120.9,521c0.1,0.6,0.3,1.1,0.7,1.5c0.5,0.4,1.1,0.6,1.8,0.6c0.5,0,1-0.1,1.4-0.4c0.2-0.1,0.3-0.3,0.4-0.5
	c0.1-0.2,0.1-0.4,0.1-0.6c0-0.2,0-0.4-0.1-0.5c-0.1-0.2-0.2-0.3-0.3-0.4c-0.3-0.3-0.7-0.5-1.2-0.5l-1.6-0.4c-0.7-0.1-1.3-0.5-1.8-1
	c-0.2-0.2-0.4-0.5-0.5-0.8c-0.1-0.3-0.2-0.6-0.2-1c0-0.4,0.1-0.8,0.3-1.2c0.2-0.4,0.4-0.7,0.8-1c0.7-0.6,1.6-0.9,2.5-0.9
	c0.6,0,1.1,0.1,1.6,0.3c0.4,0.2,0.8,0.4,1.1,0.7c0.3,0.2,0.5,0.5,0.7,0.9c0.1,0.3,0.2,0.5,0.3,0.8l-1.5,0.5c0-0.2-0.1-0.4-0.2-0.6
	c-0.1-0.2-0.2-0.4-0.4-0.6c-0.2-0.2-0.4-0.3-0.7-0.5c-0.3-0.1-0.6-0.2-1-0.2c-0.5,0-1,0.1-1.3,0.4c-0.2,0.1-0.3,0.3-0.4,0.5
	c-0.1,0.2-0.1,0.4-0.1,0.6c0,0.7,0.4,1.2,1.3,1.4l1.6,0.4c0.8,0.1,1.5,0.5,2,1c0.4,0.4,0.6,0.9,0.7,1.4c0.1,0.5,0,1.1-0.2,1.5
	c-0.2,0.4-0.4,0.7-0.7,1c-0.3,0.3-0.7,0.5-1.2,0.7c-0.5,0.2-1,0.3-1.6,0.3c-0.6,0-1.2-0.1-1.7-0.3c-0.4-0.2-0.8-0.4-1.2-0.7
	c-0.3-0.3-0.6-0.6-0.7-0.9c-0.2-0.3-0.3-0.6-0.3-1L120.9,521z"/>
<path class="st6" d="M433.5,79H1v65.1h432.5V79z"/>
<path class="st3" d="M30.7,108.2c-0.2-0.1-0.3-0.3-0.5-0.4c-0.7-0.4-1.4-0.7-2.2-0.9c-0.4-0.1-0.9-0.2-1.3-0.2
	c-0.6,0-1.2,0.1-1.8,0.4c-0.2,0.1-0.3,0.3-0.4,0.5c-0.1,0.2-0.1,0.5-0.1,0.7c0,0.3,0.1,0.5,0.2,0.8c0.2,0.2,0.4,0.4,0.6,0.5
	c0.3,0.2,0.7,0.3,1.1,0.4c0.4,0.1,0.9,0.3,1.5,0.4c0.6,0.1,1.4,0.4,2,0.6c0.5,0.2,1.1,0.5,1.5,0.8c0.4,0.3,0.7,0.7,1,1.2
	c0.2,0.5,0.4,1.1,0.3,1.7c0,0.7-0.1,1.4-0.5,2c-0.3,0.5-0.7,1-1.2,1.4c-0.5,0.4-1.1,0.6-1.8,0.8c-0.7,0.2-1.4,0.2-2.1,0.2
	c-1.1,0-2.2-0.2-3.3-0.5c-1-0.3-2-0.8-2.9-1.4l1.3-2.5c0.2,0.2,0.4,0.4,0.7,0.5c0.4,0.2,0.8,0.4,1.2,0.6c0.5,0.2,1,0.4,1.5,0.5
	c0.5,0.1,1.1,0.2,1.7,0.2c1.6,0,2.4-0.5,2.4-1.5c0-0.3-0.1-0.6-0.3-0.8c-0.2-0.2-0.5-0.4-0.8-0.6c-0.4-0.2-0.8-0.3-1.2-0.5l-1.6-0.5
	c-0.6-0.2-1.3-0.4-1.8-0.6c-0.5-0.2-0.9-0.5-1.3-0.8c-0.3-0.3-0.6-0.7-0.8-1.1c-0.2-0.5-0.3-1-0.3-1.5c0-0.7,0.1-1.4,0.4-2
	c0.3-0.6,0.7-1.1,1.2-1.5c0.5-0.4,1.1-0.7,1.7-0.9c0.7-0.2,1.4-0.3,2.1-0.3c1,0,2,0.2,2.9,0.5c0.8,0.3,1.6,0.7,2.3,1.2L30.7,108.2z"
	/>
<path class="st3" d="M39.5,119.4c-0.8,0-1.6-0.1-2.4-0.4c-0.7-0.3-1.3-0.7-1.8-1.2c-0.5-0.5-0.9-1.1-1.2-1.8
	c-0.3-0.7-0.4-1.4-0.4-2.2c0-0.8,0.1-1.5,0.4-2.2c0.3-0.7,0.6-1.3,1.2-1.8c0.5-0.5,1.1-0.9,1.8-1.2c0.8-0.3,1.6-0.5,2.4-0.5
	c0.8,0,1.6,0.1,2.4,0.5c0.7,0.3,1.3,0.7,1.8,1.2c0.5,0.5,0.9,1.1,1.2,1.8c0.3,0.7,0.4,1.4,0.4,2.1c0,0.2,0,0.4,0,0.5
	c0,0.1,0,0.3,0,0.4h-8.6c0,0.4,0.1,0.8,0.3,1.2c0.2,0.3,0.4,0.6,0.7,0.9c0.5,0.5,1.2,0.7,1.9,0.7c0.6,0,1.1-0.1,1.6-0.4
	c0.5-0.2,0.8-0.6,1-1.1l2.4,0.7c-0.4,0.9-1.1,1.6-1.9,2.1C41.7,119.2,40.6,119.5,39.5,119.4z M42.4,112.8c0-0.8-0.4-1.5-0.9-2
	c-0.5-0.5-1.2-0.7-2-0.7c-0.4,0-0.7,0.1-1.1,0.2c-0.3,0.1-0.6,0.3-0.9,0.5c-0.3,0.2-0.5,0.5-0.6,0.9c-0.2,0.4-0.3,0.8-0.3,1.2
	L42.4,112.8z"/>
<path class="st3" d="M57.1,119.2h-2.8v-6.2c0.1-0.7-0.1-1.3-0.4-1.9c-0.1-0.2-0.3-0.4-0.6-0.5c-0.2-0.1-0.5-0.2-0.7-0.1
	c-0.3,0-0.6,0.1-0.9,0.2c-0.3,0.1-0.6,0.3-0.8,0.5c-0.3,0.2-0.5,0.5-0.7,0.7c-0.2,0.3-0.4,0.6-0.5,0.9v6.4h-2.8v-11h2.5v2
	c0.4-0.7,1-1.3,1.8-1.6c0.8-0.4,1.7-0.6,2.6-0.6c0.6,0,1.2,0.1,1.7,0.4c0.4,0.2,0.8,0.6,1,1c0.2,0.4,0.4,0.9,0.5,1.4
	c0.1,0.5,0.1,1,0.1,1.6L57.1,119.2z"/>
<path class="st3" d="M65.9,118.7c-0.5,0.2-0.9,0.4-1.4,0.5c-0.6,0.2-1.1,0.3-1.7,0.3c-0.4,0-0.7-0.1-1.1-0.2
	c-0.3-0.1-0.6-0.3-0.9-0.5c-0.3-0.2-0.5-0.5-0.6-0.8c-0.2-0.4-0.2-0.8-0.2-1.3v-6.3h-1.5v-2.2h1.5v-3.6h2.8v3.6H65v2.2h-2.3v5.4
	c0,0.2,0,0.3,0.1,0.5c0.1,0.1,0.1,0.3,0.2,0.4c0.2,0.2,0.5,0.2,0.7,0.2c0.3,0,0.6,0,0.9-0.1l0.7-0.3L65.9,118.7z"/>
<path class="st3" d="M67.2,106.7v-2.8H70v2.8H67.2z M67.2,119.2v-11H70v11H67.2z"/>
<path class="st3" d="M77.6,119.4c-0.8,0-1.6-0.1-2.3-0.4c-0.7-0.3-1.3-0.7-1.8-1.2c-0.5-0.5-0.9-1.1-1.2-1.8
	c-0.3-0.7-0.4-1.4-0.4-2.2c0-0.8,0.1-1.5,0.4-2.2c0.3-0.7,0.7-1.3,1.2-1.8c0.5-0.5,1.1-0.9,1.8-1.2c0.8-0.3,1.6-0.5,2.4-0.5
	c0.8,0,1.6,0.1,2.4,0.5c0.7,0.3,1.3,0.7,1.8,1.2c0.5,0.5,0.9,1.1,1.2,1.8c0.3,0.7,0.4,1.4,0.4,2.1c0,0.2,0,0.4,0,0.5
	c0,0.1,0,0.3,0,0.4h-8.6c0,0.4,0.1,0.8,0.3,1.2c0.2,0.3,0.4,0.6,0.7,0.9c0.3,0.2,0.6,0.4,0.9,0.5c0.3,0.1,0.7,0.2,1,0.2
	c0.6,0,1.1-0.1,1.6-0.4c0.5-0.2,0.8-0.6,1-1.1l2.4,0.7c-0.4,0.9-1.1,1.6-1.9,2.1C79.8,119.2,78.7,119.5,77.6,119.4z M80.4,112.8
	c0-0.8-0.4-1.5-0.9-2c-0.5-0.5-1.2-0.8-2-0.7c-0.4,0-0.7,0.1-1.1,0.2c-0.3,0.1-0.6,0.3-0.9,0.5c-0.5,0.5-0.9,1.2-0.9,2H80.4z"/>
<path class="st3" d="M90.1,119.4c-0.8,0-1.6-0.1-2.4-0.5c-0.7-0.3-1.3-0.7-1.8-1.2c-0.5-0.5-0.9-1.1-1.2-1.8
	c-0.3-0.7-0.4-1.4-0.4-2.2c0-0.7,0.1-1.5,0.4-2.2c0.3-0.7,0.7-1.3,1.2-1.8c0.5-0.5,1.1-0.9,1.8-1.2c0.8-0.3,1.6-0.5,2.4-0.5
	c0.8,0,1.6,0.1,2.4,0.5c0.7,0.3,1.3,0.7,1.8,1.2c0.5,0.5,0.9,1.1,1.2,1.8c0.3,0.7,0.4,1.4,0.4,2.2c0,0.7-0.1,1.5-0.4,2.2
	c-0.3,0.7-0.7,1.3-1.2,1.8c-0.5,0.5-1.1,1-1.8,1.2C91.8,119.3,91,119.4,90.1,119.4z M87.3,113.8c0,0.4,0.1,0.9,0.2,1.3
	c0.1,0.4,0.3,0.7,0.6,1c0.3,0.3,0.6,0.5,0.9,0.7c0.4,0.2,0.7,0.2,1.1,0.2c0.4,0,0.8-0.1,1.1-0.2c0.3-0.2,0.7-0.4,0.9-0.7
	c0.3-0.3,0.5-0.7,0.6-1c0.3-0.9,0.3-1.8,0-2.7c-0.1-0.4-0.3-0.7-0.6-1c-0.3-0.3-0.6-0.5-0.9-0.7c-0.4-0.2-0.8-0.3-1.2-0.2
	c-0.4,0-0.8,0.1-1.2,0.3c-0.3,0.2-0.7,0.4-0.9,0.7c-0.3,0.3-0.5,0.7-0.6,1C87.3,112.9,87.2,113.3,87.3,113.8z"/>
<path class="st3" d="M111.9,108.2c-0.2-0.1-0.3-0.3-0.5-0.4c-0.3-0.2-0.6-0.3-0.9-0.4c-0.4-0.2-0.8-0.3-1.2-0.4
	c-0.4-0.1-0.9-0.2-1.3-0.2c-0.6,0-1.2,0.1-1.8,0.4c-0.2,0.1-0.3,0.3-0.4,0.5c-0.1,0.2-0.1,0.5-0.1,0.7c0,0.3,0.1,0.5,0.2,0.8
	c0.2,0.2,0.4,0.4,0.6,0.5c0.3,0.2,0.7,0.3,1.1,0.4c0.4,0.1,0.9,0.3,1.5,0.4c0.7,0.2,1.4,0.4,2,0.6c0.5,0.2,1.1,0.5,1.5,0.8
	c0.4,0.3,0.7,0.7,1,1.2c0.2,0.5,0.4,1.1,0.3,1.7c0,0.7-0.1,1.4-0.5,2c-0.3,0.5-0.7,1-1.2,1.4c-0.5,0.4-1.1,0.6-1.8,0.8
	c-0.7,0.2-1.4,0.2-2.1,0.2c-1.1,0-2.2-0.2-3.3-0.5c-1-0.3-2-0.8-2.9-1.4l1.3-2.5c0.2,0.2,0.4,0.4,0.7,0.5c0.4,0.2,0.8,0.4,1.2,0.6
	c0.5,0.2,1,0.4,1.5,0.5c0.5,0.1,1.1,0.2,1.7,0.2c1.6,0,2.3-0.5,2.3-1.5c0-0.3-0.1-0.6-0.3-0.8c-0.2-0.2-0.5-0.4-0.8-0.6
	c-0.4-0.2-0.8-0.3-1.2-0.5l-1.6-0.5c-0.6-0.2-1.3-0.4-1.8-0.6c-0.5-0.2-0.9-0.5-1.3-0.8c-0.3-0.3-0.6-0.7-0.8-1.1
	c-0.2-0.5-0.3-1-0.3-1.5c0-0.7,0.1-1.4,0.4-2c0.3-0.6,0.7-1.1,1.2-1.5c0.5-0.4,1.1-0.7,1.7-0.9c0.7-0.2,1.4-0.3,2.1-0.3
	c1,0,1.9,0.2,2.8,0.5c0.8,0.3,1.6,0.7,2.3,1.2L111.9,108.2z"/>
<path class="st3" d="M120.7,119.4c-0.8,0-1.6-0.1-2.4-0.5c-0.7-0.3-1.3-0.7-1.8-1.2c-0.5-0.5-0.9-1.1-1.2-1.8
	c-0.3-0.7-0.4-1.4-0.4-2.2c0-0.7,0.1-1.5,0.4-2.2c0.3-0.7,0.7-1.3,1.2-1.8c0.5-0.5,1.1-0.9,1.8-1.2c1.5-0.6,3.3-0.6,4.8,0
	c0.7,0.3,1.3,0.7,1.8,1.2c0.5,0.5,0.9,1.1,1.2,1.8c0.3,0.7,0.4,1.4,0.4,2.2c0,0.7-0.1,1.5-0.4,2.2c-0.3,0.7-0.7,1.3-1.2,1.8
	c-0.5,0.5-1.1,1-1.8,1.2C122.3,119.3,121.5,119.4,120.7,119.4z M117.8,113.8c0,0.5,0.1,0.9,0.2,1.3c0.1,0.4,0.3,0.7,0.6,1
	c0.3,0.3,0.6,0.5,0.9,0.7c0.4,0.2,0.7,0.2,1.1,0.2s0.8-0.1,1.1-0.2c0.3-0.2,0.7-0.4,0.9-0.7c0.3-0.3,0.5-0.7,0.6-1
	c0.3-0.9,0.3-1.8,0-2.7c-0.1-0.4-0.3-0.7-0.6-1c-0.3-0.3-0.6-0.5-0.9-0.7c-0.4-0.2-0.8-0.3-1.2-0.2c-0.4,0-0.8,0.1-1.2,0.3
	c-0.3,0.2-0.7,0.4-0.9,0.7c-0.3,0.3-0.5,0.7-0.6,1C117.8,112.9,117.8,113.3,117.8,113.8z"/>
<path class="st3" d="M131.6,119.4c-0.5,0-1,0-1.4-0.2c-0.4-0.2-0.8-0.5-1.2-0.8c-0.7-0.9-1-2.1-0.9-3.2v-6.9h2.8v6.3
	c0,1.7,0.6,2.5,1.8,2.5c0.6,0,1.1-0.2,1.6-0.5c0.5-0.4,1-0.9,1.2-1.5v-6.8h2.8v7.7c0,0.2,0,0.4,0.2,0.6c0.1,0.1,0.1,0.1,0.2,0.2
	c0.1,0,0.2,0.1,0.3,0.1v2.3c-0.2,0.1-0.5,0.1-0.7,0.1c-0.2,0-0.3,0-0.5,0c-0.4,0-0.9-0.1-1.2-0.3c-0.2-0.1-0.3-0.2-0.4-0.4
	c-0.1-0.2-0.2-0.3-0.2-0.5v-0.9c-0.5,0.7-1.1,1.3-1.9,1.7C133.4,119.2,132.5,119.4,131.6,119.4z"/>
<path class="st3" d="M147.6,110.7c-0.8,0-1.6,0.2-2.3,0.5c-0.6,0.3-1.2,0.8-1.5,1.4v6.6h-2.7v-11h2.6v2.3c0.2-0.4,0.4-0.7,0.7-1
	c0.3-0.3,0.5-0.6,0.9-0.8c0.3-0.2,0.6-0.4,0.9-0.5c0.3-0.1,0.6-0.2,0.9-0.2h0.6L147.6,110.7z"/>
<path class="st3" d="M148.3,113.7c0-0.7,0.1-1.5,0.4-2.2c0.3-0.7,0.7-1.3,1.2-1.8c0.5-0.5,1.1-0.9,1.8-1.2c0.8-0.3,1.6-0.5,2.4-0.5
	c1.1,0,2.1,0.2,3.1,0.8c0.8,0.5,1.5,1.2,1.9,2l-2.7,0.8c-0.2-0.4-0.6-0.7-0.9-0.9c-0.4-0.2-0.8-0.3-1.3-0.3c-0.4,0-0.8,0.1-1.2,0.2
	c-0.3,0.2-0.7,0.4-0.9,0.7c-0.3,0.3-0.5,0.7-0.6,1c-0.2,0.4-0.2,0.9-0.2,1.3c0,0.5,0.1,0.9,0.2,1.3c0.1,0.4,0.3,0.7,0.6,1
	c0.2,0.3,0.6,0.5,0.9,0.7c0.3,0.2,0.7,0.2,1.1,0.2c0.5,0,1-0.1,1.4-0.4c0.4-0.2,0.7-0.5,0.9-0.9l2.7,0.8c-0.4,0.9-1.1,1.6-1.9,2
	c-0.9,0.6-2,0.8-3.1,0.8c-0.8,0-1.6-0.1-2.4-0.5c-0.7-0.3-1.3-0.7-1.8-1.2c-0.5-0.5-0.9-1.1-1.2-1.8
	C148.5,115.2,148.3,114.5,148.3,113.7z"/>
<path class="st3" d="M165.7,119.4c-0.8,0-1.6-0.1-2.3-0.4c-0.7-0.3-1.3-0.7-1.8-1.2c-0.5-0.5-0.9-1.1-1.2-1.8
	c-0.3-0.7-0.4-1.4-0.4-2.2c0-0.8,0.1-1.5,0.4-2.2c0.3-0.7,0.7-1.3,1.2-1.8c0.5-0.5,1.1-0.9,1.8-1.2c0.8-0.3,1.6-0.5,2.4-0.5
	c0.8,0,1.6,0.1,2.4,0.5c0.7,0.3,1.3,0.7,1.8,1.2c0.5,0.5,0.9,1.1,1.2,1.8c0.3,0.7,0.4,1.4,0.4,2.1c0,0.2,0,0.4,0,0.5
	c0,0.1,0,0.3-0.1,0.4H163c0,0.4,0.1,0.8,0.3,1.2c0.2,0.3,0.4,0.6,0.7,0.9c0.3,0.2,0.6,0.4,0.9,0.5c0.3,0.1,0.7,0.2,1,0.2
	c0.6,0,1.1-0.1,1.6-0.4c0.5-0.2,0.8-0.6,1-1.1l2.4,0.7c-0.4,0.9-1.1,1.6-1.9,2.1C168,119.2,166.8,119.5,165.7,119.4z M168.6,112.8
	c0-0.8-0.4-1.5-0.9-2c-0.5-0.5-1.2-0.8-2-0.7c-0.4,0-0.7,0.1-1.1,0.2c-0.3,0.1-0.6,0.3-0.9,0.5c-0.5,0.5-0.9,1.2-0.9,2H168.6z"/>
<path class="st3" d="M177.2,119.4c-0.9,0-1.8-0.1-2.7-0.4c-0.8-0.3-1.6-0.7-2.3-1.3l1-1.8c0.6,0.4,1.3,0.8,2,1.1
	c0.6,0.2,1.2,0.4,1.9,0.4c0.5,0,0.9-0.1,1.3-0.3c0.2-0.1,0.3-0.2,0.4-0.4c0.1-0.2,0.1-0.3,0.1-0.5c0-0.2-0.1-0.4-0.2-0.5
	c-0.1-0.2-0.2-0.3-0.4-0.3c-0.6-0.3-1.2-0.5-1.8-0.6c-0.7-0.2-1.3-0.4-1.8-0.6c-0.4-0.2-0.8-0.4-1.2-0.6c-0.3-0.2-0.5-0.5-0.7-0.8
	c-0.1-0.3-0.2-0.7-0.2-1.1c0-0.5,0.1-1,0.3-1.5c0.2-0.4,0.5-0.8,0.9-1.2c0.4-0.3,0.9-0.6,1.4-0.7c0.6-0.2,1.1-0.3,1.7-0.3
	c0.8,0,1.6,0.1,2.3,0.4c0.7,0.2,1.4,0.6,2,1.2l-1.2,1.7c-0.5-0.4-1-0.7-1.6-0.9c-0.5-0.2-1-0.3-1.6-0.3c-0.4,0-0.8,0.1-1.2,0.3
	c-0.2,0.1-0.3,0.2-0.4,0.4c-0.1,0.2-0.1,0.4-0.1,0.5c0,0.2,0,0.3,0.1,0.5c0.1,0.1,0.2,0.3,0.4,0.3c0.2,0.1,0.4,0.2,0.7,0.3
	c0.3,0.1,0.6,0.2,1,0.3c0.8,0.2,1.4,0.4,1.9,0.6c0.5,0.2,0.9,0.4,1.3,0.7c0.3,0.2,0.6,0.5,0.8,0.9c0.2,0.4,0.3,0.8,0.2,1.2
	c0,0.5-0.1,1-0.3,1.4c-0.2,0.4-0.5,0.8-0.9,1.1C179.6,119.2,178.4,119.5,177.2,119.4z"/>
<path class="st3" d="M289.1,108.6c-0.3-0.3-0.7-0.6-1.2-0.8c-0.5-0.2-1-0.3-1.6-0.3c-0.7-0.1-1.3,0.1-1.9,0.5
	c-0.2,0.2-0.4,0.4-0.5,0.6s-0.2,0.5-0.1,0.7c0,0.3,0,0.5,0.2,0.7c0.1,0.2,0.3,0.4,0.5,0.5c0.3,0.2,0.6,0.3,0.8,0.4
	c0.3,0.1,0.8,0.2,1.2,0.3c0.5,0.1,1,0.2,1.4,0.4c0.4,0.1,0.7,0.3,1.1,0.5c0.3,0.2,0.5,0.5,0.7,0.8c0.2,0.4,0.3,0.8,0.2,1.2
	c0,0.4-0.1,0.8-0.3,1.2c-0.2,0.3-0.4,0.6-0.7,0.8c-0.3,0.2-0.7,0.4-1.2,0.5c-0.4,0.1-0.9,0.1-1.3,0.1c-1.5,0-2.9-0.5-4-1.4l0.5-0.8
	c0.2,0.2,0.4,0.4,0.6,0.5c0.3,0.2,0.5,0.3,0.8,0.4c0.3,0.1,0.6,0.2,1,0.3c0.4,0.1,0.7,0.1,1.1,0.1c0.6,0,1.3-0.1,1.9-0.4
	c0.2-0.1,0.4-0.3,0.5-0.6c0.1-0.2,0.2-0.5,0.2-0.7c0-0.3-0.1-0.5-0.2-0.8c-0.1-0.2-0.3-0.4-0.6-0.5c-0.3-0.2-0.6-0.3-0.9-0.4
	c-0.4-0.1-0.8-0.2-1.3-0.3c-0.5-0.1-0.9-0.2-1.4-0.4c-0.4-0.1-0.7-0.3-1-0.5c-0.3-0.2-0.5-0.4-0.6-0.7c-0.1-0.3-0.2-0.7-0.2-1
	c0-0.4,0.1-0.8,0.3-1.2c0.2-0.4,0.4-0.7,0.7-0.9c0.3-0.3,0.7-0.4,1.2-0.5c0.5-0.1,0.9-0.2,1.4-0.2c1.2,0,2.3,0.4,3.2,1.2
	L289.1,108.6z"/>
<path class="st3" d="M294.8,116.8c-0.5,0-1-0.1-1.4-0.3c-0.4-0.2-0.9-0.5-1.2-0.9c-0.3-0.3-0.6-0.7-0.8-1.2c-0.2-0.5-0.3-1-0.3-1.5
	c0-0.5,0.1-1,0.3-1.4c0.2-0.4,0.4-0.8,0.8-1.2c0.3-0.3,0.7-0.6,1.2-0.8c0.5-0.2,1-0.3,1.5-0.3c0.5,0,1,0.1,1.4,0.3
	c0.4,0.2,0.8,0.5,1.2,0.9c0.7,0.7,1,1.6,1,2.6v0.2c0,0,0,0.1,0,0.2h-6.2c0,0.4,0.1,0.7,0.3,1.1c0.1,0.3,0.3,0.6,0.6,0.9
	c0.2,0.2,0.5,0.4,0.8,0.6c0.3,0.1,0.7,0.2,1,0.2c0.5,0,0.9-0.1,1.3-0.4c0.2-0.1,0.4-0.3,0.5-0.4c0.2-0.2,0.3-0.3,0.4-0.5l0.8,0.2
	c-0.1,0.3-0.3,0.5-0.5,0.7c-0.4,0.5-1,0.8-1.6,1C295.5,116.8,295.1,116.8,294.8,116.8z M297.4,112.7c0-0.4-0.1-0.7-0.3-1.1
	c-0.1-0.3-0.3-0.6-0.6-0.8c-0.4-0.4-0.8-0.6-1.3-0.7c-0.5-0.1-1,0-1.5,0.2c-0.3,0.1-0.6,0.3-0.8,0.5c-0.2,0.2-0.4,0.5-0.6,0.8
	c-0.1,0.3-0.2,0.7-0.3,1.1H297.4z"/>
<path class="st3" d="M299.8,106.5h1v8.5c0,0.2,0.1,0.5,0.2,0.6c0.1,0.1,0.2,0.1,0.3,0.2c0.1,0,0.2,0.1,0.3,0h0.4l0.4-0.1l0.2,0.8
	c-0.2,0.1-0.4,0.1-0.7,0.2c-0.2,0-0.4,0.1-0.7,0.1c-0.2,0-0.4,0-0.5-0.1c-0.2-0.1-0.3-0.2-0.5-0.3c-0.1-0.1-0.2-0.3-0.3-0.5
	c-0.1-0.2-0.1-0.4-0.1-0.6V106.5z"/>
<path class="st3" d="M306.5,116.8c-0.5,0-1-0.1-1.4-0.3c-0.4-0.2-0.9-0.5-1.2-0.9c-0.3-0.3-0.6-0.7-0.8-1.2c-0.2-0.5-0.3-1-0.3-1.5
	c0-0.5,0.1-1,0.3-1.4c0.2-0.4,0.4-0.8,0.7-1.2c0.3-0.3,0.7-0.6,1.1-0.8c0.5-0.2,1-0.3,1.5-0.3c0.5,0,1,0.1,1.5,0.3
	c0.4,0.2,0.8,0.5,1.2,0.8c0.6,0.7,1,1.7,1,2.6v0.2c0,0.1,0,0.1,0,0.2h-6.2c0,0.4,0.1,0.7,0.3,1.1c0.1,0.3,0.3,0.6,0.6,0.9
	c0.2,0.2,0.5,0.4,0.8,0.6c0.3,0.1,0.7,0.2,1,0.2c0.2,0,0.5,0,0.7-0.1c0.4-0.1,0.8-0.4,1.2-0.7c0.2-0.2,0.3-0.3,0.4-0.5l0.8,0.2
	c-0.1,0.3-0.3,0.5-0.5,0.7c-0.2,0.2-0.5,0.4-0.7,0.6c-0.3,0.2-0.6,0.3-0.9,0.4C307.2,116.8,306.8,116.8,306.5,116.8z M309.2,112.7
	c0-0.4-0.1-0.7-0.3-1.1c-0.1-0.3-0.3-0.6-0.6-0.8c-0.2-0.2-0.5-0.4-0.8-0.5c-0.3-0.1-0.7-0.2-1-0.2c-0.3,0-0.7,0.1-1,0.2
	c-0.6,0.3-1.1,0.8-1.4,1.4c-0.2,0.3-0.2,0.7-0.3,1.1H309.2z"/>
<path class="st3" d="M311.1,113c0-0.5,0.1-1,0.3-1.5c0.2-0.4,0.4-0.8,0.7-1.2c0.3-0.3,0.7-0.6,1.2-0.8c0.5-0.2,1-0.3,1.5-0.3
	c0.6,0,1.3,0.2,1.8,0.5c0.5,0.3,0.9,0.7,1.2,1.3l-0.9,0.3c-0.2-0.4-0.5-0.7-0.9-0.9c-0.3-0.2-0.7-0.3-1.1-0.3
	c-0.4,0-0.8,0.1-1.1,0.2c-0.3,0.1-0.6,0.3-0.8,0.6c-0.2,0.3-0.4,0.6-0.6,0.9c-0.1,0.4-0.2,0.8-0.2,1.2c0,0.4,0.1,0.8,0.2,1.2
	c0.1,0.3,0.3,0.7,0.6,0.9c0.2,0.3,0.5,0.5,0.8,0.6c0.3,0.2,0.7,0.2,1,0.2c0.2,0,0.5,0,0.7-0.1c0.2-0.1,0.4-0.2,0.6-0.3
	c0.2-0.1,0.4-0.2,0.5-0.4c0.1-0.1,0.2-0.3,0.3-0.5l0.9,0.3c-0.1,0.3-0.3,0.5-0.5,0.7c-0.2,0.2-0.4,0.4-0.7,0.6
	c-0.3,0.2-0.6,0.3-0.9,0.4c-0.3,0.1-0.7,0.1-1,0.1c-0.5,0-1-0.1-1.5-0.3c-0.4-0.2-0.8-0.5-1.2-0.8c-0.3-0.3-0.6-0.7-0.8-1.2
	C311.2,114.1,311.1,113.5,311.1,113z"/>
<path class="st3" d="M322.7,116.3l-0.2,0.1l-0.4,0.1c-0.2,0.1-0.3,0.1-0.5,0.1c-0.2,0-0.4,0-0.6,0c-0.2,0-0.4,0-0.6-0.1
	c-0.2-0.1-0.4-0.1-0.5-0.3c-0.1-0.1-0.2-0.3-0.3-0.4c-0.1-0.2-0.1-0.4-0.1-0.6v-5.2h-1v-0.8h1v-2.5h1v2.5h1.7v0.8h-1.7v4.9
	c0,0.1,0,0.2,0.1,0.3c0,0.1,0.1,0.2,0.2,0.3c0.2,0.1,0.4,0.2,0.6,0.2c0.2,0,0.5,0,0.7-0.1l0.4-0.2L322.7,116.3z"/>
<path class="st3" d="M330.7,106.8h0.8l4.1,9.9h-1l-1.3-3.1h-4.5l-1.3,3.2h-1L330.7,106.8z M333.1,112.8l-2-4.9l-2,4.9H333.1z"/>
<path class="st3" d="M336.7,106.5h1v8.5c0,0.2,0.1,0.5,0.2,0.6c0.1,0.1,0.2,0.1,0.3,0.2c0.1,0,0.2,0.1,0.3,0h0.4l0.4-0.1l0.2,0.8
	c-0.2,0.1-0.4,0.1-0.7,0.2c-0.2,0-0.4,0.1-0.7,0.1c-0.4,0-0.8-0.1-1-0.4c-0.1-0.1-0.2-0.3-0.3-0.5s-0.1-0.4-0.1-0.6V106.5z"/>
<path class="st3" d="M340.4,106.5h1v8.5c0,0.2,0.1,0.5,0.2,0.6c0.1,0.1,0.2,0.1,0.3,0.2c0.1,0,0.2,0.1,0.3,0h0.4
	c0.1,0,0.3-0.1,0.4-0.1l0.2,0.8c-0.2,0.1-0.4,0.1-0.7,0.2c-0.2,0-0.4,0.1-0.7,0.1c-0.2,0-0.4,0-0.6-0.1c-0.2-0.1-0.3-0.2-0.5-0.3
	c-0.1-0.1-0.2-0.3-0.3-0.5c-0.1-0.2-0.1-0.4-0.1-0.6V106.5z"/>
<path class="st3" d="M347.9,118.5v-12.6h0.8v12.6H347.9z"/>
<path class="st3" d="M354,111.6c0-0.6,0.1-1.2,0.3-1.8c0.2-0.6,0.5-1.1,0.9-1.6c0.4-0.5,0.9-0.9,1.5-1.2c0.6-0.3,1.3-0.4,2-0.4
	c0.8,0,1.6,0.2,2.3,0.6c0.6,0.4,1.1,0.9,1.4,1.6l-0.8,0.5c-0.1-0.3-0.3-0.6-0.6-0.8c-0.2-0.2-0.5-0.4-0.7-0.5
	c-0.3-0.1-0.5-0.2-0.8-0.3c-0.3-0.1-0.5-0.1-0.8-0.1c-0.5,0-1.1,0.1-1.6,0.4c-0.4,0.2-0.8,0.6-1.2,1c-0.3,0.4-0.6,0.8-0.7,1.3
	c-0.2,0.5-0.2,1-0.2,1.5c0,1.1,0.4,2.1,1.1,2.9c0.3,0.4,0.7,0.7,1.2,0.9c0.5,0.2,1,0.3,1.5,0.3c0.3,0,0.6,0,0.9-0.1
	c0.3-0.1,0.6-0.2,0.8-0.3c0.3-0.2,0.5-0.3,0.8-0.6c0.2-0.2,0.4-0.5,0.6-0.8l0.8,0.4c-0.1,0.4-0.4,0.7-0.7,1c-0.3,0.3-0.6,0.5-1,0.7
	c-0.4,0.2-0.8,0.4-1.2,0.5c-0.4,0.1-0.8,0.1-1.2,0.2c-0.7,0-1.3-0.2-1.9-0.5c-0.6-0.3-1.1-0.7-1.5-1.2c-0.4-0.5-0.7-1-1-1.6
	C354.1,112.9,354,112.3,354,111.6z"/>
<path class="st3" d="M363.9,106.5h1v8.5c0,0.2,0.1,0.5,0.2,0.6c0.1,0.1,0.2,0.1,0.3,0.2c0.1,0,0.2,0.1,0.3,0h0.4l0.4-0.1l0.2,0.8
	c-0.2,0.1-0.4,0.1-0.7,0.2c-0.2,0-0.4,0.1-0.7,0.1c-0.4,0-0.8-0.1-1-0.4c-0.1-0.1-0.2-0.3-0.3-0.5c-0.1-0.2-0.1-0.4-0.1-0.6V106.5z"
	/>
<path class="st3" d="M370.6,116.8c-0.5,0-1-0.1-1.4-0.3c-0.4-0.2-0.9-0.5-1.2-0.9c-0.3-0.3-0.6-0.7-0.8-1.2c-0.2-0.5-0.3-1-0.3-1.5
	c0-0.5,0.1-1,0.3-1.4c0.2-0.4,0.4-0.8,0.8-1.2c0.3-0.3,0.7-0.6,1.2-0.8c0.5-0.2,1-0.3,1.5-0.3c0.5,0,1,0.1,1.4,0.3
	c0.4,0.2,0.8,0.5,1.2,0.9c0.7,0.7,1,1.6,1,2.6v0.2c0,0,0,0.1,0,0.2H368c0,0.4,0.1,0.7,0.3,1.1c0.1,0.3,0.3,0.6,0.6,0.9
	c0.2,0.2,0.5,0.4,0.8,0.6c0.3,0.1,0.7,0.2,1,0.2c0.5,0,0.9-0.1,1.3-0.4c0.2-0.1,0.4-0.3,0.5-0.4c0.2-0.2,0.3-0.3,0.4-0.5l0.8,0.2
	c-0.1,0.3-0.3,0.5-0.5,0.7c-0.4,0.5-1,0.8-1.6,0.9C371.3,116.8,370.9,116.8,370.6,116.8z M373.3,112.7c0-0.4-0.1-0.7-0.3-1.1
	c-0.1-0.3-0.3-0.6-0.6-0.8c-0.4-0.4-0.8-0.6-1.3-0.7c-0.5-0.1-1,0-1.5,0.2c-0.3,0.1-0.6,0.3-0.8,0.5c-0.2,0.2-0.4,0.5-0.6,0.8
	c-0.1,0.3-0.2,0.7-0.3,1.1H373.3z"/>
<path class="st3" d="M377.4,116.8c-0.3,0-0.7-0.1-1-0.2c-0.3-0.1-0.5-0.3-0.8-0.5c-0.2-0.2-0.4-0.4-0.5-0.7
	c-0.1-0.3-0.2-0.6-0.2-0.9c0-0.3,0.1-0.6,0.2-0.9c0.2-0.3,0.4-0.5,0.6-0.7c0.3-0.2,0.6-0.4,1-0.5c0.4-0.1,0.8-0.2,1.2-0.2
	c0.4,0,0.8,0,1.2,0.1c0.3,0.1,0.7,0.2,1,0.3v-0.7c0-0.6-0.2-1.1-0.5-1.5c-0.2-0.2-0.4-0.3-0.7-0.4s-0.5-0.1-0.8-0.1
	c-0.4,0-0.8,0.1-1.2,0.2c-0.4,0.2-0.8,0.4-1.2,0.6l-0.3-0.6c0.8-0.6,1.7-0.9,2.7-1c0.4,0,0.8,0,1.2,0.2c0.4,0.1,0.7,0.3,1,0.6
	c0.3,0.3,0.5,0.6,0.6,1c0.1,0.4,0.2,0.8,0.2,1.1v3.3c0,0.3,0.1,0.4,0.3,0.4v0.9c-0.1,0-0.2,0-0.4,0c-0.2,0-0.4-0.1-0.6-0.2
	c-0.1-0.1-0.1-0.1-0.2-0.2c0-0.1-0.1-0.2-0.1-0.3v-0.6c-0.3,0.4-0.8,0.8-1.3,1C378.6,116.7,378,116.8,377.4,116.8z M377.7,116.1
	c0.5,0,0.9-0.1,1.4-0.3c0.4-0.2,0.7-0.4,0.9-0.7c0.1-0.1,0.1-0.2,0.2-0.3c0-0.1,0-0.2,0-0.3v-1.2c-0.3-0.1-0.6-0.2-1-0.3
	c-0.3-0.1-0.7-0.1-1-0.1c-0.6,0-1.1,0.1-1.6,0.4c-0.2,0.1-0.4,0.3-0.5,0.5c-0.1,0.2-0.2,0.4-0.2,0.6c0,0.2,0,0.4,0.1,0.6
	c0.1,0.2,0.2,0.4,0.4,0.5c0.2,0.1,0.3,0.3,0.5,0.3C377.1,116.1,377.4,116.1,377.7,116.1z"/>
<path class="st3" d="M386.8,110.2c-0.6,0-1.2,0.2-1.7,0.5c-0.5,0.3-0.8,0.8-1,1.4v4.6h-1v-7.3h0.9v1.7c0.2-0.5,0.6-1,1.1-1.3
	c0.4-0.3,0.9-0.5,1.5-0.5h0.2V110.2z"/>
<path class="st3" d="M394.9,106.8h0.8l4.1,9.9h-1l-1.3-3.1h-4.5l-1.3,3.2h-1L394.9,106.8z M397.3,112.8l-2-4.9l-2,4.9H397.3z"/>
<path class="st3" d="M400.9,106.5h0.9v8.5c0,0.2,0.1,0.5,0.2,0.6c0.1,0.1,0.2,0.1,0.3,0.2c0.1,0,0.2,0.1,0.3,0h0.4l0.4-0.1l0.2,0.8
	c-0.2,0.1-0.4,0.1-0.7,0.2c-0.2,0-0.4,0.1-0.7,0.1c-0.2,0-0.4,0-0.6-0.1c-0.2-0.1-0.3-0.2-0.5-0.3c-0.1-0.1-0.2-0.3-0.3-0.5
	s-0.1-0.4-0.1-0.6V106.5z"/>
<path class="st3" d="M404.6,106.5h1v8.5c0,0.2,0.1,0.5,0.2,0.6c0.1,0.1,0.2,0.1,0.3,0.2c0.1,0,0.2,0.1,0.3,0h0.4
	c0.1,0,0.3-0.1,0.4-0.1l0.2,0.8c-0.2,0.1-0.4,0.1-0.6,0.2c-0.2,0-0.4,0.1-0.7,0.1c-0.2,0-0.4,0-0.6-0.1c-0.2-0.1-0.3-0.2-0.5-0.3
	c-0.1-0.1-0.2-0.3-0.3-0.5c-0.1-0.2-0.1-0.4-0.1-0.6V106.5z"/>
<path class="st6" d="M433.5,1H1v65.1h432.5V1z"/>
<path class="st3" d="M21.9,41.2V26.4h3v7.1l6.2-7.1h3.2L28.5,33l6,8.3h-3.2l-4.7-6.4l-1.8,2v4.4H21.9z"/>
<path class="st3" d="M39.9,41.4c-0.8,0-1.6-0.1-2.3-0.4c-0.7-0.3-1.3-0.7-1.8-1.2c-0.5-0.5-0.9-1.1-1.2-1.8
	c-0.3-0.7-0.4-1.4-0.4-2.2c0-0.8,0.1-1.5,0.4-2.2c0.3-0.7,0.7-1.3,1.2-1.8c0.5-0.5,1.1-1,1.8-1.3c0.7-0.3,1.5-0.5,2.3-0.5
	c0.8,0,1.6,0.1,2.4,0.5c0.7,0.3,1.3,0.7,1.8,1.3c0.5,0.5,0.9,1.1,1.2,1.8c0.3,0.7,0.4,1.4,0.4,2.1c0,0.2,0,0.4,0,0.5
	c0,0.1,0,0.3,0,0.4h-8.6c0,0.4,0.1,0.8,0.3,1.2c0.2,0.3,0.4,0.6,0.7,0.9c0.5,0.5,1.2,0.7,1.9,0.7c0.6,0,1.1-0.1,1.6-0.4
	c0.5-0.2,0.8-0.6,1-1.1l2.4,0.7c-0.4,0.9-1.1,1.6-1.9,2.1C42.2,41.2,41.1,41.5,39.9,41.4z M42.8,34.8c0-0.8-0.4-1.5-0.9-2
	c-0.5-0.5-1.2-0.7-1.9-0.7c-0.4,0-0.7,0.1-1.1,0.2c-0.3,0.1-0.6,0.3-0.9,0.5c-0.3,0.2-0.5,0.5-0.6,0.9c-0.2,0.4-0.3,0.8-0.3,1.2
	L42.8,34.8z"/>
<path class="st3" d="M47.2,43.4c0.2,0.1,0.5,0.1,0.7,0.2c0.2,0,0.4,0.1,0.6,0.1c0.2,0,0.3,0,0.5-0.1c0.2-0.1,0.3-0.2,0.4-0.4
	c0.2-0.2,0.3-0.5,0.4-0.7c0.2-0.4,0.3-0.8,0.4-1.2l-4.4-11h2.9l3,8.5l2.6-8.5h2.6l-4.6,13.2c-0.3,0.8-0.7,1.4-1.4,1.9
	c-0.7,0.5-1.5,0.8-2.3,0.7c-0.2,0-0.5,0-0.7-0.1c-0.2,0-0.5-0.1-0.7-0.2L47.2,43.4z"/>
<path class="st3" d="M72.5,30.2h2.7l-4.6,11h-2.3l-1.9-4.8l-1.9,4.8h-2.3l-4.6-11h2.6l3.3,8.3l1.3-3.6L63,30.3h2.3l1.2,3.4l1.2-3.4
	h2.3L67.9,35l1.3,3.6L72.5,30.2z"/>
<path class="st3" d="M81,41.4c-0.8,0-1.6-0.1-2.4-0.5c-0.7-0.3-1.3-0.7-1.8-1.2c-0.5-0.5-0.9-1.2-1.2-1.8c-0.3-0.7-0.4-1.4-0.4-2.2
	c0-0.7,0.1-1.5,0.4-2.2c0.3-0.7,0.7-1.3,1.2-1.8c0.5-0.5,1.1-0.9,1.8-1.2c1.5-0.6,3.3-0.6,4.8,0c0.7,0.3,1.3,0.7,1.8,1.2
	c0.5,0.5,0.9,1.1,1.2,1.8c0.3,0.7,0.4,1.4,0.4,2.2c0,0.7-0.1,1.5-0.4,2.2c-0.3,0.7-0.7,1.3-1.2,1.8c-0.5,0.5-1.1,1-1.8,1.2
	C82.6,41.3,81.8,41.4,81,41.4z M78.1,35.7c0,0.5,0.1,0.9,0.2,1.3c0.1,0.4,0.3,0.7,0.6,1c0.3,0.3,0.6,0.5,0.9,0.7
	C80.2,39,80.6,39,81,39c0.4,0,0.8-0.1,1.1-0.2c0.3-0.2,0.7-0.4,0.9-0.7c0.3-0.3,0.5-0.7,0.6-1c0.3-0.9,0.3-1.8,0-2.7
	c-0.1-0.4-0.3-0.7-0.6-1c-0.3-0.3-0.6-0.5-0.9-0.7c-0.4-0.2-0.8-0.3-1.2-0.2c-0.4,0-0.8,0.1-1.2,0.3c-0.3,0.2-0.7,0.4-0.9,0.7
	c-0.3,0.3-0.5,0.7-0.6,1C78.1,34.9,78.1,35.3,78.1,35.7z"/>
<path class="st3" d="M95.1,32.7c-0.8,0-1.6,0.2-2.3,0.5c-0.6,0.3-1.2,0.8-1.5,1.4v6.6h-2.8v-11h2.6v2.3c0.2-0.4,0.4-0.7,0.7-1
	c0.3-0.3,0.5-0.5,0.9-0.8c0.3-0.2,0.6-0.4,0.9-0.5c0.3-0.1,0.6-0.2,0.9-0.2h0.6L95.1,32.7z"/>
<path class="st3" d="M101,41.4c-0.7,0-1.4-0.1-2.1-0.4s-1.2-0.7-1.7-1.2c-0.5-0.5-0.8-1.1-1.1-1.8c-0.3-0.7-0.4-1.5-0.4-2.2
	c0-0.8,0.1-1.5,0.4-2.2c0.2-0.7,0.6-1.3,1-1.8c0.4-0.5,1-0.9,1.5-1.2c0.6-0.3,1.3-0.4,2-0.4c0.8,0,1.5,0.2,2.2,0.6
	c0.6,0.4,1.1,0.9,1.5,1.5v-6.3h2.8V38c0,0.2,0,0.4,0.2,0.6c0.1,0.1,0.1,0.1,0.2,0.2c0.1,0,0.2,0.1,0.3,0v2.3
	c-0.4,0.1-0.8,0.1-1.2,0.2c-0.4,0-0.9-0.1-1.2-0.4c-0.2-0.1-0.3-0.3-0.4-0.4c-0.1-0.2-0.1-0.4-0.2-0.5l-0.1-0.7
	c-0.4,0.7-1,1.2-1.6,1.6C102.5,41.2,101.8,41.4,101,41.4z M101.7,39.1c0.3,0,0.6,0,0.8-0.1c0.3-0.1,0.5-0.2,0.8-0.4
	c0.2-0.2,0.5-0.4,0.6-0.6c0.2-0.2,0.3-0.5,0.4-0.7v-2.7c-0.1-0.3-0.3-0.6-0.5-0.8c-0.2-0.3-0.4-0.5-0.7-0.7
	c-0.3-0.2-0.5-0.3-0.8-0.5c-0.3-0.1-0.7-0.2-1-0.2c-0.3,0-0.7,0.1-1,0.3c-0.4,0.2-0.7,0.4-0.9,0.7c-0.3,0.3-0.5,0.7-0.6,1.1
	c-0.1,0.4-0.2,0.8-0.2,1.3c0,0.4,0.1,0.9,0.2,1.3c0.1,0.4,0.4,0.7,0.6,1c0.3,0.3,0.6,0.5,1,0.7C100.9,39,101.3,39,101.7,39.1
	L101.7,39.1z"/>
<path class="st3" d="M114,41.4c-0.9,0-1.8-0.1-2.7-0.4c-0.8-0.3-1.6-0.7-2.3-1.3l1-1.8c0.6,0.4,1.3,0.8,2,1.1
	c0.6,0.2,1.2,0.4,1.9,0.4c0.5,0,0.9-0.1,1.3-0.3c0.2-0.1,0.3-0.2,0.4-0.4s0.1-0.3,0.1-0.5c0-0.2,0-0.4-0.1-0.5
	c-0.1-0.2-0.2-0.3-0.4-0.3c-0.6-0.3-1.2-0.5-1.8-0.6c-0.7-0.2-1.3-0.4-1.8-0.6c-0.4-0.2-0.8-0.4-1.2-0.6c-0.3-0.2-0.5-0.5-0.7-0.8
	c-0.1-0.3-0.2-0.7-0.2-1.1c0-0.5,0.1-1,0.3-1.5c0.2-0.5,0.5-0.8,0.9-1.2c0.4-0.3,0.8-0.5,1.3-0.7c0.5-0.2,1.1-0.3,1.7-0.3
	c0.8,0,1.6,0.1,2.3,0.4c0.7,0.2,1.4,0.6,2,1.2l-1.2,1.7c-0.5-0.4-1-0.7-1.6-0.9c-0.5-0.2-1-0.3-1.6-0.3c-0.4,0-0.8,0.1-1.2,0.3
	c-0.2,0.1-0.3,0.2-0.4,0.4c-0.1,0.2-0.1,0.4-0.1,0.5c0,0.2,0,0.3,0.1,0.5c0.1,0.1,0.2,0.3,0.4,0.3c0.2,0.1,0.4,0.2,0.7,0.3
	c0.3,0.1,0.7,0.2,1,0.3c0.8,0.2,1.4,0.4,1.9,0.6c0.5,0.2,0.9,0.4,1.3,0.7c0.3,0.2,0.6,0.5,0.8,0.9c0.2,0.4,0.2,0.8,0.2,1.2
	c0,0.5-0.1,1-0.3,1.4c-0.2,0.4-0.5,0.8-0.9,1.1C116.4,41.2,115.2,41.5,114,41.4z"/>
<path class="st3" d="M124.7,34c0-0.7,0.1-1.4,0.2-2.1c0.2-0.7,0.4-1.4,0.7-2.1c0.3-0.7,0.6-1.4,1-2.1c0.4-0.7,0.8-1.5,1.2-2.2
	l2.1,0.9c-0.3,0.4-0.5,0.9-0.8,1.4c-0.3,0.6-0.6,1.3-0.9,1.9c-0.3,0.7-0.5,1.5-0.7,2.2c-0.2,0.7-0.3,1.5-0.3,2.2
	c0,1.2,0.3,2.4,0.7,3.5c0.5,1.3,1.2,2.6,1.9,3.8l-2.1,1c-0.4-0.6-0.8-1.3-1.2-2c-0.4-0.7-0.7-1.4-1-2.1c-0.3-0.7-0.5-1.4-0.7-2.1
	C124.8,35.4,124.8,34.7,124.7,34z"/>
<path class="st3" d="M142.2,38.7v2.5h-10.3V26.3H142v2.5h-7.2v3.6h6.3v2.3h-6.3v3.9L142.2,38.7z"/>
<path class="st3" d="M146.1,30.2l2.3,3.5l0.2,0.4l0.2-0.4l2.3-3.5h2.9l-3.9,5.5l4,5.5h-2.9l-2.4-3.4l-0.2-0.4l-0.2,0.4l-2.4,3.4
	h-2.9l4-5.5l-3.9-5.5H146.1z"/>
<path class="st3" d="M155.4,41.2v-3h2.3v3H155.4z"/>
<path class="st3" d="M177.6,41.2v-9.8l-3.8,7.3h-1.6l-3.8-7.3v9.8h-2.8V26.3h3.1l4.4,8.5l4.4-8.5h3.1v14.9H177.6z"/>
<path class="st3" d="M188.4,41.4c-0.8,0-1.6-0.1-2.4-0.5c-0.7-0.3-1.3-0.7-1.8-1.2c-0.5-0.5-0.9-1.1-1.2-1.8
	c-0.3-0.7-0.4-1.4-0.4-2.2c0-0.7,0.1-1.5,0.4-2.2c0.3-0.7,0.7-1.3,1.2-1.8c0.5-0.5,1.1-0.9,1.8-1.2c0.8-0.3,1.6-0.5,2.4-0.5
	c0.8,0,1.6,0.1,2.4,0.5c0.7,0.3,1.3,0.7,1.8,1.2c0.5,0.5,0.9,1.1,1.2,1.8c0.3,0.7,0.4,1.4,0.4,2.2c0,0.7-0.1,1.5-0.4,2.2
	c-0.3,0.7-0.7,1.3-1.2,1.8c-0.5,0.5-1.1,1-1.8,1.2C190,41.3,189.2,41.4,188.4,41.4z M185.5,35.7c0,0.5,0.1,0.9,0.2,1.3
	c0.1,0.4,0.3,0.7,0.6,1c0.2,0.3,0.6,0.5,0.9,0.7c0.4,0.2,0.7,0.2,1.1,0.2c0.4,0,0.8-0.1,1.1-0.2c0.4-0.2,0.7-0.4,0.9-0.7
	c0.3-0.3,0.5-0.7,0.6-1c0.3-0.9,0.3-1.8,0-2.7c-0.1-0.4-0.3-0.7-0.6-1c-0.3-0.3-0.6-0.5-0.9-0.7c-0.4-0.2-0.8-0.3-1.2-0.2
	c-0.4,0-0.8,0.1-1.2,0.3c-0.3,0.2-0.7,0.4-0.9,0.7c-0.3,0.3-0.5,0.7-0.6,1C185.6,34.9,185.5,35.3,185.5,35.7z"/>
<path class="st3" d="M200.5,41.4c-0.7,0-1.4-0.1-2.1-0.4c-0.6-0.3-1.2-0.7-1.7-1.2c-0.5-0.5-0.8-1.1-1.1-1.8
	c-0.3-0.7-0.4-1.5-0.4-2.2c0-0.8,0.1-1.5,0.4-2.2c0.2-0.7,0.6-1.3,1-1.8c0.4-0.5,1-0.9,1.5-1.2c0.6-0.3,1.3-0.4,2-0.4
	c0.8,0,1.5,0.2,2.2,0.6c0.6,0.4,1.2,0.9,1.5,1.5v-6.2h2.8V38c0,0.2,0,0.4,0.2,0.6c0.1,0.1,0.2,0.1,0.2,0.2c0.1,0,0.2,0,0.3,0v2.3
	c-0.4,0.1-0.8,0.1-1.2,0.2c-0.4,0-0.9-0.1-1.2-0.4c-0.2-0.1-0.3-0.3-0.4-0.4c-0.1-0.2-0.2-0.4-0.2-0.5v-0.7c-0.4,0.7-1,1.2-1.6,1.6
	C202.1,41.2,201.3,41.4,200.5,41.4z M201.3,39.1c0.3,0,0.6,0,0.8-0.1c0.3-0.1,0.5-0.2,0.8-0.4c0.2-0.2,0.5-0.4,0.6-0.6
	c0.2-0.2,0.3-0.5,0.4-0.7v-2.7c-0.1-0.3-0.3-0.6-0.5-0.8c-0.2-0.3-0.4-0.5-0.7-0.7c-0.3-0.2-0.5-0.3-0.8-0.5c-0.3-0.1-0.7-0.2-1-0.2
	c-0.3,0-0.7,0.1-1,0.3c-0.4,0.2-0.7,0.4-0.9,0.7c-0.3,0.3-0.5,0.7-0.6,1.1c-0.1,0.4-0.2,0.8-0.2,1.3c0,0.4,0.1,0.9,0.2,1.3
	c0.1,0.4,0.4,0.7,0.6,1c0.3,0.3,0.6,0.5,1,0.7C200.4,39,200.9,39,201.3,39.1L201.3,39.1z"/>
<path class="st3" d="M214.4,41.4c-0.8,0-1.6-0.1-2.3-0.4c-0.7-0.3-1.3-0.7-1.8-1.2c-0.5-0.5-0.9-1.1-1.2-1.8
	c-0.3-0.7-0.4-1.4-0.4-2.2c0-0.8,0.1-1.5,0.4-2.2c0.3-0.7,0.7-1.3,1.2-1.8c0.5-0.5,1.1-1,1.8-1.3c0.8-0.3,1.6-0.5,2.4-0.5
	c0.8,0,1.6,0.1,2.4,0.5c0.7,0.3,1.3,0.8,1.7,1.3c0.5,0.5,0.9,1.1,1.2,1.8c0.3,0.7,0.4,1.4,0.4,2.1c0,0.2,0,0.4,0,0.5
	c0,0.1,0,0.3,0,0.4h-8.6c0,0.4,0.1,0.8,0.3,1.2c0.2,0.3,0.4,0.6,0.7,0.9c0.5,0.5,1.2,0.7,1.9,0.7c0.6,0,1.1-0.1,1.6-0.4
	c0.5-0.2,0.8-0.6,1-1.1l2.4,0.7c-0.4,0.9-1.1,1.6-1.9,2.1C216.6,41.2,215.5,41.5,214.4,41.4z M217.3,34.8c0-0.8-0.4-1.5-0.9-2
	c-0.5-0.5-1.2-0.7-2-0.7c-0.4,0-0.7,0.1-1.1,0.2c-0.3,0.1-0.6,0.3-0.9,0.5c-0.3,0.2-0.5,0.5-0.6,0.9c-0.2,0.4-0.3,0.8-0.3,1.2
	L217.3,34.8z"/>
<path class="st3" d="M221.8,25.9h2.8v11.8c0,0.3,0.1,0.7,0.3,0.9c0.1,0.1,0.2,0.2,0.4,0.3c0.1,0.1,0.3,0.1,0.5,0.1
	c0.2,0,0.4,0,0.5-0.1c0.2-0.1,0.4-0.1,0.6-0.2l0.4,2.1c-0.4,0.2-0.9,0.3-1.3,0.4c-0.4,0.1-0.9,0.1-1.4,0.2c-0.4,0-0.7,0-1.1-0.1
	c-0.4-0.1-0.7-0.3-1-0.6c-0.2-0.3-0.4-0.6-0.6-0.9c-0.1-0.3-0.2-0.7-0.2-1.1V25.9z"/>
<path class="st3" d="M232.9,41.4c-0.9,0-1.8-0.1-2.7-0.4c-0.8-0.3-1.6-0.7-2.3-1.3l1-1.8c0.6,0.4,1.3,0.8,2,1.1
	c0.6,0.2,1.2,0.4,1.9,0.4c0.5,0,0.9-0.1,1.3-0.3c0.2-0.1,0.3-0.2,0.4-0.4c0.1-0.2,0.1-0.3,0.1-0.5c0-0.2,0-0.4-0.2-0.5
	c-0.1-0.2-0.2-0.3-0.4-0.3c-0.6-0.3-1.2-0.5-1.8-0.6c-0.7-0.2-1.3-0.4-1.8-0.6c-0.4-0.2-0.8-0.4-1.2-0.6c-0.3-0.2-0.5-0.5-0.7-0.8
	c-0.1-0.3-0.2-0.7-0.2-1.1c0-0.5,0.1-1,0.3-1.5c0.2-0.4,0.5-0.8,0.9-1.2c0.4-0.3,0.9-0.6,1.4-0.7c0.6-0.2,1.1-0.3,1.7-0.3
	c0.8,0,1.6,0.1,2.3,0.4c0.7,0.2,1.4,0.6,2,1.2l-1.2,1.7c-0.5-0.4-1-0.7-1.6-0.9c-0.5-0.2-1-0.3-1.6-0.3c-0.4,0-0.8,0.1-1.2,0.3
	c-0.2,0.1-0.3,0.2-0.4,0.4s-0.1,0.4-0.1,0.5c0,0.2,0,0.3,0.1,0.5c0.1,0.1,0.2,0.3,0.4,0.3c0.2,0.1,0.4,0.2,0.7,0.3
	c0.3,0.1,0.6,0.2,1,0.3c0.7,0.2,1.4,0.4,1.9,0.6c0.5,0.2,0.9,0.4,1.3,0.7c0.3,0.2,0.6,0.5,0.7,0.9c0.2,0.4,0.3,0.8,0.2,1.2
	c0,0.5-0.1,1-0.3,1.4c-0.2,0.4-0.5,0.8-0.9,1.1C235.3,41.2,234.1,41.5,232.9,41.4z"/>
<path class="st3" d="M250.9,36.3c0.8,0.1,1.6,0.6,2.1,1.2c0.5,0.7,0.8,1.6,0.8,2.4c0,0.6-0.1,1.2-0.4,1.8c-0.3,0.5-0.6,1-1.1,1.3
	c-0.5,0.4-1.1,0.7-1.7,0.9c-0.7,0.2-1.5,0.3-2.3,0.3c-1,0-1.9-0.2-2.8-0.5c-0.8-0.3-1.5-0.8-2.1-1.5l1.6-2c0.3,0.5,0.8,0.8,1.3,1.1
	c0.6,0.3,1.2,0.4,1.9,0.4c0.7,0,1.4-0.1,1.9-0.5c0.2-0.2,0.4-0.4,0.5-0.7c0.1-0.3,0.2-0.6,0.1-0.9c0-0.3,0-0.6-0.2-0.9
	s-0.3-0.5-0.6-0.7c-0.7-0.4-1.5-0.6-2.3-0.6h-0.6v-2.1h0.7c0.7,0,1.4-0.2,2-0.6c0.2-0.2,0.4-0.4,0.5-0.7c0.1-0.3,0.2-0.5,0.2-0.8
	c0-0.2,0-0.5-0.1-0.7c-0.1-0.2-0.3-0.4-0.5-0.6c-0.5-0.3-1-0.4-1.5-0.4c-0.6,0-1.2,0.1-1.7,0.4c-0.5,0.3-0.9,0.7-1.2,1.2l-1.8-2
	c0.2-0.3,0.5-0.6,0.8-0.9c0.4-0.3,0.8-0.5,1.2-0.7c0.5-0.2,0.9-0.3,1.4-0.4c0.5-0.1,1.1-0.2,1.6-0.2c0.7,0,1.3,0.1,1.9,0.3
	c0.5,0.2,1.1,0.4,1.5,0.8c0.4,0.3,0.8,0.7,1,1.2c0.2,0.5,0.4,1,0.3,1.5c0,0.4-0.1,0.8-0.2,1.2c-0.1,0.4-0.3,0.7-0.5,1
	c-0.2,0.3-0.5,0.6-0.8,0.8C251.7,36,251.3,36.2,250.9,36.3z"/>
<path class="st3" d="M261.2,41.2V26.3h6.6c0.7,0,1.3,0.1,1.9,0.4c0.6,0.3,1.1,0.7,1.5,1.2c0.4,0.5,0.8,1,1,1.6
	c0.3,0.7,0.4,1.5,0.3,2.3c-0.1,0.8-0.3,1.5-0.7,2.2c-0.4,0.8-1.1,1.4-2,1.7l3.4,5.6H270l-3-5h-2.9v5L261.2,41.2z M264.1,33.7h3.6
	c0.3,0,0.5-0.1,0.7-0.2c0.2-0.1,0.5-0.3,0.6-0.5c0.2-0.2,0.3-0.5,0.4-0.8c0.1-0.3,0.1-0.6,0.1-0.9c0-0.3-0.1-0.7-0.2-1
	c-0.1-0.3-0.3-0.5-0.5-0.8c-0.2-0.2-0.4-0.4-0.7-0.5c-0.2-0.1-0.5-0.2-0.7-0.2h-3.5L264.1,33.7z"/>
<path class="st3" d="M279.7,41.4c-0.8,0-1.6-0.1-2.4-0.4c-0.7-0.3-1.3-0.7-1.8-1.2c-0.5-0.5-0.9-1.1-1.2-1.8
	c-0.3-0.7-0.4-1.4-0.4-2.2c0-0.8,0.1-1.5,0.4-2.2c0.3-0.7,0.7-1.3,1.2-1.8c0.5-0.5,1.1-1,1.8-1.3c0.8-0.3,1.6-0.5,2.4-0.5
	c0.8,0,1.6,0.1,2.4,0.5c0.7,0.3,1.3,0.8,1.8,1.3c0.5,0.5,0.9,1.1,1.2,1.8c0.3,0.7,0.4,1.4,0.4,2.1c0,0.2,0,0.4,0,0.5
	c0,0.1,0,0.3-0.1,0.4h-8.5c0,0.4,0.1,0.8,0.3,1.2c0.2,0.3,0.4,0.6,0.7,0.9c0.3,0.2,0.6,0.4,0.9,0.5c0.3,0.1,0.7,0.2,1,0.2
	c0.6,0,1.1-0.1,1.6-0.4c0.5-0.2,0.8-0.6,1-1.1l2.4,0.7c-0.4,0.9-1.1,1.6-1.9,2.1C281.9,41.2,280.8,41.5,279.7,41.4z M282.5,34.8
	c0-0.8-0.4-1.5-0.9-2c-0.5-0.5-1.2-0.8-2-0.7c-0.4,0-0.7,0.1-1.1,0.2c-0.3,0.1-0.6,0.3-0.9,0.5c-0.5,0.5-0.9,1.2-0.9,2H282.5z"/>
<path class="st3" d="M289.6,41.2l-4-11h2.9l2.8,8.7l2.8-8.7h2.6l-4,11H289.6z"/>
<path class="st3" d="M302.7,41.4c-0.8,0-1.6-0.1-2.4-0.4c-0.7-0.3-1.3-0.7-1.8-1.2c-0.5-0.5-0.9-1.1-1.2-1.8
	c-0.3-0.7-0.4-1.4-0.4-2.2c0-0.8,0.1-1.5,0.4-2.2c0.3-0.7,0.7-1.3,1.2-1.8c0.5-0.5,1.1-1,1.8-1.3c0.8-0.3,1.6-0.5,2.4-0.5
	c0.8,0,1.6,0.1,2.4,0.5c0.7,0.3,1.3,0.8,1.8,1.3c0.5,0.5,0.9,1.1,1.2,1.8c0.3,0.7,0.4,1.4,0.4,2.1v0.5c0,0.1,0,0.3,0,0.4h-8.6
	c0,0.4,0.1,0.8,0.3,1.2c0.2,0.3,0.4,0.6,0.7,0.9c0.5,0.5,1.2,0.7,1.9,0.7c0.6,0,1.1-0.1,1.6-0.4c0.5-0.2,0.8-0.6,1-1.1l2.4,0.7
	c-0.4,0.9-1.1,1.6-1.9,2.1C304.9,41.2,303.8,41.5,302.7,41.4z M305.6,34.8c0-0.8-0.4-1.5-0.9-2c-0.5-0.5-1.2-0.7-2-0.7
	c-0.4,0-0.7,0.1-1,0.2c-0.3,0.1-0.6,0.3-0.9,0.5c-0.3,0.2-0.5,0.5-0.6,0.9c-0.2,0.4-0.3,0.8-0.3,1.2L305.6,34.8z"/>
<path class="st3" d="M320.3,41.2h-2.8v-6.2c0-0.7-0.1-1.4-0.5-1.9c-0.1-0.2-0.3-0.4-0.6-0.5c-0.2-0.1-0.5-0.2-0.7-0.1
	c-0.3,0-0.6,0.1-0.9,0.2c-0.3,0.1-0.6,0.3-0.8,0.5c-0.3,0.2-0.5,0.5-0.7,0.7c-0.2,0.3-0.4,0.6-0.5,0.9v6.4h-2.8v-11h2.5v2
	c0.4-0.7,1-1.3,1.8-1.6c0.8-0.4,1.7-0.6,2.6-0.6c0.6,0,1.2,0.1,1.7,0.4c0.4,0.2,0.8,0.6,1,1c0.2,0.4,0.4,0.9,0.5,1.4
	c0.1,0.5,0.1,1,0.1,1.6L320.3,41.2z"/>
<path class="st3" d="M326.1,41.4c-0.5,0-1,0-1.4-0.2c-0.4-0.2-0.8-0.5-1.2-0.8c-0.7-0.9-1-2.1-0.9-3.2v-6.9h2.8v6.2
	c0,1.7,0.6,2.5,1.8,2.5c0.6,0,1.1-0.2,1.6-0.5c0.5-0.4,1-0.9,1.2-1.5v-6.8h2.8V38c0,0.2,0,0.4,0.2,0.6c0.1,0.1,0.1,0.1,0.2,0.2
	c0.1,0,0.2,0.1,0.3,0v2.3c-0.2,0.1-0.5,0.1-0.7,0.1h-0.5c-0.4,0-0.9-0.1-1.2-0.3c-0.2-0.1-0.3-0.2-0.4-0.4s-0.2-0.3-0.2-0.5v-0.9
	c-0.5,0.7-1.1,1.3-1.9,1.7C327.9,41.2,327,41.4,326.1,41.4z"/>
<path class="st3" d="M340.6,41.4c-0.8,0-1.6-0.1-2.4-0.4c-0.7-0.3-1.3-0.7-1.8-1.2c-0.5-0.5-0.9-1.1-1.2-1.8
	c-0.3-0.7-0.4-1.4-0.4-2.2c0-0.8,0.1-1.5,0.4-2.2c0.3-0.7,0.7-1.3,1.2-1.8c0.5-0.5,1.1-1,1.8-1.3c0.8-0.3,1.6-0.5,2.4-0.5
	c0.8,0,1.6,0.1,2.4,0.5c0.7,0.3,1.3,0.8,1.8,1.3c0.5,0.5,0.9,1.1,1.2,1.8c0.3,0.7,0.4,1.4,0.4,2.1c0,0.2,0,0.4,0,0.5
	c0,0.1,0,0.3,0,0.4h-8.5c0,0.4,0.1,0.8,0.3,1.2c0.2,0.3,0.4,0.6,0.6,0.9c0.3,0.2,0.6,0.4,0.9,0.5c0.3,0.1,0.7,0.2,1,0.2
	c0.6,0,1.1-0.1,1.6-0.4c0.5-0.2,0.8-0.6,1-1.1l2.4,0.7c-0.4,0.9-1.1,1.6-1.9,2.1C342.9,41.2,341.7,41.5,340.6,41.4z M343.4,34.8
	c0-0.8-0.4-1.5-0.9-2c-0.5-0.5-1.2-0.8-2-0.7c-0.4,0-0.7,0.1-1.1,0.2c-0.3,0.1-0.6,0.3-0.9,0.5c-0.3,0.2-0.5,0.5-0.6,0.9
	c-0.2,0.4-0.3,0.8-0.3,1.2L343.4,34.8z"/>
<path class="st3" d="M351.9,34c0,0.7-0.1,1.4-0.2,2.1c-0.2,0.7-0.4,1.4-0.7,2.1c-0.3,0.7-0.6,1.4-1,2.1c-0.4,0.7-0.8,1.4-1.2,2l-2-1
	c0.7-1.2,1.3-2.5,1.9-3.8c0.4-1.1,0.7-2.3,0.7-3.5c0-0.8-0.1-1.5-0.3-2.2c-0.2-0.7-0.4-1.5-0.7-2.2c-0.2-0.7-0.5-1.3-0.9-1.9
	c-0.3-0.6-0.6-1-0.8-1.4l2.2-0.9c0.4,0.7,0.8,1.5,1.2,2.2c0.4,0.7,0.7,1.4,1,2.1c0.3,0.7,0.5,1.4,0.7,2.1
	C351.8,32.5,351.9,33.2,351.9,34z"/>
<path class="st7" d="M386.7,23.3h28.6"/>
<path class="st7" d="M386.7,33.6h28.6"/>
<path class="st7" d="M386.7,43.8h28.6"/>
<path class="st3" d="M392.8,36.8c1.8,0,3.2-1.4,3.2-3.2c0-1.8-1.4-3.2-3.2-3.2c-1.8,0-3.2,1.4-3.2,3.2
	C389.6,35.3,391,36.8,392.8,36.8z"/>
<path class="st3" d="M409.2,26.5c1.8,0,3.2-1.4,3.2-3.2s-1.4-3.2-3.2-3.2c-1.8,0-3.2,1.4-3.2,3.2S407.4,26.5,409.2,26.5z"/>
<path class="st3" d="M409.2,47c1.8,0,3.2-1.4,3.2-3.2c0-1.8-1.4-3.2-3.2-3.2c-1.8,0-3.2,1.4-3.2,3.2C406,45.6,407.4,47,409.2,47z"/>
<path class="st3" d="M511,1h-65.1v65.1H511V1z"/>
<path class="st8" d="M483.8,39l9.1,9.1"/>
<path class="st8" d="M475.7,42.3c6.3,0,11.5-5.1,11.5-11.5s-5.1-11.5-11.5-11.5c-6.3,0-11.5,5.1-11.5,11.5S469.4,42.3,475.7,42.3z"
	/>
<path class="st1" d="M511,78.9h-65.6v65.6H511V78.9z"/>
<path class="st8" d="M493.6,91.8h-26.3v34.6h26.3V91.8z"/>
<path class="st9" d="M487.2,98.5h-24.4v30.8h24.4V98.5z"/>
<path class="st8" d="M467.4,103.1h7.6"/>
<path class="st8" d="M467.4,108.4h13.7"/>
<path class="st8" d="M467.4,113.6h13.7"/>
<path class="st8" d="M467.4,118.9h7.6"/>
<path class="st8" d="M467.4,124.1h13.7"/>
</svg>
