<svg width="165" height="166" viewBox="0 0 165 166" fill="none" xmlns="http://www.w3.org/2000/svg">
<g clip-path="url(#clip0_468_7733)">
<circle cx="1.5" cy="1.5" r="1.5" fill="#D2D6DB"/>
<circle cx="10.5" cy="1.5" r="1.5" fill="#D2D6DB"/>
<circle cx="19.5" cy="1.5" r="1.5" fill="#D2D6DB"/>
<circle cx="28.5" cy="1.5" r="1.5" fill="#D2D6DB"/>
<circle cx="37.5" cy="1.5" r="1.5" fill="#D2D6DB"/>
<circle cx="46.5" cy="1.5" r="1.5" fill="#D2D6DB"/>
<circle cx="55.5" cy="1.5" r="1.5" fill="#D2D6DB"/>
<circle cx="64.5" cy="1.5" r="1.5" fill="#D2D6DB"/>
<circle cx="73.5" cy="1.5" r="1.5" fill="#D2D6DB"/>
<circle cx="82.5" cy="1.5" r="1.5" fill="#D2D6DB"/>
<circle cx="91.5" cy="1.5" r="1.5" fill="#D2D6DB"/>
<circle cx="100.5" cy="1.5" r="1.5" fill="#D2D6DB"/>
<circle cx="109.5" cy="1.5" r="1.5" fill="#D2D6DB"/>
<circle cx="118.5" cy="1.5" r="1.5" fill="#D2D6DB"/>
<circle cx="127.5" cy="1.5" r="1.5" fill="#D2D6DB"/>
<circle cx="136.5" cy="1.5" r="1.5" fill="#D2D6DB"/>
<circle cx="145.5" cy="1.5" r="1.5" fill="#D2D6DB"/>
<circle cx="154.5" cy="1.5" r="1.5" fill="#D2D6DB"/>
<circle cx="163.5" cy="1.5" r="1.5" fill="#D2D6DB"/>
<circle cx="1.5" cy="10.5" r="1.5" fill="#D2D6DB"/>
<circle cx="10.5" cy="10.5" r="1.5" fill="#D2D6DB"/>
<circle cx="19.5" cy="10.5" r="1.5" fill="#D2D6DB"/>
<circle cx="28.5" cy="10.5" r="1.5" fill="#D2D6DB"/>
<circle cx="37.5" cy="10.5" r="1.5" fill="#D2D6DB"/>
<circle cx="46.5" cy="10.5" r="1.5" fill="#D2D6DB"/>
<circle cx="55.5" cy="10.5" r="1.5" fill="#D2D6DB"/>
<circle cx="64.5" cy="10.5" r="1.5" fill="#D2D6DB"/>
<circle cx="73.5" cy="10.5" r="1.5" fill="#D2D6DB"/>
<circle cx="82.5" cy="10.5" r="1.5" fill="#D2D6DB"/>
<circle cx="91.5" cy="10.5" r="1.5" fill="#D2D6DB"/>
<circle cx="100.5" cy="10.5" r="1.5" fill="#D2D6DB"/>
<circle cx="109.5" cy="10.5" r="1.5" fill="#D2D6DB"/>
<circle cx="118.5" cy="10.5" r="1.5" fill="#D2D6DB"/>
<circle cx="127.5" cy="10.5" r="1.5" fill="#D2D6DB"/>
<circle cx="136.5" cy="10.5" r="1.5" fill="#D2D6DB"/>
<circle cx="145.5" cy="10.5" r="1.5" fill="#D2D6DB"/>
<circle cx="154.5" cy="10.5" r="1.5" fill="#D2D6DB"/>
<circle cx="163.5" cy="10.5" r="1.5" fill="#D2D6DB"/>
<circle cx="1.5" cy="19.5" r="1.5" fill="#D2D6DB"/>
<circle cx="10.5" cy="19.5" r="1.5" fill="#D2D6DB"/>
<circle cx="19.5" cy="19.5" r="1.5" fill="#D2D6DB"/>
<circle cx="28.5" cy="19.5" r="1.5" fill="#D2D6DB"/>
<circle cx="37.5" cy="19.5" r="1.5" fill="#D2D6DB"/>
<circle cx="46.5" cy="19.5" r="1.5" fill="#D2D6DB"/>
<circle cx="55.5" cy="19.5" r="1.5" fill="#D2D6DB"/>
<circle cx="64.5" cy="19.5" r="1.5" fill="#D2D6DB"/>
<circle cx="73.5" cy="19.5" r="1.5" fill="#D2D6DB"/>
<circle cx="82.5" cy="19.5" r="1.5" fill="#D2D6DB"/>
<circle cx="91.5" cy="19.5" r="1.5" fill="#D2D6DB"/>
<circle cx="100.5" cy="19.5" r="1.5" fill="#D2D6DB"/>
<circle cx="109.5" cy="19.5" r="1.5" fill="#D2D6DB"/>
<circle cx="118.5" cy="19.5" r="1.5" fill="#D2D6DB"/>
<circle cx="127.5" cy="19.5" r="1.5" fill="#D2D6DB"/>
<circle cx="136.5" cy="19.5" r="1.5" fill="#D2D6DB"/>
<circle cx="145.5" cy="19.5" r="1.5" fill="#D2D6DB"/>
<circle cx="154.5" cy="19.5" r="1.5" fill="#D2D6DB"/>
<circle cx="163.5" cy="19.5" r="1.5" fill="#D2D6DB"/>
<circle cx="1.5" cy="28.5" r="1.5" fill="#D2D6DB"/>
<circle cx="10.5" cy="28.5" r="1.5" fill="#D2D6DB"/>
<circle cx="19.5" cy="28.5" r="1.5" fill="#D2D6DB"/>
<circle cx="28.5" cy="28.5" r="1.5" fill="#D2D6DB"/>
<circle cx="37.5" cy="28.5" r="1.5" fill="#D2D6DB"/>
<circle cx="46.5" cy="28.5" r="1.5" fill="#D2D6DB"/>
<circle cx="55.5" cy="28.5" r="1.5" fill="#D2D6DB"/>
<circle cx="64.5" cy="28.5" r="1.5" fill="#D2D6DB"/>
<circle cx="73.5" cy="28.5" r="1.5" fill="#D2D6DB"/>
<circle cx="82.5" cy="28.5" r="1.5" fill="#D2D6DB"/>
<circle cx="91.5" cy="28.5" r="1.5" fill="#D2D6DB"/>
<circle cx="100.5" cy="28.5" r="1.5" fill="#D2D6DB"/>
<circle cx="109.5" cy="28.5" r="1.5" fill="#D2D6DB"/>
<circle cx="118.5" cy="28.5" r="1.5" fill="#D2D6DB"/>
<circle cx="127.5" cy="28.5" r="1.5" fill="#D2D6DB"/>
<circle cx="136.5" cy="28.5" r="1.5" fill="#D2D6DB"/>
<circle cx="145.5" cy="28.5" r="1.5" fill="#D2D6DB"/>
<circle cx="154.5" cy="28.5" r="1.5" fill="#D2D6DB"/>
<circle cx="163.5" cy="28.5" r="1.5" fill="#D2D6DB"/>
<circle cx="1.5" cy="37.5" r="1.5" fill="#D2D6DB"/>
<circle cx="10.5" cy="37.5" r="1.5" fill="#D2D6DB"/>
<circle cx="19.5" cy="37.5" r="1.5" fill="#D2D6DB"/>
<circle cx="28.5" cy="37.5" r="1.5" fill="#D2D6DB"/>
<circle cx="37.5" cy="37.5" r="1.5" fill="#D2D6DB"/>
<circle cx="46.5" cy="37.5" r="1.5" fill="#D2D6DB"/>
<circle cx="55.5" cy="37.5" r="1.5" fill="#D2D6DB"/>
<circle cx="64.5" cy="37.5" r="1.5" fill="#D2D6DB"/>
<circle cx="73.5" cy="37.5" r="1.5" fill="#D2D6DB"/>
<circle cx="82.5" cy="37.5" r="1.5" fill="#D2D6DB"/>
<circle cx="91.5" cy="37.5" r="1.5" fill="#D2D6DB"/>
<circle cx="100.5" cy="37.5" r="1.5" fill="#D2D6DB"/>
<circle cx="109.5" cy="37.5" r="1.5" fill="#D2D6DB"/>
<circle cx="118.5" cy="37.5" r="1.5" fill="#D2D6DB"/>
<circle cx="127.5" cy="37.5" r="1.5" fill="#D2D6DB"/>
<circle cx="136.5" cy="37.5" r="1.5" fill="#D2D6DB"/>
<circle cx="145.5" cy="37.5" r="1.5" fill="#D2D6DB"/>
<circle cx="154.5" cy="37.5" r="1.5" fill="#D2D6DB"/>
<circle cx="163.5" cy="37.5" r="1.5" fill="#D2D6DB"/>
<circle cx="1.5" cy="46.5" r="1.5" fill="#D2D6DB"/>
<circle cx="10.5" cy="46.5" r="1.5" fill="#D2D6DB"/>
<circle cx="19.5" cy="46.5" r="1.5" fill="#D2D6DB"/>
<circle cx="28.5" cy="46.5" r="1.5" fill="#D2D6DB"/>
<circle cx="37.5" cy="46.5" r="1.5" fill="#D2D6DB"/>
<circle cx="46.5" cy="46.5" r="1.5" fill="#D2D6DB"/>
<circle cx="55.5" cy="46.5" r="1.5" fill="#D2D6DB"/>
<circle cx="64.5" cy="46.5" r="1.5" fill="#D2D6DB"/>
<circle cx="73.5" cy="46.5" r="1.5" fill="#D2D6DB"/>
<circle cx="82.5" cy="46.5" r="1.5" fill="#D2D6DB"/>
<circle cx="91.5" cy="46.5" r="1.5" fill="#D2D6DB"/>
<circle cx="100.5" cy="46.5" r="1.5" fill="#D2D6DB"/>
<circle cx="109.5" cy="46.5" r="1.5" fill="#D2D6DB"/>
<circle cx="118.5" cy="46.5" r="1.5" fill="#D2D6DB"/>
<circle cx="127.5" cy="46.5" r="1.5" fill="#D2D6DB"/>
<circle cx="136.5" cy="46.5" r="1.5" fill="#D2D6DB"/>
<circle cx="145.5" cy="46.5" r="1.5" fill="#D2D6DB"/>
<circle cx="154.5" cy="46.5" r="1.5" fill="#D2D6DB"/>
<circle cx="163.5" cy="46.5" r="1.5" fill="#D2D6DB"/>
<circle cx="1.5" cy="55.5" r="1.5" fill="#D2D6DB"/>
<circle cx="10.5" cy="55.5" r="1.5" fill="#D2D6DB"/>
<circle cx="19.5" cy="55.5" r="1.5" fill="#D2D6DB"/>
<circle cx="28.5" cy="55.5" r="1.5" fill="#D2D6DB"/>
<circle cx="37.5" cy="55.5" r="1.5" fill="#D2D6DB"/>
<circle cx="46.5" cy="55.5" r="1.5" fill="#D2D6DB"/>
<circle cx="55.5" cy="55.5" r="1.5" fill="#D2D6DB"/>
<circle cx="64.5" cy="55.5" r="1.5" fill="#D2D6DB"/>
<circle cx="73.5" cy="55.5" r="1.5" fill="#D2D6DB"/>
<circle cx="82.5" cy="55.5" r="1.5" fill="#D2D6DB"/>
<circle cx="91.5" cy="55.5" r="1.5" fill="#D2D6DB"/>
<circle cx="100.5" cy="55.5" r="1.5" fill="#D2D6DB"/>
<circle cx="109.5" cy="55.5" r="1.5" fill="#D2D6DB"/>
<circle cx="118.5" cy="55.5" r="1.5" fill="#D2D6DB"/>
<circle cx="127.5" cy="55.5" r="1.5" fill="#D2D6DB"/>
<circle cx="136.5" cy="55.5" r="1.5" fill="#D2D6DB"/>
<circle cx="145.5" cy="55.5" r="1.5" fill="#D2D6DB"/>
<circle cx="154.5" cy="55.5" r="1.5" fill="#D2D6DB"/>
<circle cx="163.5" cy="55.5" r="1.5" fill="#D2D6DB"/>
<circle cx="1.5" cy="64.5" r="1.5" fill="#D2D6DB"/>
<circle cx="10.5" cy="64.5" r="1.5" fill="#D2D6DB"/>
<circle cx="19.5" cy="64.5" r="1.5" fill="#D2D6DB"/>
<circle cx="28.5" cy="64.5" r="1.5" fill="#D2D6DB"/>
<circle cx="37.5" cy="64.5" r="1.5" fill="#D2D6DB"/>
<circle cx="46.5" cy="64.5" r="1.5" fill="#D2D6DB"/>
<circle cx="55.5" cy="64.5" r="1.5" fill="#D2D6DB"/>
<circle cx="64.5" cy="64.5" r="1.5" fill="#D2D6DB"/>
<circle cx="73.5" cy="64.5" r="1.5" fill="#D2D6DB"/>
<circle cx="82.5" cy="64.5" r="1.5" fill="#D2D6DB"/>
<circle cx="91.5" cy="64.5" r="1.5" fill="#D2D6DB"/>
<circle cx="100.5" cy="64.5" r="1.5" fill="#D2D6DB"/>
<circle cx="109.5" cy="64.5" r="1.5" fill="#D2D6DB"/>
<circle cx="118.5" cy="64.5" r="1.5" fill="#D2D6DB"/>
<circle cx="127.5" cy="64.5" r="1.5" fill="#D2D6DB"/>
<circle cx="136.5" cy="64.5" r="1.5" fill="#D2D6DB"/>
<circle cx="145.5" cy="64.5" r="1.5" fill="#D2D6DB"/>
<circle cx="154.5" cy="64.5" r="1.5" fill="#D2D6DB"/>
<circle cx="163.5" cy="64.5" r="1.5" fill="#D2D6DB"/>
<circle cx="1.5" cy="73.5" r="1.5" fill="#D2D6DB"/>
<circle cx="10.5" cy="73.5" r="1.5" fill="#D2D6DB"/>
<circle cx="19.5" cy="73.5" r="1.5" fill="#D2D6DB"/>
<circle cx="28.5" cy="73.5" r="1.5" fill="#D2D6DB"/>
<circle cx="37.5" cy="73.5" r="1.5" fill="#D2D6DB"/>
<circle cx="46.5" cy="73.5" r="1.5" fill="#D2D6DB"/>
<circle cx="55.5" cy="73.5" r="1.5" fill="#D2D6DB"/>
<circle cx="64.5" cy="73.5" r="1.5" fill="#D2D6DB"/>
<circle cx="73.5" cy="73.5" r="1.5" fill="#D2D6DB"/>
<circle cx="82.5" cy="73.5" r="1.5" fill="#D2D6DB"/>
<circle cx="91.5" cy="73.5" r="1.5" fill="#D2D6DB"/>
<circle cx="100.5" cy="73.5" r="1.5" fill="#D2D6DB"/>
<circle cx="109.5" cy="73.5" r="1.5" fill="#D2D6DB"/>
<circle cx="118.5" cy="73.5" r="1.5" fill="#D2D6DB"/>
<circle cx="127.5" cy="73.5" r="1.5" fill="#D2D6DB"/>
<circle cx="136.5" cy="73.5" r="1.5" fill="#D2D6DB"/>
<circle cx="145.5" cy="73.5" r="1.5" fill="#D2D6DB"/>
<circle cx="154.5" cy="73.5" r="1.5" fill="#D2D6DB"/>
<circle cx="163.5" cy="73.5" r="1.5" fill="#D2D6DB"/>
<circle cx="1.5" cy="82.5" r="1.5" fill="#D2D6DB"/>
<circle cx="10.5" cy="82.5" r="1.5" fill="#D2D6DB"/>
<circle cx="19.5" cy="82.5" r="1.5" fill="#D2D6DB"/>
<circle cx="28.5" cy="82.5" r="1.5" fill="#D2D6DB"/>
<circle cx="37.5" cy="82.5" r="1.5" fill="#D2D6DB"/>
<circle cx="46.5" cy="82.5" r="1.5" fill="#D2D6DB"/>
<circle cx="55.5" cy="82.5" r="1.5" fill="#D2D6DB"/>
<circle cx="64.5" cy="82.5" r="1.5" fill="#D2D6DB"/>
<circle cx="73.5" cy="82.5" r="1.5" fill="#D2D6DB"/>
<circle cx="82.5" cy="82.5" r="1.5" fill="#D2D6DB"/>
<circle cx="91.5" cy="82.5" r="1.5" fill="#D2D6DB"/>
<circle cx="100.5" cy="82.5" r="1.5" fill="#D2D6DB"/>
<circle cx="109.5" cy="82.5" r="1.5" fill="#D2D6DB"/>
<circle cx="118.5" cy="82.5" r="1.5" fill="#D2D6DB"/>
<circle cx="127.5" cy="82.5" r="1.5" fill="#D2D6DB"/>
<circle cx="136.5" cy="82.5" r="1.5" fill="#D2D6DB"/>
<circle cx="145.5" cy="82.5" r="1.5" fill="#D2D6DB"/>
<circle cx="154.5" cy="82.5" r="1.5" fill="#D2D6DB"/>
<circle cx="163.5" cy="82.5" r="1.5" fill="#D2D6DB"/>
<circle cx="1.5" cy="91.5" r="1.5" fill="#D2D6DB"/>
<circle cx="10.5" cy="91.5" r="1.5" fill="#D2D6DB"/>
<circle cx="19.5" cy="91.5" r="1.5" fill="#D2D6DB"/>
<circle cx="28.5" cy="91.5" r="1.5" fill="#D2D6DB"/>
<circle cx="37.5" cy="91.5" r="1.5" fill="#D2D6DB"/>
<circle cx="46.5" cy="91.5" r="1.5" fill="#D2D6DB"/>
<circle cx="55.5" cy="91.5" r="1.5" fill="#D2D6DB"/>
<circle cx="64.5" cy="91.5" r="1.5" fill="#D2D6DB"/>
<circle cx="73.5" cy="91.5" r="1.5" fill="#D2D6DB"/>
<circle cx="82.5" cy="91.5" r="1.5" fill="#D2D6DB"/>
<circle cx="91.5" cy="91.5" r="1.5" fill="#D2D6DB"/>
<circle cx="100.5" cy="91.5" r="1.5" fill="#D2D6DB"/>
<circle cx="109.5" cy="91.5" r="1.5" fill="#D2D6DB"/>
<circle cx="118.5" cy="91.5" r="1.5" fill="#D2D6DB"/>
<circle cx="127.5" cy="91.5" r="1.5" fill="#D2D6DB"/>
<circle cx="136.5" cy="91.5" r="1.5" fill="#D2D6DB"/>
<circle cx="145.5" cy="91.5" r="1.5" fill="#D2D6DB"/>
<circle cx="154.5" cy="91.5" r="1.5" fill="#D2D6DB"/>
<circle cx="163.5" cy="91.5" r="1.5" fill="#D2D6DB"/>
<circle cx="1.5" cy="100.5" r="1.5" fill="#D2D6DB"/>
<circle cx="10.5" cy="100.5" r="1.5" fill="#D2D6DB"/>
<circle cx="19.5" cy="100.5" r="1.5" fill="#D2D6DB"/>
<circle cx="28.5" cy="100.5" r="1.5" fill="#D2D6DB"/>
<circle cx="37.5" cy="100.5" r="1.5" fill="#D2D6DB"/>
<circle cx="46.5" cy="100.5" r="1.5" fill="#D2D6DB"/>
<circle cx="55.5" cy="100.5" r="1.5" fill="#D2D6DB"/>
<circle cx="64.5" cy="100.5" r="1.5" fill="#D2D6DB"/>
<circle cx="73.5" cy="100.5" r="1.5" fill="#D2D6DB"/>
<circle cx="82.5" cy="100.5" r="1.5" fill="#D2D6DB"/>
<circle cx="91.5" cy="100.5" r="1.5" fill="#D2D6DB"/>
<circle cx="100.5" cy="100.5" r="1.5" fill="#D2D6DB"/>
<circle cx="109.5" cy="100.5" r="1.5" fill="#D2D6DB"/>
<circle cx="118.5" cy="100.5" r="1.5" fill="#D2D6DB"/>
<circle cx="127.5" cy="100.5" r="1.5" fill="#D2D6DB"/>
<circle cx="136.5" cy="100.5" r="1.5" fill="#D2D6DB"/>
<circle cx="145.5" cy="100.5" r="1.5" fill="#D2D6DB"/>
<circle cx="154.5" cy="100.5" r="1.5" fill="#D2D6DB"/>
<circle cx="163.5" cy="100.5" r="1.5" fill="#D2D6DB"/>
<circle cx="1.5" cy="109.5" r="1.5" fill="#D2D6DB"/>
<circle cx="10.5" cy="109.5" r="1.5" fill="#D2D6DB"/>
<circle cx="19.5" cy="109.5" r="1.5" fill="#D2D6DB"/>
<circle cx="28.5" cy="109.5" r="1.5" fill="#D2D6DB"/>
<circle cx="37.5" cy="109.5" r="1.5" fill="#D2D6DB"/>
<circle cx="46.5" cy="109.5" r="1.5" fill="#D2D6DB"/>
<circle cx="55.5" cy="109.5" r="1.5" fill="#D2D6DB"/>
<circle cx="64.5" cy="109.5" r="1.5" fill="#D2D6DB"/>
<circle cx="73.5" cy="109.5" r="1.5" fill="#D2D6DB"/>
<circle cx="82.5" cy="109.5" r="1.5" fill="#D2D6DB"/>
<circle cx="91.5" cy="109.5" r="1.5" fill="#D2D6DB"/>
<circle cx="100.5" cy="109.5" r="1.5" fill="#D2D6DB"/>
<circle cx="109.5" cy="109.5" r="1.5" fill="#D2D6DB"/>
<circle cx="118.5" cy="109.5" r="1.5" fill="#D2D6DB"/>
<circle cx="127.5" cy="109.5" r="1.5" fill="#D2D6DB"/>
<circle cx="136.5" cy="109.5" r="1.5" fill="#D2D6DB"/>
<circle cx="145.5" cy="109.5" r="1.5" fill="#D2D6DB"/>
<circle cx="154.5" cy="109.5" r="1.5" fill="#D2D6DB"/>
<circle cx="163.5" cy="109.5" r="1.5" fill="#D2D6DB"/>
<circle cx="1.5" cy="118.5" r="1.5" fill="#D2D6DB"/>
<circle cx="10.5" cy="118.5" r="1.5" fill="#D2D6DB"/>
<circle cx="19.5" cy="118.5" r="1.5" fill="#D2D6DB"/>
<circle cx="28.5" cy="118.5" r="1.5" fill="#D2D6DB"/>
<circle cx="37.5" cy="118.5" r="1.5" fill="#D2D6DB"/>
<circle cx="46.5" cy="118.5" r="1.5" fill="#D2D6DB"/>
<circle cx="55.5" cy="118.5" r="1.5" fill="#D2D6DB"/>
<circle cx="64.5" cy="118.5" r="1.5" fill="#D2D6DB"/>
<circle cx="73.5" cy="118.5" r="1.5" fill="#D2D6DB"/>
<circle cx="82.5" cy="118.5" r="1.5" fill="#D2D6DB"/>
<circle cx="91.5" cy="118.5" r="1.5" fill="#D2D6DB"/>
<circle cx="100.5" cy="118.5" r="1.5" fill="#D2D6DB"/>
<circle cx="109.5" cy="118.5" r="1.5" fill="#D2D6DB"/>
<circle cx="118.5" cy="118.5" r="1.5" fill="#D2D6DB"/>
<circle cx="127.5" cy="118.5" r="1.5" fill="#D2D6DB"/>
<circle cx="136.5" cy="118.5" r="1.5" fill="#D2D6DB"/>
<circle cx="145.5" cy="118.5" r="1.5" fill="#D2D6DB"/>
<circle cx="154.5" cy="118.5" r="1.5" fill="#D2D6DB"/>
<circle cx="163.5" cy="118.5" r="1.5" fill="#D2D6DB"/>
<circle cx="1.5" cy="127.5" r="1.5" fill="#D2D6DB"/>
<circle cx="10.5" cy="127.5" r="1.5" fill="#D2D6DB"/>
<circle cx="19.5" cy="127.5" r="1.5" fill="#D2D6DB"/>
<circle cx="28.5" cy="127.5" r="1.5" fill="#D2D6DB"/>
<circle cx="37.5" cy="127.5" r="1.5" fill="#D2D6DB"/>
<circle cx="46.5" cy="127.5" r="1.5" fill="#D2D6DB"/>
<circle cx="55.5" cy="127.5" r="1.5" fill="#D2D6DB"/>
<circle cx="64.5" cy="127.5" r="1.5" fill="#D2D6DB"/>
<circle cx="73.5" cy="127.5" r="1.5" fill="#D2D6DB"/>
<circle cx="82.5" cy="127.5" r="1.5" fill="#D2D6DB"/>
<circle cx="91.5" cy="127.5" r="1.5" fill="#D2D6DB"/>
<circle cx="100.5" cy="127.5" r="1.5" fill="#D2D6DB"/>
<circle cx="109.5" cy="127.5" r="1.5" fill="#D2D6DB"/>
<circle cx="118.5" cy="127.5" r="1.5" fill="#D2D6DB"/>
<circle cx="127.5" cy="127.5" r="1.5" fill="#D2D6DB"/>
<circle cx="136.5" cy="127.5" r="1.5" fill="#D2D6DB"/>
<circle cx="145.5" cy="127.5" r="1.5" fill="#D2D6DB"/>
<circle cx="154.5" cy="127.5" r="1.5" fill="#D2D6DB"/>
<circle cx="163.5" cy="127.5" r="1.5" fill="#D2D6DB"/>
<circle cx="1.5" cy="136.5" r="1.5" fill="#D2D6DB"/>
<circle cx="10.5" cy="136.5" r="1.5" fill="#D2D6DB"/>
<circle cx="19.5" cy="136.5" r="1.5" fill="#D2D6DB"/>
<circle cx="28.5" cy="136.5" r="1.5" fill="#D2D6DB"/>
<circle cx="37.5" cy="136.5" r="1.5" fill="#D2D6DB"/>
<circle cx="46.5" cy="136.5" r="1.5" fill="#D2D6DB"/>
<circle cx="55.5" cy="136.5" r="1.5" fill="#D2D6DB"/>
<circle cx="64.5" cy="136.5" r="1.5" fill="#D2D6DB"/>
<circle cx="73.5" cy="136.5" r="1.5" fill="#D2D6DB"/>
<circle cx="82.5" cy="136.5" r="1.5" fill="#D2D6DB"/>
<circle cx="91.5" cy="136.5" r="1.5" fill="#D2D6DB"/>
<circle cx="100.5" cy="136.5" r="1.5" fill="#D2D6DB"/>
<circle cx="109.5" cy="136.5" r="1.5" fill="#D2D6DB"/>
<circle cx="118.5" cy="136.5" r="1.5" fill="#D2D6DB"/>
<circle cx="127.5" cy="136.5" r="1.5" fill="#D2D6DB"/>
<circle cx="136.5" cy="136.5" r="1.5" fill="#D2D6DB"/>
<circle cx="145.5" cy="136.5" r="1.5" fill="#D2D6DB"/>
<circle cx="154.5" cy="136.5" r="1.5" fill="#D2D6DB"/>
<circle cx="163.5" cy="136.5" r="1.5" fill="#D2D6DB"/>
<circle cx="1.5" cy="145.5" r="1.5" fill="#D2D6DB"/>
<circle cx="10.5" cy="145.5" r="1.5" fill="#D2D6DB"/>
<circle cx="19.5" cy="145.5" r="1.5" fill="#D2D6DB"/>
<circle cx="28.5" cy="145.5" r="1.5" fill="#D2D6DB"/>
<circle cx="37.5" cy="145.5" r="1.5" fill="#D2D6DB"/>
<circle cx="46.5" cy="145.5" r="1.5" fill="#D2D6DB"/>
<circle cx="55.5" cy="145.5" r="1.5" fill="#D2D6DB"/>
<circle cx="64.5" cy="145.5" r="1.5" fill="#D2D6DB"/>
<circle cx="73.5" cy="145.5" r="1.5" fill="#D2D6DB"/>
<circle cx="82.5" cy="145.5" r="1.5" fill="#D2D6DB"/>
<circle cx="91.5" cy="145.5" r="1.5" fill="#D2D6DB"/>
<circle cx="100.5" cy="145.5" r="1.5" fill="#D2D6DB"/>
<circle cx="109.5" cy="145.5" r="1.5" fill="#D2D6DB"/>
<circle cx="118.5" cy="145.5" r="1.5" fill="#D2D6DB"/>
<circle cx="127.5" cy="145.5" r="1.5" fill="#D2D6DB"/>
<circle cx="136.5" cy="145.5" r="1.5" fill="#D2D6DB"/>
<circle cx="145.5" cy="145.5" r="1.5" fill="#D2D6DB"/>
<circle cx="154.5" cy="145.5" r="1.5" fill="#D2D6DB"/>
<circle cx="163.5" cy="145.5" r="1.5" fill="#D2D6DB"/>
<circle cx="1.5" cy="154.5" r="1.5" fill="#D2D6DB"/>
<circle cx="10.5" cy="154.5" r="1.5" fill="#D2D6DB"/>
<circle cx="19.5" cy="154.5" r="1.5" fill="#D2D6DB"/>
<circle cx="28.5" cy="154.5" r="1.5" fill="#D2D6DB"/>
<circle cx="37.5" cy="154.5" r="1.5" fill="#D2D6DB"/>
<circle cx="46.5" cy="154.5" r="1.5" fill="#D2D6DB"/>
<circle cx="55.5" cy="154.5" r="1.5" fill="#D2D6DB"/>
<circle cx="64.5" cy="154.5" r="1.5" fill="#D2D6DB"/>
<circle cx="73.5" cy="154.5" r="1.5" fill="#D2D6DB"/>
<circle cx="82.5" cy="154.5" r="1.5" fill="#D2D6DB"/>
<circle cx="91.5" cy="154.5" r="1.5" fill="#D2D6DB"/>
<circle cx="100.5" cy="154.5" r="1.5" fill="#D2D6DB"/>
<circle cx="109.5" cy="154.5" r="1.5" fill="#D2D6DB"/>
<circle cx="118.5" cy="154.5" r="1.5" fill="#D2D6DB"/>
<circle cx="127.5" cy="154.5" r="1.5" fill="#D2D6DB"/>
<circle cx="136.5" cy="154.5" r="1.5" fill="#D2D6DB"/>
<circle cx="145.5" cy="154.5" r="1.5" fill="#D2D6DB"/>
<circle cx="154.5" cy="154.5" r="1.5" fill="#D2D6DB"/>
<circle cx="163.5" cy="154.5" r="1.5" fill="#D2D6DB"/>
<circle cx="1.5" cy="163.5" r="1.5" fill="#D2D6DB"/>
<circle cx="10.5" cy="163.5" r="1.5" fill="#D2D6DB"/>
<circle cx="19.5" cy="163.5" r="1.5" fill="#D2D6DB"/>
<circle cx="28.5" cy="163.5" r="1.5" fill="#D2D6DB"/>
<circle cx="37.5" cy="163.5" r="1.5" fill="#D2D6DB"/>
<circle cx="46.5" cy="163.5" r="1.5" fill="#D2D6DB"/>
<circle cx="55.5" cy="163.5" r="1.5" fill="#D2D6DB"/>
<circle cx="64.5" cy="163.5" r="1.5" fill="#D2D6DB"/>
<circle cx="73.5" cy="163.5" r="1.5" fill="#D2D6DB"/>
<circle cx="82.5" cy="163.5" r="1.5" fill="#D2D6DB"/>
<circle cx="91.5" cy="163.5" r="1.5" fill="#D2D6DB"/>
<circle cx="100.5" cy="163.5" r="1.5" fill="#D2D6DB"/>
<circle cx="109.5" cy="163.5" r="1.5" fill="#D2D6DB"/>
<circle cx="118.5" cy="163.5" r="1.5" fill="#D2D6DB"/>
<circle cx="127.5" cy="163.5" r="1.5" fill="#D2D6DB"/>
<circle cx="136.5" cy="163.5" r="1.5" fill="#D2D6DB"/>
<circle cx="145.5" cy="163.5" r="1.5" fill="#D2D6DB"/>
<circle cx="154.5" cy="163.5" r="1.5" fill="#D2D6DB"/>
<circle cx="163.5" cy="163.5" r="1.5" fill="#D2D6DB"/>
</g>
<defs>
<clipPath id="clip0_468_7733">
<rect width="165" height="166" fill="white"/>
</clipPath>
</defs>
</svg>
