<svg width="325" height="394" viewBox="0 0 325 394" fill="none" xmlns="http://www.w3.org/2000/svg">
<g clip-path="url(#clip0_468_7694)">
<path d="M301.651 33.3534H45.2903C35.8861 33.3534 28.239 41.0231 28.239 50.4553V226.654C28.239 236.086 35.8861 243.756 45.2903 243.756H301.651C311.056 243.756 318.703 236.086 318.703 226.654V50.4553C318.703 41.0231 311.056 33.3533 301.651 33.3533V33.3534Z" fill="#3F3D56" fill-opacity="0.67"/>
<path d="M37.0445 219.143L35.5273 218.185C36.5136 216.613 37.5313 215.089 38.5513 213.656L40.0107 214.701C39.0105 216.106 38.0128 217.6 37.0446 219.143H37.0445Z" fill="#CCCCCC"/>
<path d="M46.9309 206.328L45.6475 205.072C48.3833 202.26 51.2628 199.846 54.2053 197.897L55.1937 199.397C52.3576 201.276 49.5775 203.607 46.9309 206.328V206.328ZM91.6619 194.977C89.5209 194.977 87.5703 194.702 86.11 194.462L86.3998 192.688C87.8794 192.93 89.6614 193.178 91.6619 193.178C93.4286 193.178 95.1651 192.984 96.9704 192.583L97.3573 194.339C95.4234 194.768 93.5604 194.977 91.6619 194.977V194.977ZM64.8332 194.739L64.2939 193.024C66.22 192.414 68.2152 191.958 70.224 191.666C71.9491 191.416 73.5985 191.294 75.2659 191.294H75.3762V193.092H75.2659C73.6852 193.092 72.1203 193.208 70.4809 193.446C68.5676 193.724 66.6669 194.159 64.8332 194.739H64.8332ZM107.57 189.542L106.424 188.159C108.898 186.097 110.672 183.605 112.55 180.966L113.299 179.916L114.754 180.967L114.009 182.01C112.062 184.747 110.223 187.332 107.57 189.542V189.542ZM121.949 173.053L120.846 171.635C123.263 169.744 125.993 168.211 129.193 166.95C129.738 166.734 130.259 166.543 130.759 166.372L131.338 168.074C130.862 168.236 130.368 168.419 129.85 168.623C126.812 169.82 124.228 171.269 121.949 173.053V173.053ZM143.595 166.807C142.992 166.807 142.42 166.801 141.87 166.795L141.891 164.997C142.453 165.003 143.04 165.005 143.66 165.009C145.77 165.009 148.709 164.948 152.739 164.48L152.946 166.266C148.782 166.75 145.797 166.801 143.595 166.807V166.807ZM163.853 164.452L163.497 162.69C166.718 162.036 170.464 161.259 174.173 160.299L174.621 162.04C170.87 163.011 167.096 163.794 163.853 164.452ZM185.183 158.631L184.512 156.963C188.108 155.509 191.229 153.87 194.056 151.951L195.061 153.44C192.128 155.431 188.897 157.13 185.183 158.631V158.631ZM203.299 145.781L201.844 144.73C202.344 144.034 202.777 143.355 203.195 142.698C204.429 140.759 205.706 138.754 208.746 136.293L208.959 136.122L210.07 137.533L209.872 137.691C207.06 139.969 205.917 141.765 204.706 143.666C204.275 144.343 203.828 145.044 203.299 145.781V145.781ZM219.384 132.294L218.73 130.619C221.925 129.363 225.534 128.352 229.457 127.614L229.788 129.381C225.976 130.099 222.475 131.079 219.384 132.294V132.294Z" fill="#CCCCCC"/>
<path d="M240.747 128.061L240.635 126.266C242.377 126.156 244.199 126.084 246.049 126.051L246.081 127.849C244.257 127.882 242.463 127.953 240.747 128.061V128.061Z" fill="#CCCCCC"/>
<path d="M57.0381 66.4111H31.8824C30.6184 66.4111 29.5874 67.4451 29.5874 68.7129C29.5874 69.9897 30.6184 71.0237 31.8824 71.0237H57.0381C58.3021 71.0237 59.3331 69.9897 59.3331 68.7129C59.3331 67.4451 58.3021 66.4111 57.0381 66.4111V66.4111Z" fill="#E6E6E6"/>
<path d="M99.1733 66.4111H74.0177C72.7536 66.4111 71.7227 67.4451 71.7227 68.7129C71.7227 69.9897 72.7536 71.0237 74.0177 71.0237H99.1733C100.437 71.0237 101.468 69.9897 101.468 68.7129C101.468 67.4451 100.437 66.4111 99.1733 66.4111Z" fill="#E6E6E6"/>
<path d="M141.308 66.4111H116.153C114.889 66.4111 113.858 67.4451 113.858 68.7129C113.858 69.9897 114.889 71.0237 116.153 71.0237H141.308C142.572 71.0237 143.603 69.9897 143.603 68.7129C143.603 67.4451 142.572 66.4111 141.308 66.4111Z" fill="#E6E6E6"/>
<path d="M258.168 217.765H29.5623V219.563H258.168V217.765Z" fill="#E6E6E6"/>
<path d="M246.092 86.4882C229.821 86.9107 217.682 91.7123 209.99 100.74C207.148 104.085 205.992 106.719 204.773 109.507C203.562 112.258 202.325 115.09 199.448 118.786V115.729C201.232 113.103 202.191 110.909 203.132 108.778C204.405 105.865 205.615 103.114 208.628 99.5799C216.66 90.1387 229.247 85.1304 246.038 84.6898L246.092 86.4882V86.4882Z" fill="#CCCCCC"/>
<path d="M204.773 109.507C203.563 112.258 202.325 115.09 199.448 118.786C199.107 119.226 198.739 119.685 198.345 120.162C187.964 132.543 174.095 136.607 162.943 139.88C162.243 140.087 161.562 140.276 160.898 140.456C150.983 143.153 145.551 143.054 141.507 142.991C137.446 142.919 134.766 142.874 129.969 145.626C121.175 150.652 117.571 158.007 114.084 165.119C110.489 172.439 107.1 179.353 98.4577 182.599C92.4602 184.847 88.2467 183.732 83.7911 182.563C79.9631 181.547 73.0639 156.538 66.955 152.891C54.3413 155.543 46.6763 196.887 37.1107 219.024L35.4612 218.305C45.2778 195.61 53.3641 153.916 66.5784 151.129C72.4684 149.888 80.2231 179.758 84.2483 180.819C88.4259 181.925 92.3616 182.959 97.8302 180.909C105.809 177.923 108.893 171.62 112.47 164.328C115.912 157.315 119.812 149.366 129.073 144.061C134.3 141.067 137.339 141.121 141.534 141.193C145.533 141.265 150.929 141.355 160.898 138.594C161.4 138.45 161.911 138.307 162.44 138.154C173.36 134.953 186.942 130.969 196.964 119.011C197.951 117.833 198.766 116.745 199.448 115.729C201.232 113.103 202.191 110.909 203.132 108.778C204.405 105.865 205.992 106.719 204.773 109.507V109.507Z" fill="#01FB58"/>
<path d="M109.171 315.216C108.462 312.738 107.246 310.623 105.799 309.115L100.543 285.081L89.0845 287.896L95.6506 311.974C95.2188 314.011 95.3052 316.443 96.0148 318.921C97.6361 324.583 101.895 328.344 105.529 327.321C109.162 326.298 110.792 320.878 109.171 315.216L109.171 315.216Z" fill="#FFB6B6"/>
<path d="M107.586 157.557C107.586 157.557 89.4909 157.185 84.8898 170.402C80.7018 182.431 75.7371 215.481 78.421 217.391L89.8447 298.752L106.135 296.507L101.954 198.886L107.586 157.557V157.557Z" fill="#6C63FF"/>
<path d="M191.379 308.58L188.17 394H145.586L143.865 355.723L136.299 394H90.6582L96.3509 328.2L102.232 314.362L106.212 304.983L191.379 308.58Z" fill="#2F2E41"/>
<path d="M157.312 141.337L127.728 139.538L117.867 152.127L96.3508 160.219L106.212 256.429L101.73 313.975C101.73 313.975 164.484 364.328 191.379 308.58L184.207 241.143L186 162.917L165.381 153.925L157.312 141.337Z" fill="#6C63FF"/>
<path d="M214.267 119.452C214.588 122.57 214.18 125.501 213.241 127.852L218.17 157.355L204.104 159.296L200.619 129.159C199.221 127.051 198.225 124.265 197.904 121.147C197.171 114.026 200.239 107.873 204.758 107.405C209.276 106.937 213.533 112.331 214.267 119.452V119.452H214.267Z" fill="#FFB6B6"/>
<path d="M189.767 166.294C184.918 157.982 172.89 157.198 167.503 165.171C166.03 167.35 166.441 169.8 166.089 172.743C164.596 185.238 188.469 222.161 204.988 226.412C207.156 226.97 208.391 229.315 210.578 229.786H210.578C217.06 231.184 223.094 226.024 222.744 219.384L218.257 134.227L199.406 140.676L200.613 184.888L189.767 166.295L189.767 166.294Z" fill="#6C63FF"/>
<path d="M145.59 137.212C159.982 137.212 171.649 125.51 171.649 111.075C171.649 96.6403 159.982 84.9386 145.59 84.9386C131.198 84.9386 119.531 96.6403 119.531 111.075C119.531 125.51 131.198 137.212 145.59 137.212Z" fill="#FFB6B6"/>
<path d="M169.863 91.8831C169.639 91.9371 173.294 88.3645 173.449 88.2865C177.035 86.4881 173.351 104.067 170.76 103.572C164.386 102.358 161.633 99.9485 159.159 105.964C158.469 107.636 158.039 109.525 156.694 110.72C154.847 112.348 151.781 112.213 150.275 114.155C149.065 115.72 149.414 118.022 150.311 119.784C151.207 121.555 152.57 123.057 153.386 124.864C154.3 126.896 150.4 133.361 148.912 136.994V137.003L148.903 137.024C148.508 137.977 147.568 135.232 146.576 134.958C145.389 134.63 143.64 137.442 141.749 136.931C141.74 136.931 141.731 136.922 141.722 136.922C139.92 136.418 137.912 135.879 135.922 135.339H135.913C130.31 133.811 128.894 136.005 128.625 135.942L125.146 132.291C123.953 131.419 124.087 128.605 123.246 127.849C122.557 127.231 120.841 128.66 120.335 128.065C117.855 125.152 117.285 122.238 115.823 116.484C114.487 111.224 111.717 95.4797 117.409 94.7693C122.779 94.095 118.853 86.596 124.259 86.8748C123.936 85.508 124.537 84.0424 125.514 83.0354C126.482 82.0193 127.773 81.3899 129.073 80.8504C135.483 78.2249 134.416 75.968 141.176 77.4966C141.848 76.5525 151.611 77.1818 152.83 77.4966C152.92 77.5145 149.809 78.2609 154.623 77.4966C154.444 78.6026 157.492 79.0881 157.312 80.194C157.985 79.2859 165.21 84.501 165.381 85.589C165.605 86.9467 163.561 86.2544 164.924 86.4611C165.73 86.587 167.111 88.2325 166.977 89.0507C167.559 88.2595 168.142 87.4772 168.734 86.6859C168.841 86.6949 168.94 86.7129 169.048 86.7309C171.773 87.2524 168.648 96.1882 168.761 93.4027C168.967 88.2865 172.58 91.2807 169.863 91.8831V91.8831Z" fill="#2F2E41"/>
<path d="M269.697 230.993C269.897 231.489 270.59 231.489 270.791 230.993C272.191 227.532 274.184 223.656 276.351 220.693C276.699 220.219 276.22 219.585 275.668 219.786L271.022 221.472V192.621H269.466V221.472L264.818 219.785C264.266 219.585 263.788 220.219 264.135 220.693C266.303 223.655 268.296 227.532 269.697 230.993V230.993Z" fill="#3F3D56"/>
<path d="M300.169 260.699C300.019 261.213 300.561 261.645 301.026 261.381C304.269 259.544 308.233 257.752 311.767 256.784C312.333 256.629 312.351 255.835 311.795 255.647L307.111 254.069L325 231.477L323.782 230.506L305.893 253.099L303.298 248.879C302.99 248.378 302.223 248.576 302.2 249.164C302.061 252.836 301.218 257.115 300.169 260.699V260.699Z" fill="#3F3D56"/>
<path d="M285.616 279.952H255.385C253.508 279.952 251.981 278.42 251.981 276.538C247.984 264.82 248.063 253.339 251.981 242.079C251.981 240.197 253.508 238.665 255.385 238.665H285.616C287.493 238.665 289.02 240.197 289.02 242.079V276.538C289.02 278.42 287.493 279.952 285.616 279.952Z" fill="#E6E6E6"/>
<path d="M261.862 239.682C256.965 239.682 252.995 243.664 252.995 248.576V275.807C252.995 277.534 254.392 278.935 256.114 278.935H272.832C281.212 278.935 288.006 272.121 288.006 263.716V242.81C288.006 241.083 286.61 239.682 284.887 239.682H261.862V239.682Z" fill="white"/>
<path d="M277.541 249.696H263.387C263.03 249.696 262.74 249.405 262.74 249.047C262.74 248.689 263.03 248.398 263.387 248.398H277.541C277.898 248.398 278.188 248.689 278.188 249.047C278.188 249.405 277.898 249.696 277.541 249.696Z" fill="#E6E6E6"/>
<path d="M277.541 263.537H263.387C263.03 263.537 262.74 263.245 262.74 262.888C262.74 262.53 263.03 262.239 263.387 262.239H277.541C277.898 262.239 278.188 262.53 278.188 262.888C278.188 263.245 277.898 263.537 277.541 263.537Z" fill="#E6E6E6"/>
<path d="M285.136 256.621H255.792C255.435 256.621 255.145 256.33 255.145 255.972C255.145 255.614 255.435 255.323 255.792 255.323H285.136C285.493 255.323 285.783 255.614 285.783 255.972C285.783 256.33 285.493 256.621 285.136 256.621Z" fill="#E6E6E6"/>
<path d="M285.482 269.164H273.238C272.881 269.164 272.591 268.873 272.591 268.515C272.591 268.157 272.881 267.866 273.238 267.866H285.482C285.839 267.866 286.129 268.157 286.129 268.515C286.129 268.873 285.839 269.164 285.482 269.164Z" fill="#E6E6E6"/>
<path d="M11.1732 22.2294C17.3441 22.2294 22.3465 17.3178 22.3465 11.259C22.3465 5.20029 17.3441 0.288696 11.1732 0.288696C5.00243 0.288696 0 5.20029 0 11.259C0 17.3178 5.00243 22.2294 11.1732 22.2294Z" fill="#6C63FF"/>
<path d="M100.744 7.50602H40.6032C38.54 7.50602 36.8613 5.82236 36.8613 3.75301C36.8613 1.68366 38.54 0 40.6032 0H100.744C102.808 0 104.486 1.68366 104.486 3.75301C104.486 5.82236 102.808 7.50602 100.744 7.50602Z" fill="#F2F2F2"/>
<path d="M147.679 20.2085H40.6032C38.54 20.2085 36.8613 18.5249 36.8613 16.4555C36.8613 14.3862 38.54 12.7025 40.6032 12.7025H147.679C149.742 12.7025 151.421 14.3862 151.421 16.4555C151.421 18.5249 149.742 20.2085 147.679 20.2085V20.2085Z" fill="#F2F2F2"/>
</g>
<defs>
<clipPath id="clip0_468_7694">
<rect width="325" height="394" fill="white"/>
</clipPath>
</defs>
</svg>
