<svg width="1281" height="413" viewBox="0 0 1281 413" fill="none" xmlns="http://www.w3.org/2000/svg">
<rect width="1281" height="413" fill="#1E2226"/>
<mask id="mask0_261_761" style="mask-type:alpha" maskUnits="userSpaceOnUse" x="0" y="0" width="1281" height="413">
<rect width="1281" height="413" fill="#F4F4F4"/>
</mask>
<g mask="url(#mask0_261_761)">
<path d="M923.119 405.856L921.725 406.352L922.22 407.746L923.615 407.25L923.119 405.856Z" fill="#437CE2"/>
<path d="M945.451 397.722L943.708 398.342L944.327 400.085L946.071 399.465L945.451 397.722Z" fill="#437CE2"/>
<path d="M967.834 389.469L965.568 390.275L966.374 392.541L968.64 391.735L967.834 389.469Z" fill="#437CE2"/>
<path d="M990.161 381.334L987.546 382.264L988.476 384.878L991.091 383.948L990.161 381.334Z" fill="#437CE2"/>
<path d="M1012.54 373.081L1009.41 374.197L1010.52 377.333L1013.66 376.218L1012.54 373.081Z" fill="#437CE2"/>
<path d="M1034.87 364.945L1031.39 366.185L1032.62 369.67L1036.11 368.431L1034.87 364.945Z" fill="#437CE2"/>
<path d="M1057.14 356.928L1053.48 358.23L1054.78 361.889L1058.44 360.588L1057.14 356.928Z" fill="#437CE2"/>
<path d="M1079.36 349.029L1075.7 350.331L1077 353.991L1080.66 352.689L1079.36 349.029Z" fill="#437CE2"/>
<path d="M1101.48 341.308L1098.09 342.515L1099.29 345.91L1102.69 344.703L1101.48 341.308Z" fill="#437CE2"/>
<path d="M1123.59 333.644L1120.54 334.728L1121.62 337.778L1124.67 336.693L1123.59 333.644Z" fill="#437CE2"/>
<path d="M1145.66 326.041L1143.05 326.971L1143.98 329.585L1146.59 328.655L1145.66 326.041Z" fill="#437CE2"/>
<path d="M1167.74 318.437L1165.56 319.211L1166.33 321.39L1168.51 320.615L1167.74 318.437Z" fill="#437CE2"/>
<path d="M1189.81 310.834L1188.07 311.454L1188.69 313.196L1190.43 312.577L1189.81 310.834Z" fill="#437CE2"/>
<path d="M1211.94 303.111L1210.46 303.638L1210.99 305.119L1212.47 304.593L1211.94 303.111Z" fill="#437CE2"/>
<path d="M1234.07 295.388L1232.85 295.822L1233.28 297.042L1234.5 296.608L1234.07 295.388Z" fill="#437CE2"/>
<path d="M1256.26 287.549L1255.12 287.952L1255.53 289.085L1256.66 288.682L1256.26 287.549Z" fill="#437CE2"/>
<path d="M1278.44 279.708L1277.4 280.08L1277.77 281.126L1278.81 280.754L1278.44 279.708Z" fill="#437CE2"/>
<path d="M987.958 405.367L982.209 407.411L984.253 413.158L990.002 411.114L987.958 405.367Z" fill="#437CE2"/>
<path d="M1010.4 396.995L1003.95 399.287L1006.24 405.731L1012.69 403.439L1010.4 396.995Z" fill="#437CE2"/>
<path d="M1032.75 388.799L1025.87 391.246L1028.31 398.126L1035.2 395.679L1032.75 388.799Z" fill="#437CE2"/>
<path d="M1055.02 380.782L1047.96 383.291L1050.47 390.345L1057.53 387.836L1055.02 380.782Z" fill="#437CE2"/>
<path d="M1077.24 372.883L1070.18 375.392L1072.69 382.446L1079.74 379.937L1077.24 372.883Z" fill="#437CE2"/>
<path d="M1099.39 365.103L1092.51 367.55L1094.96 374.43L1101.84 371.983L1099.39 365.103Z" fill="#437CE2"/>
<path d="M1121.47 357.5L1115.02 359.792L1117.32 366.236L1123.76 363.944L1121.47 357.5Z" fill="#437CE2"/>
<path d="M1143.46 350.074L1137.71 352.118L1139.76 357.865L1145.5 355.821L1143.46 350.074Z" fill="#437CE2"/>
<path d="M1165.42 342.705L1160.46 344.47L1162.22 349.433L1167.18 347.668L1165.42 342.705Z" fill="#437CE2"/>
<path d="M1187.41 335.279L1183.14 336.796L1184.66 341.062L1188.93 339.544L1187.41 335.279Z" fill="#437CE2"/>
<path d="M1209.4 327.852L1205.83 329.122L1207.1 332.69L1210.67 331.421L1209.4 327.852Z" fill="#437CE2"/>
<path d="M1231.39 320.425L1228.52 321.447L1229.54 324.323L1232.42 323.3L1231.39 320.425Z" fill="#437CE2"/>
<path d="M1253.53 312.704L1250.91 313.633L1251.84 316.247L1254.46 315.317L1253.53 312.704Z" fill="#437CE2"/>
<path d="M1275.63 305.041L1273.36 305.847L1274.17 308.112L1276.43 307.307L1275.63 305.041Z" fill="#437CE2"/>
<path d="M1052.37 405.759L1043.57 408.888L1046.7 417.684L1055.5 414.556L1052.37 405.759Z" fill="#437CE2"/>
<path d="M1074.65 397.743L1065.67 400.934L1068.86 409.905L1077.84 406.714L1074.65 397.743Z" fill="#437CE2"/>
<path d="M1096.89 389.784L1087.83 393.006L1091.05 402.064L1100.11 398.842L1096.89 389.784Z" fill="#437CE2"/>
<path d="M1119.05 382.004L1110.16 385.164L1113.32 394.048L1122.21 390.888L1119.05 382.004Z" fill="#437CE2"/>
<path d="M1141.2 374.223L1132.49 377.321L1135.59 386.03L1144.3 382.932L1141.2 374.223Z" fill="#437CE2"/>
<path d="M1163.28 366.618L1155 369.561L1157.94 377.835L1166.22 374.892L1163.28 366.618Z" fill="#437CE2"/>
<path d="M1185.27 359.192L1177.69 361.886L1180.38 369.463L1187.96 366.768L1185.27 359.192Z" fill="#437CE2"/>
<path d="M1207.29 351.707L1200.32 354.185L1202.8 361.152L1209.76 358.674L1207.29 351.707Z" fill="#437CE2"/>
<path d="M1229.25 344.338L1223.06 346.538L1225.26 352.72L1231.44 350.521L1229.25 344.338Z" fill="#437CE2"/>
<path d="M1251.18 337.03L1245.87 338.919L1247.76 344.231L1253.07 342.341L1251.18 337.03Z" fill="#437CE2"/>
<path d="M1273.23 329.485L1268.44 331.189L1270.14 335.977L1274.93 334.274L1273.23 329.485Z" fill="#437CE2"/>
<path d="M1116.12 407.57L1106.36 411.04L1109.83 420.795L1119.59 417.325L1116.12 407.57Z" fill="#437CE2"/>
<path d="M1138.36 399.613L1128.52 403.114L1132.02 412.956L1141.86 409.456L1138.36 399.613Z" fill="#437CE2"/>
<path d="M1160.55 391.772L1150.79 395.242L1154.26 404.997L1164.01 401.528L1160.55 391.772Z" fill="#437CE2"/>
<path d="M1182.68 384.052L1173.18 387.428L1176.56 396.922L1186.05 393.545L1182.68 384.052Z" fill="#437CE2"/>
<path d="M1204.81 376.329L1195.57 379.612L1198.85 388.845L1208.09 385.561L1204.81 376.329Z" fill="#437CE2"/>
<path d="M1226.88 368.724L1218.08 371.853L1221.21 380.649L1230.01 377.521L1226.88 368.724Z" fill="#437CE2"/>
<path d="M1248.9 361.239L1240.71 364.151L1243.62 372.338L1251.81 369.426L1248.9 361.239Z" fill="#437CE2"/>
<path d="M1270.97 353.635L1263.22 356.392L1265.97 364.143L1273.73 361.386L1270.97 353.635Z" fill="#437CE2"/>
<path d="M1179.55 410.03L1169.79 413.5L1173.26 423.255L1183.02 419.785L1179.55 410.03Z" fill="#437CE2"/>
<path d="M1201.79 402.074L1191.95 405.574L1195.45 415.417L1205.29 411.916L1201.79 402.074Z" fill="#437CE2"/>
<path d="M1224.01 394.175L1214.16 397.676L1217.66 407.518L1227.51 404.017L1224.01 394.175Z" fill="#437CE2"/>
<path d="M1246.19 386.334L1236.44 389.804L1239.9 399.559L1249.66 396.089L1246.19 386.334Z" fill="#437CE2"/>
<path d="M1268.35 378.553L1258.77 381.96L1262.17 391.541L1271.76 388.133L1268.35 378.553Z" fill="#437CE2"/>
<path d="M1243.01 412.433L1233.17 415.934L1236.67 425.776L1246.51 422.275L1243.01 412.433Z" fill="#437CE2"/>
<path d="M1265.23 404.534L1255.38 408.035L1258.88 417.877L1268.73 414.376L1265.23 404.534Z" fill="#437CE2"/>
<path d="M1287.41 396.693L1277.65 400.163L1281.12 409.918L1290.88 406.448L1287.41 396.693Z" fill="#437CE2"/>
<path d="M1.22798 0.792877L-1.03809 1.59863L-0.232575 3.86401L2.03349 3.05826L1.22798 0.792877Z" fill="#437CE2"/>
<path d="M-1.17418 25.2372L-5.96436 26.9404L-4.26163 31.7291L0.528548 30.0258L-1.17418 25.2372Z" fill="#437CE2"/>
<path d="M20.9283 17.5748L16.4868 19.1541L18.0656 23.5942L22.5071 22.0149L20.9283 17.5748Z" fill="#437CE2"/>
<path d="M43.0868 9.79371L38.8196 11.311L40.3364 15.5769L44.6037 14.0596L43.0868 9.79371Z" fill="#437CE2"/>
<path d="M65.332 1.83693L60.9775 3.38525L62.5254 7.73828L66.8798 6.18996L65.332 1.83693Z" fill="#437CE2"/>
<path d="M87.6589 -6.29826L82.9561 -4.62598L84.6277 0.0755879L89.3306 -1.5967L87.6589 -6.29826Z" fill="#437CE2"/>
<path d="M18.703 41.6656L11.2109 44.3296L13.8741 51.8193L21.3661 49.1553L18.703 41.6656Z" fill="#437CE2"/>
<path d="M40.8871 33.825L33.4822 36.458L36.1144 43.8606L43.5192 41.2276L40.8871 33.825Z" fill="#437CE2"/>
<path d="M63.1578 25.8075L55.5786 28.5024L58.2728 36.0793L65.852 33.3844L63.1578 25.8075Z" fill="#437CE2"/>
<path d="M85.4851 17.6725L77.5571 20.4915L80.3752 28.4168L88.3031 25.5978L85.4851 17.6725Z" fill="#437CE2"/>
<path d="M107.842 9.47969L99.4788 12.4536L102.452 20.8146L110.815 17.8407L107.842 9.47969Z" fill="#437CE2"/>
<path d="M130.226 1.22615L121.339 4.38599L124.498 13.2698L133.385 10.11L130.226 1.22615Z" fill="#437CE2"/>
<path d="M152.552 -6.90908L143.317 -3.62524L146.6 5.60704L155.835 2.3232L152.552 -6.90908Z" fill="#437CE2"/>
<path d="M16.0841 66.5839L6.76172 69.8987L10.0755 79.2181L19.3979 75.9033L16.0841 66.5839Z" fill="#437CE2"/>
<path d="M38.2427 58.8034L29.0947 62.0562L32.3465 71.2014L41.4945 67.9486L38.2427 58.8034Z" fill="#437CE2"/>
<path d="M60.4576 50.9042L51.3096 54.157L54.5614 63.3022L63.7094 60.0494L60.4576 50.9042Z" fill="#437CE2"/>
<path d="M82.6978 42.945L73.4626 46.2288L76.7454 55.4611L85.9806 52.1773L82.6978 42.945Z" fill="#437CE2"/>
<path d="M104.999 34.8701L95.5027 38.2468L98.8784 47.7405L108.375 44.3638L104.999 34.8701Z" fill="#437CE2"/>
<path d="M127.27 26.8527L117.599 30.2915L121.037 39.9595L130.708 36.5207L127.27 26.8527Z" fill="#437CE2"/>
<path d="M149.541 18.8354L139.696 22.3362L143.195 32.1785L153.04 28.6777L149.541 18.8354Z" fill="#437CE2"/>
<path d="M171.755 10.9365L161.91 14.4373L165.41 24.2795L175.255 20.7788L171.755 10.9365Z" fill="#437CE2"/>
<path d="M193.745 3.51012L184.597 6.76294L187.849 15.9081L196.997 12.6553L193.745 3.51012Z" fill="#437CE2"/>
<path d="M215.312 -3.03183L208.168 -0.491699L210.707 6.64952L217.851 4.10939L215.312 -3.03183Z" fill="#437CE2"/>
<path d="M13.0114 92.4443L3.25342 95.9141L6.72201 105.669L16.48 102.199L13.0114 92.4443Z" fill="#437CE2"/>
<path d="M35.2005 84.6059L25.5295 88.0447L28.9672 97.7127L38.6381 94.2739L35.2005 84.6059Z" fill="#437CE2"/>
<path d="M57.4151 76.7073L47.7441 80.146L51.1818 89.814L60.8528 86.3752L57.4151 76.7073Z" fill="#437CE2"/>
<path d="M79.6297 68.8081L69.9587 72.2468L73.3964 81.9148L83.0673 78.4761L79.6297 68.8081Z" fill="#437CE2"/>
<path d="M101.87 60.8491L92.1121 64.3188L95.5808 74.0739L105.339 70.6042L101.87 60.8491Z" fill="#437CE2"/>
<path d="M124.115 52.8921L114.27 56.3928L117.77 66.2351L127.615 62.7343L124.115 52.8921Z" fill="#437CE2"/>
<path d="M146.33 44.9932L136.485 48.4939L139.984 58.3361L149.83 54.8354L146.33 44.9932Z" fill="#437CE2"/>
<path d="M168.432 37.3305L158.936 40.7073L162.312 50.201L171.808 46.8242L168.432 37.3305Z" fill="#437CE2"/>
<path d="M190.193 30.3742L182.091 33.2551L184.971 41.3548L193.073 38.4738L190.193 30.3742Z" fill="#437CE2"/>
<path d="M211.565 24.2471L206.077 26.1982L208.028 31.6839L213.515 29.7328L211.565 24.2471Z" fill="#437CE2"/>
<path d="M233.083 17.8243L229.771 19.002L230.948 22.3129L234.26 21.1353L233.083 17.8243Z" fill="#437CE2"/>
<path d="M254.736 11.1065L253.167 11.6643L253.725 13.2327L255.294 12.6748L254.736 11.1065Z" fill="#437CE2"/>
<path d="M9.83117 118.544L-0.013916 122.045L3.48564 131.887L13.3307 128.386L9.83117 118.544Z" fill="#437CE2"/>
<path d="M32.0456 110.645L22.2004 114.146L25.7001 123.988L35.5453 120.487L32.0456 110.645Z" fill="#437CE2"/>
<path d="M54.2605 102.746L44.4153 106.247L47.9149 116.089L57.7602 112.588L54.2605 102.746Z" fill="#437CE2"/>
<path d="M76.4749 94.8472L66.6296 98.3479L70.1293 108.19L79.9745 104.689L76.4749 94.8472Z" fill="#437CE2"/>
<path d="M98.6898 86.9483L88.8445 90.449L92.3442 100.291L102.189 96.7905L98.6898 86.9483Z" fill="#437CE2"/>
<path d="M120.905 79.0492L111.059 82.55L114.559 92.3923L124.404 88.8915L120.905 79.0492Z" fill="#437CE2"/>
<path d="M143.119 71.1504L133.274 74.6511L136.773 84.4933L146.619 80.9926L143.119 71.1504Z" fill="#437CE2"/>
<path d="M165.191 63.5453L155.781 66.8911L159.126 76.2977L168.536 72.9519L165.191 63.5453Z" fill="#437CE2"/>
<path d="M187.069 56.3554L178.705 59.3293L181.678 67.6904L190.042 64.7164L187.069 56.3554Z" fill="#437CE2"/>
<path d="M208.553 49.992L202.456 52.1602L204.623 58.2558L210.721 56.0877L208.553 49.992Z" fill="#437CE2"/>
<path d="M229.895 43.923L226.499 45.1304L227.706 48.5249L231.102 47.3175L229.895 43.923Z" fill="#437CE2"/>
<path d="M251.637 37.0279L249.72 37.7097L250.402 39.6266L252.319 38.9448L251.637 37.0279Z" fill="#437CE2"/>
<path d="M6.25275 145.468L-2.45947 148.566L0.63738 157.275L9.34961 154.177L6.25275 145.468Z" fill="#437CE2"/>
<path d="M28.6361 137.214L19.4009 140.498L22.6837 149.731L31.9188 146.447L28.6361 137.214Z" fill="#437CE2"/>
<path d="M50.9373 129.14L41.4407 132.516L44.8164 142.01L54.313 138.633L50.9373 129.14Z" fill="#437CE2"/>
<path d="M73.2083 121.123L63.5374 124.561L66.975 134.229L76.646 130.791L73.2083 121.123Z" fill="#437CE2"/>
<path d="M95.4226 113.224L85.7517 116.662L89.1894 126.33L98.8603 122.892L95.4226 113.224Z" fill="#437CE2"/>
<path d="M117.581 105.443L108.085 108.82L111.46 118.314L120.957 114.937L117.581 105.443Z" fill="#437CE2"/>
<path d="M139.628 97.898L130.654 101.089L133.844 110.06L142.817 106.869L139.628 97.898Z" fill="#437CE2"/>
<path d="M161.475 90.7657L153.634 93.5537L156.421 101.392L164.262 98.604L161.475 90.7657Z" fill="#437CE2"/>
<path d="M183.153 83.9877L176.969 86.1868L179.167 92.3695L185.352 90.1705L183.153 83.9877Z" fill="#437CE2"/>
<path d="M204.581 77.7429L200.837 79.0742L202.168 82.8173L205.912 81.486L204.581 77.7429Z" fill="#437CE2"/>
<path d="M226.212 71.0838L224.295 71.7656L224.976 73.6825L226.894 73.0007L226.212 71.0838Z" fill="#437CE2"/>
<path d="M248.172 63.715L247.039 64.1179L247.441 65.2506L248.574 64.8477L248.172 63.715Z" fill="#437CE2"/>
<path d="M1.9442 173.927L-3.3689 175.817L-1.48028 181.128L3.83282 179.239L1.9442 173.927Z" fill="#437CE2"/>
<path d="M24.5826 165.144L17.9622 167.498L20.3155 174.116L26.9359 171.762L24.5826 165.144Z" fill="#437CE2"/>
<path d="M47.0477 156.712L39.6428 159.345L42.275 166.748L49.6799 164.115L47.0477 156.712Z" fill="#437CE2"/>
<path d="M69.4872 148.341L61.385 151.222L64.265 159.321L72.3673 156.44L69.4872 148.341Z" fill="#437CE2"/>
<path d="M91.8141 140.206L83.3633 143.21L86.3672 151.659L94.818 148.654L91.8141 140.206Z" fill="#437CE2"/>
<path d="M114.059 132.248L105.521 135.284L108.556 143.819L117.094 140.783L114.059 132.248Z" fill="#437CE2"/>
<path d="M136.161 124.586L127.972 127.498L130.883 135.685L139.072 132.773L136.161 124.586Z" fill="#437CE2"/>
<path d="M158.095 117.277L150.778 119.879L153.379 127.195L160.696 124.593L158.095 117.277Z" fill="#437CE2"/>
<path d="M179.774 110.499L174.112 112.513L176.125 118.173L181.787 116.159L179.774 110.499Z" fill="#437CE2"/>
<path d="M201.457 103.724L197.451 105.148L198.876 109.156L202.882 107.732L201.457 103.724Z" fill="#437CE2"/>
<path d="M223.083 97.0626L220.904 97.8374L221.679 100.016L223.858 99.2409L223.083 97.0626Z" fill="#437CE2"/>
<path d="M244.987 89.8125L243.766 90.2463L244.2 91.4662L245.42 91.0323L244.987 89.8125Z" fill="#437CE2"/>
<path d="M20.3303 193.485L16.9346 194.693L18.1416 198.087L21.5373 196.88L20.3303 193.485Z" fill="#437CE2"/>
<path d="M42.7696 185.114L38.6768 186.569L40.1316 190.661L44.2244 189.205L42.7696 185.114Z" fill="#437CE2"/>
<path d="M65.2652 176.624L60.3008 178.39L62.0655 183.353L67.0299 181.587L65.2652 176.624Z" fill="#437CE2"/>
<path d="M87.6226 168.431L82.2224 170.351L84.1421 175.75L89.5423 173.83L87.6226 168.431Z" fill="#437CE2"/>
<path d="M109.837 160.532L104.437 162.452L106.357 167.851L111.757 165.931L109.837 160.532Z" fill="#437CE2"/>
<path d="M131.94 152.869L126.888 154.666L128.684 159.716L133.735 157.919L131.94 152.869Z" fill="#437CE2"/>
<path d="M153.843 145.619L149.75 147.074L151.205 151.166L155.298 149.71L153.843 145.619Z" fill="#437CE2"/>
<path d="M175.642 138.605L172.853 139.597L173.844 142.385L176.633 141.394L175.642 138.605Z" fill="#437CE2"/>
<path d="M197.576 131.297L195.658 131.979L196.34 133.896L198.257 133.214L197.576 131.297Z" fill="#437CE2"/>
<path d="M219.561 123.868L218.341 124.302L218.775 125.522L219.995 125.088L219.561 123.868Z" fill="#437CE2"/>
<path d="M241.663 116.206L240.792 116.516L241.102 117.387L241.973 117.077L241.663 116.206Z" fill="#437CE2"/>
<path d="M38.6892 213.099L37.2947 213.595L37.7904 214.989L39.1849 214.493L38.6892 213.099Z" fill="#437CE2"/>
<path d="M60.9905 205.025L59.3345 205.614L59.9231 207.269L61.5791 206.68L60.9905 205.025Z" fill="#437CE2"/>
<path d="M83.3175 196.889L81.3127 197.602L82.0253 199.606L84.03 198.893L83.3175 196.889Z" fill="#437CE2"/>
<path d="M105.619 188.814L103.353 189.62L104.158 191.885L106.424 191.079L105.619 188.814Z" fill="#437CE2"/>
<path d="M127.859 180.855L125.506 181.692L126.342 184.044L128.696 183.207L127.859 180.855Z" fill="#437CE2"/>
<path d="M149.992 173.134L147.9 173.878L148.644 175.969L150.735 175.225L149.992 173.134Z" fill="#437CE2"/>
<path d="M172.094 165.472L170.351 166.092L170.971 167.834L172.714 167.214L172.094 165.472Z" fill="#437CE2"/>
<path d="M194.136 157.925L192.915 158.359L193.349 159.578L194.569 159.145L194.136 157.925Z" fill="#437CE2"/>
<path d="M216.268 150.204L215.31 150.545L215.65 151.503L216.609 151.162L216.268 150.204Z" fill="#437CE2"/>
</g>
</svg>
